<svg width="60" height="60" fill="none" xmlns="http://www.w3.org/2000/svg"><rect width="60" height="60" rx="10" fill="#FE7E47" fill-opacity=".3"/><path d="M44.167 26.982H39.35c-3.95 0-7.167-3.217-7.167-7.167V15c0-.917-.75-1.667-1.666-1.667H23.45c-5.133 0-9.283 3.333-9.283 9.283v14.767c0 5.95 4.15 9.283 9.283 9.283h13.1c5.133 0 9.283-3.333 9.283-9.283V28.65c0-.917-.75-1.667-1.666-1.667z" fill="#FE7E47"/><path d="M36.333 13.684c-.683-.683-1.866-.216-1.866.734v5.816c0 2.433 2.066 4.45 4.583 4.45 1.583.017 3.783.017 5.667.017.95 0 1.45-1.117.783-1.784-2.4-2.416-6.7-6.766-9.167-9.233zM32.5 32.918h-10a1.26 1.26 0 01-1.25-1.25c0-.683.567-1.25 1.25-1.25h10c.683 0 1.25.567 1.25 1.25a1.26 1.26 0 01-1.25 1.25zm-3.333 6.664H22.5a1.26 1.26 0 01-1.25-1.25c0-.683.567-1.25 1.25-1.25h6.667c.683 0 1.25.567 1.25 1.25a1.26 1.26 0 01-1.25 1.25z" fill="#141731"/></svg>