<svg width="60" height="60" fill="none" xmlns="http://www.w3.org/2000/svg"><rect width="60" height="60" rx="10" fill="#FE7E47" fill-opacity=".3"/><path d="M46.667 20.415v8.5c0 2.117-.7 3.9-1.95 5.134-1.234 1.25-3.017 1.95-5.134 1.95v3.016c0 1.134-1.266 1.817-2.2 1.184l-1.616-1.067c.15-.517.216-1.083.216-1.683v-6.784c0-3.4-2.266-5.666-5.666-5.666H19c-.233 0-.45.016-.667.033v-4.617c0-4.25 2.834-7.083 7.084-7.083h14.166c4.25 0 7.084 2.833 7.084 7.083z" fill="#FE7E47"/><path d="M35.983 30.667v6.783c0 .6-.066 1.167-.216 1.683-.617 2.45-2.65 3.984-5.45 3.984h-4.534l-5.033 3.35c-.75.516-1.75-.034-1.75-.934v-2.416c-1.7 0-3.117-.567-4.1-1.55-1-1-1.567-2.417-1.567-4.117v-6.783c0-3.167 1.967-5.35 5-5.634.217-.016.434-.033.667-.033h11.317c3.4 0 5.666 2.267 5.666 5.667z" fill="#141731"/></svg>