<svg width="61" height="60" fill="none" xmlns="http://www.w3.org/2000/svg"><rect x=".5" width="60" height="60" rx="10" fill="#FE7E47" fill-opacity=".3"/><path d="M46.6 27.399l-1.633 6.966c-1.4 6.017-4.167 8.45-9.367 7.95a17.504 17.504 0 01-2.7-.45l-2.8-.666c-6.95-1.65-9.1-5.084-7.467-12.05l1.634-6.983c.333-1.417.733-2.65 1.233-3.667 1.95-4.033 5.267-5.117 10.833-3.8l2.784.65c6.983 1.633 9.116 5.083 7.483 12.05z" fill="#FE7E47"/><path d="M35.6 42.32c-1.033.7-2.333 1.284-3.917 1.8l-2.633.867c-6.617 2.134-10.1.35-12.25-6.266l-2.133-6.584c-2.134-6.616-.367-10.116 6.25-12.25l2.633-.866c.683-.217 1.333-.4 1.95-.517-.5 1.017-.9 2.25-1.233 3.667l-1.634 6.983c-1.633 6.967.517 10.4 7.467 12.05l2.8.667c.967.233 1.867.383 2.7.45zm4.05-14.802c-.1 0-.2-.016-.316-.033l-8.084-2.05a1.249 1.249 0 01-.9-1.517 1.25 1.25 0 011.517-.9l8.083 2.05a1.25 1.25 0 01.9 1.517c-.133.55-.65.933-1.2.933z" fill="#141731"/><path d="M34.767 33.147c-.1 0-.2-.017-.317-.033L29.6 31.88a1.249 1.249 0 01-.9-1.516 1.249 1.249 0 011.517-.9l4.85 1.233a1.25 1.25 0 01.9 1.517 1.214 1.214 0 01-1.2.933z" fill="#141731"/></svg>