<svg width="61" height="60" fill="none" xmlns="http://www.w3.org/2000/svg"><rect x=".5" width="60" height="60" rx="10" fill="#FE7E47" fill-opacity=".3"/><path d="M28.85 43.365c8.293 0 15.017-6.723 15.017-15.016 0-8.294-6.724-15.017-15.017-15.017-8.294 0-15.017 6.723-15.017 15.017 0 8.293 6.723 15.016 15.017 15.016z" fill="#FE7E47"/><path d="M47.15 41.583C46.6 40.567 45.434 40 43.867 40c-1.183 0-2.2.483-2.8 1.317-.6.833-.733 1.95-.367 3.066.717 2.167 1.967 2.65 2.65 2.734.1.016.2.016.317.016.733 0 1.866-.316 2.966-1.966.884-1.284 1.05-2.567.517-3.584z" fill="#141731"/></svg>