<svg width="573" height="281" fill="none" xmlns="http://www.w3.org/2000/svg"><path d="M101 24.8C101 11.103 112.103 0 125.8 0h20.4C159.897 0 171 11.103 171 24.8v75.4c0 13.697-11.103 24.8-24.8 24.8h-1.8c-23.969 0-43.4-19.431-43.4-43.4V24.8z" fill="#FE7E47"/><path d="M101 180.8c0-13.697 11.103-24.8 24.8-24.8H136c19.33 0 35 15.67 35 35v65.2c0 13.697-11.103 24.8-24.8 24.8h-20.4c-13.697 0-24.8-11.103-24.8-24.8v-75.4zM0 24.8C0 11.103 11.103 0 24.8 0h20.4C58.897 0 70 11.103 70 24.8v75.4c0 13.697-11.103 24.8-24.8 24.8H35c-19.33 0-35-15.67-35-35V24.8z" fill="#fff"/><path fill-rule="evenodd" clip-rule="evenodd" d="M70.064 81.996A72.44 72.44 0 0070 85.053c0 38.238 30.179 69.423 68 70.996v48.947h-37.034c.023-.771.034-1.545.034-2.322 0-40.199-30.161-73.324-69-77.805V81.996h38.064z" fill="#fff"/><path opacity=".7" d="M503 24.8C503 11.103 514.103 0 527.8 0h20.4C561.897 0 573 11.103 573 24.8v75.4c0 13.697-11.103 24.8-24.8 24.8h-1.8c-23.969 0-43.4-19.431-43.4-43.4V24.8z" fill="#fff"/><path d="M503 180.8c0-13.697 11.103-24.8 24.8-24.8H538c19.33 0 35 15.67 35 35v65.2c0 13.697-11.103 24.8-24.8 24.8h-20.4c-13.697 0-24.8-11.103-24.8-24.8v-75.4zm-101-156C402 11.103 413.103 0 426.8 0h20.4C460.897 0 472 11.103 472 24.8v75.4c0 13.697-11.103 24.8-24.8 24.8H437c-19.33 0-35-15.67-35-35V24.8z" fill="#fff"/><path fill-rule="evenodd" clip-rule="evenodd" d="M472.064 81.996a73.814 73.814 0 00-.064 3.057c0 38.238 30.179 69.423 68 70.996v48.947h-37.034c.023-.771.034-1.545.034-2.322 0-40.199-30.161-73.324-69-77.805V81.996h38.064z" fill="#fff"/><path d="M327 0c24.853 0 45 20.147 45 45v71c0 13.807-11.193 25-25 25h-20c-13.807 0-25-11.193-25-25V38.3c0-10.107-8.193-18.3-18.3-18.3-10.107 0-18.3 8.193-18.3 18.3V85c0 13.807-11.193 25-25 25H226c-13.807 0-25-11.193-25-25V45c0-24.853 20.147-45 45-45h81z" fill="#fff"/><path opacity=".7" d="M246 281c-24.853 0-45-20.147-45-45v-71c0-13.807 11.193-25 25-25h20c13.807 0 25 11.193 25 25v77.7c0 10.107 8.193 18.3 18.3 18.3 10.107 0 18.3-8.193 18.3-18.3V196c0-13.807 11.193-25 25-25H347c13.807 0 25 11.193 25 25v40c0 24.853-20.147 45-45 45h-81z" fill="#fff"/></svg>