<svg width="60" height="60" fill="none" xmlns="http://www.w3.org/2000/svg"><rect width="60" height="60" rx="10" fill="#FE7E47" fill-opacity=".3"/><path d="M44.167 21.665V35H20.583a4.759 4.759 0 00-4.75 4.75V21.665c0-6.666 1.667-8.333 8.334-8.333h11.666c6.667 0 8.334 1.667 8.334 8.333z" fill="#FE7E47"/><path d="M44.167 35v5.833a5.84 5.84 0 01-5.834 5.834H21.667a5.84 5.84 0 01-5.834-5.834V39.75a4.759 4.759 0 014.75-4.75h23.584zm-7.5-12.082H23.333a1.26 1.26 0 01-1.25-1.25c0-.683.567-1.25 1.25-1.25h13.334c.683 0 1.25.567 1.25 1.25a1.26 1.26 0 01-1.25 1.25zm-5 5.832h-8.334a1.26 1.26 0 01-1.25-1.25c0-.683.567-1.25 1.25-1.25h8.334c.683 0 1.25.567 1.25 1.25a1.26 1.26 0 01-1.25 1.25z" fill="#141731"/></svg>