<svg width="61" height="60" fill="none" xmlns="http://www.w3.org/2000/svg"><rect x=".5" width="60" height="60" rx="10" fill="#FE7E47" fill-opacity=".3"/><path d="M38.417 15.932v-2.6a1.26 1.26 0 00-1.25-1.25 1.26 1.26 0 00-1.25 1.25v2.5H25.083v-2.5a1.26 1.26 0 00-1.25-1.25 1.26 1.26 0 00-1.25 1.25v2.6c-4.5.417-6.683 3.1-7.016 7.083a.837.837 0 00.833.884h28.2c.483 0 .883-.417.833-.884-.333-3.983-2.516-6.666-7.016-7.083z" fill="#141731"/><path d="M45.5 28.062v2.9c0 1.017-.9 1.8-1.9 1.634-.467-.067-.95-.117-1.433-.117-5.05 0-9.167 4.117-9.167 9.167 0 .766.3 1.833.617 2.8a1.663 1.663 0 01-1.584 2.2h-8.2c-5.833 0-8.333-3.334-8.333-8.334V28.046c0-.917.75-1.667 1.667-1.667h26.666a1.697 1.697 0 011.667 1.683z" fill="#FE7E47"/><path d="M42.167 35a6.665 6.665 0 00-6.667 6.667c0 1.25.35 2.433.967 3.433a6.616 6.616 0 005.7 3.233c2.433 0 4.55-1.3 5.7-3.233a6.54 6.54 0 00.966-3.433A6.665 6.665 0 0042.167 35zm3.45 5.95l-3.55 3.283c-.234.217-.55.334-.85.334-.317 0-.634-.117-.884-.367l-1.65-1.65a1.258 1.258 0 010-1.767 1.258 1.258 0 011.767 0l.8.8 2.667-2.466c.5-.467 1.3-.434 1.766.066.467.5.434 1.284-.066 1.767zm-20.95-5.947c-.434 0-.867-.184-1.184-.484A1.75 1.75 0 0123 33.336c0-.433.183-.867.483-1.183a1.683 1.683 0 011.517-.45c.1.016.2.05.3.1.1.033.2.083.3.15l.25.2c.3.316.483.75.483 1.183 0 .434-.183.867-.483 1.183l-.25.2c-.1.067-.2.117-.3.15-.1.05-.2.084-.3.1-.117.017-.233.034-.333.034zM30.5 35a1.75 1.75 0 01-1.183-.483c-.3-.317-.484-.75-.484-1.184 0-.433.184-.866.484-1.183.633-.617 1.75-.617 2.366 0 .3.317.484.75.484 1.183 0 .434-.184.867-.484 1.184-.316.3-.75.483-1.183.483zm-5.833 5.831c-.434 0-.867-.183-1.184-.483A1.75 1.75 0 0123 39.165c0-.434.183-.867.483-1.184.167-.15.334-.266.55-.35a1.665 1.665 0 011.817.35c.3.317.483.75.483 1.184 0 .433-.183.867-.483 1.183-.317.3-.75.483-1.183.483z" fill="#141731"/></svg>