<svg width="60" height="60" fill="none" xmlns="http://www.w3.org/2000/svg"><rect width="60" height="60" rx="10" fill="#FE7E47" fill-opacity=".3"/><path d="M46.116 21.585c-1.066-3.617-4.083-6.633-7.7-7.7-2.75-.8-4.65-.733-5.966.25-1.584 1.183-1.767 3.317-1.767 4.833v4.15c0 4.1 1.867 6.184 5.533 6.184H41c1.5 0 3.65-.184 4.833-1.767 1.017-1.3 1.1-3.2.283-5.95z" fill="#141731"/><path d="M41.517 32.27a2.28 2.28 0 00-1.717-.784h-5.967a5.32 5.32 0 01-5.316-5.316v-5.967a2.28 2.28 0 00-.784-1.716 2.26 2.26 0 00-1.783-.55c-3.917.5-7.517 2.65-9.867 5.883-2.366 3.25-3.233 7.216-2.483 11.183 1.083 5.733 5.667 10.317 11.417 11.4a13.98 13.98 0 002.75.267c3.016 0 5.933-.934 8.416-2.75 3.233-2.35 5.383-5.95 5.883-9.867a2.24 2.24 0 00-.55-1.783z" fill="#FE7E47"/></svg>