<svg width="61" height="60" fill="none" xmlns="http://www.w3.org/2000/svg"><rect x=".5" width="60" height="60" rx="10" fill="#FE7E47" fill-opacity=".3"/><path d="M44.5 37.218a4.375 4.375 0 01-2.733 2.633c-1.8.6-3.65 1.05-5.517 1.367a6.282 6.282 0 01-.55.083c-.3.05-.6.084-.9.117-.367.05-.75.083-1.133.117-1.05.083-2.084.133-3.134.133a33.65 33.65 0 01-3.183-.15 16.46 16.46 0 01-1.317-.15c-.25-.033-.5-.067-.733-.1-.183-.033-.367-.05-.55-.083a34.48 34.48 0 01-5.467-1.35c-1.333-.45-2.35-1.4-2.8-2.617-.45-1.2-.283-2.6.434-3.8l1.883-3.133c.4-.684.767-2 .767-2.8v-3.1c0-6.05 4.916-10.967 10.966-10.967 6.034 0 10.95 4.917 10.95 10.967v3.1c0 .8.367 2.116.784 2.8l1.883 3.133a4.421 4.421 0 01.35 3.8z" fill="#FE7E47"/><path d="M30.5 27.934c-.7 0-1.267-.566-1.267-1.266V21.5a1.266 1.266 0 112.534 0v5.167c-.017.7-.584 1.266-1.267 1.266zm4.717 15.415a5.024 5.024 0 01-4.717 3.316 4.942 4.942 0 01-3.533-1.483c-.534-.5-.934-1.167-1.167-1.85.217.033.433.05.667.083.383.05.783.1 1.183.134.95.083 1.917.133 2.883.133.95 0 1.9-.05 2.834-.133.35-.034.7-.05 1.033-.1.267-.034.533-.067.817-.1z" fill="#141731"/></svg>