<svg width="142" height="90" fill="none" xmlns="http://www.w3.org/2000/svg"><path d="M55.636 62.136c-2.695 0-4.036 1.983-4.036 4.66 0 2.788 1.288 4.735 4.036 4.735 2.751 0 4.035-1.947 4.035-4.734 0-2.678-1.339-4.661-4.035-4.661zm0 7.573c-.716 0-1.035-.643-1.035-2.913 0-2.072.213-2.84 1.035-2.84s1.035.768 1.035 2.84c0 2.272-.321 2.913-1.035 2.913zm5.899-8.338v1.002h-1.18v2.038h1.18v6.926h2.893V64.41h1.574v-2.037h-1.574v-.91c0-.544.275-.843 1.036-.843.16 0 .375.036.537.073V58.48c-.466-.054-.896-.109-1.465-.109-1.91 0-3.001.804-3.001 3zm-30.84 3.52c0-1.982-1.801-2.73-3.536-2.73-1.64 0-3.25.712-3.57 2.48l2.517.52c.031-.525.253-1.178.948-1.178.5 0 .748.355.748.89v.77c-1.91.222-4.545.912-4.608 3.245-.044 1.648 1.055 2.624 2.497 2.624.853 0 1.707-.472 2.2-.992.018.149.037.572.092.82h2.982c-.11-.123-.27-.429-.27-1.447v-5.002zm-2.892 4.163c-.246.324-.599.557-.928.557-.519 0-.84-.325-.84-.95 0-1.144.757-1.529 1.767-1.626l.001 2.02zm9.987-6.895c-1.129 0-1.925.523-2.521 1.13h-.037l-.015-.916h-2.83v8.965h2.892v-6.412c.264-.338.616-.557.941-.557.483 0 .667.284.667.795v6.173h2.893v-7.091c0-1.23-.724-2.087-1.99-2.087zm11.72.213h-2.876l-2.128 2.71h-.036v-6.46h-2.894v12.715h2.894v-3.21l.608-.7h.036l1.41 3.91h3l-2.434-6.205 2.42-2.76zm-29.399 2.352v-.1c.921-.36 2.075-1.234 2.075-2.896 0-1.756-1.48-3.107-3.733-3.107h-5.025v12.717h4.897c2.414 0 4.162-1.226 4.162-3.402 0-1.63-.999-2.758-2.376-3.212zm-3.56-3.852h1.125c.73 0 1.548.196 1.548 1.41 0 .752-.459 1.376-1.62 1.376H16.55v-2.786zm1.178 8.11h-1.178v-3.18h1.178c1.036 0 1.621.625 1.621 1.572 0 1.303-.926 1.608-1.62 1.608zm109.793.911v-5.002c0-1.982-1.801-2.73-3.535-2.73-1.642 0-3.251.712-3.571 2.48l2.518.52c.03-.525.251-1.178.947-1.178.497 0 .749.355.749.89v.77c-1.913.222-4.549.912-4.611 3.245-.044 1.648 1.054 2.624 2.499 2.624.853 0 1.705-.472 2.202-.992.015.149.035.572.088.82h2.98c-.104-.124-.266-.429-.266-1.447zm-2.89-.839c-.25.324-.601.557-.93.557-.519 0-.84-.325-.84-.95 0-1.144.756-1.529 1.768-1.626l.002 2.02zm-28.648-6.918c-2.661 0-3.984 2.143-3.984 4.68 0 2.483 1.25 4.716 4.018 4.716a3.695 3.695 0 003.591-2.448l-1.95-.715c-.143.722-.732 1.23-1.43 1.23-1.164 0-1.376-1.324-1.337-2.123h4.841v-.607c0-2.34-.963-4.733-3.749-4.733zm1.07 3.624h-2.161c-.045-.844.25-1.803 1.072-1.803 1 0 1.118.972 1.09 1.803zm10.481-3.387h2.891v8.965h-2.891v-8.965zm0-3.752h2.891v2.572h-2.891V58.62zm8.328 5.336c.466 0 .697.251.839.606.126.34.143.77.143 1.127h2.467c0-.893-.465-3.553-3.535-3.553-2.732 0-4.088 2.448-4.088 4.894 0 2.213 1.355 4.502 3.963 4.502 2.108 0 3.357-1.142 3.573-3.322l-2.251-.322c0 .68-.089 1.712-1.108 1.712-.748 0-1.069-.658-1.069-2.679-.006-1.785.103-2.965 1.066-2.965zM71.03 58.621l-2.982 12.717h2.785l.555-2.57h2.946l.5 2.57h3.126l-2.717-12.716H71.03zm.805 7.895l1.074-5.18h.064l.914 5.18h-2.052zm31.966-2.93h-.048l-.029-1.214h-2.8v8.965h2.896v-5.806c.339-.404.848-.693 1.586-.693.498 0 .851.12 1.18.247V62.16c-1.116 0-2.195.48-2.785 1.427zm-15.076-1.427c-1.211 0-2.075.653-2.58 1.2h-.038c-.274-.692-.86-1.2-1.74-1.2-1.077 0-1.984.558-2.589 1.127h-.037l-.015-.913h-2.823v8.966h2.838v-6.394c.244-.33.679-.553.982-.553.537 0 .679.321.679.804v6.143h2.84v-6.394c.188-.248.601-.553.99-.553.525 0 .672.321.672.804v6.143h2.838V64.19c0-1.238-.814-2.032-2.017-2.032zM62.35 24.08c2.167.857 4.31 1.775 6.424 2.753a142.356 142.356 0 00-19.444 9.68c-2.101-1.1-4.233-2.14-6.394-3.117A134.549 134.549 0 0162.35 24.08zm-8.016-2.831a111.243 111.243 0 00-20.103 8.625c2.034.736 4.051 1.52 6.038 2.358a114.652 114.652 0 0119.506-9.13 122.54 122.54 0 00-5.441-1.853z" fill="#0067B1"/><path d="M76.95 23.809a118.526 118.526 0 00-17.06-6.681 117.815 117.815 0 00-6.134 1.947 118.587 118.587 0 0117.562 6.759c1.862-.716 3.74-1.391 5.632-2.025zm8.963-2.672A128.944 128.944 0 0068.54 15c-1.89.391-3.772.827-5.641 1.307a118.288 118.288 0 0117.167 6.502c1.936-.6 3.886-1.157 5.847-1.672zm14.39 4.834A151.618 151.618 0 0061.038 45.97a142.081 142.081 0 018.743 5.834 159.057 159.057 0 0137.233-22.033 132.769 132.769 0 00-6.711-3.8zm-9.697-4.608a137.628 137.628 0 00-40.872 18.375 135.14 135.14 0 018.241 4.413 142.512 142.512 0 0140.109-19.324 130.795 130.795 0 00-7.478-3.464zm-16.224 28.93c0-.844.71-1.53 1.582-1.53.873 0 1.583.686 1.583 1.53 0 .86-.71 1.547-1.582 1.547-.873 0-1.583-.687-1.583-1.547zm.299 0c0 .703.57 1.244 1.284 1.244.705 0 1.278-.541 1.278-1.244 0-.68-.572-1.226-1.278-1.226-.712 0-1.284.547-1.284 1.226z" fill="#E31836"/><path d="M76.752 51.158h-.295l-.508-.792h-.313v.792h-.26v-1.719h.77c.15-.01.3.02.436.086a.433.433 0 01.195.372c0 .334-.246.461-.558.47l.533.79zm-.822-1.003c.245 0 .584.042.584-.266 0-.223-.196-.253-.418-.253h-.456v.516l.29.003z" fill="#E31836"/></svg>