<svg width="142" height="90" fill="none" xmlns="http://www.w3.org/2000/svg"><path d="M49.716 60.846V59.31h-4.391s-3.913.161-3.992 5.255c0 0 0 4.77 3.433 5.013h4.95v-1.456h-3.673s-2.954.162-2.874-3.961c0 0 .24-3.315 2.954-3.315h3.593zm3.114-5.578h-1.756v1.94h1.756v-1.94zm0 4.042h-1.756v10.268h1.756V59.31zm3.194 1.456h-1.996V59.23h1.996v-3.881h1.757v3.961h3.034v1.536h-3.034v5.983s-.08 1.294 1.038 1.375h1.916v1.536H58.1s-2.076.081-2.156-2.264v-6.71h.08zm7.586-1.536h-1.757v7.438s.08 2.991 3.753 2.991h3.193s.56 1.617-1.277 1.617h-5.59v1.536h6.069s2.635.243 2.715-2.83V59.148h-1.677v8.894h-3.274s-1.916 0-1.996-1.698V59.23h-.16zm19.162-.081H79.26v-3.8h-1.757V69.74h5.59c4.151-.485 3.912-5.417 3.912-5.417-.24-5.013-4.232-5.174-4.232-5.174zm2.236 4.85c.16 4.043-2.954 4.043-2.954 4.043h-2.715v-7.276h2.715c3.114.323 2.954 3.234 2.954 3.234zm10.14-4.689H88.92v1.455h5.51c2.235.162 1.996 2.668 1.996 2.668h-4.551c-3.514 0-3.513 2.83-3.513 2.83.16 3.476 3.193 3.315 3.193 3.315h6.547v-7.762c-.16-2.426-2.954-2.506-2.954-2.506zm1.198 8.812h-4.551s-1.517.081-1.597-1.617c0 0-.16-1.617 1.916-1.536h4.232v3.153zm4.551-7.195v8.732H99.22V59.472h6.068s2.955.161 2.875 2.91v7.358h-1.677v-6.63s.16-2.183-2.475-2.102h-3.114v-.081zm10.38 4.286v4.608h-1.837v-14.31h1.837v7.761h.399l5.03-3.88h2.156l-4.87 4.123h2.076s2.315 0 2.395 2.345v3.719h-1.517v-2.83s.16-1.617-1.437-1.617h-4.232v.08z" fill="#ED1D24"/><path d="M24.326 29.233s12.615.809 27.386-14.877c0 0 6.867 22.639 34.174 37.03 0 0-44.713-17.868-61.001 24.256 0-.081 10.46-31.775-.56-46.409z" fill="#231F20"/><path d="M62.651 32.872c-8.383-9.945-10.938-18.596-10.938-18.596-4.312 4.609-8.464 7.762-12.137 10.026a481.625 481.625 0 017.825 10.51 60.907 60.907 0 0115.25-1.94z" fill="#ED1D24"/><path d="M39.576 24.302c-8.863 5.336-15.25 4.932-15.25 4.932 3.034 3.961 4.391 9.217 4.87 14.715 3.354-2.75 9.422-6.711 18.205-9.137-3.114-4.204-5.909-8.004-7.825-10.51z" fill="#DFE0E4"/><path d="M29.196 43.949c1.198 14.795-4.311 31.612-4.311 31.612 8.224-18.838 19.881-26.438 30.82-28.702-2.635-4.042-5.59-8.247-8.304-12.047-8.783 2.426-14.851 6.388-18.205 9.137z" fill="#ED1D24"/><path d="M85.886 51.306s-.08 0-.16-.08c.08.08.08.08.16.08zM47.401 34.893c2.715 3.8 5.67 8.005 8.304 12.047 15.011-3.153 28.665 3.638 30.102 4.366-10.46-5.498-17.886-12.208-23.076-18.434-5.828 0-10.938.809-15.33 2.021z" fill="#000"/><path d="M85.886 51.306s-.08 0-.16-.08c.08.08.08.08.16.08zM47.401 34.893c2.715 3.8 5.67 8.005 8.304 12.047 15.011-3.153 28.665 3.638 30.102 4.366-10.46-5.498-17.886-12.208-23.076-18.434-5.828 0-10.938.809-15.33 2.021z" fill="url(#paint0_linear_37_2607)"/><defs><linearGradient id="paint0_linear_37_2607" x1="47.385" y1="42.086" x2="85.882" y2="42.086" gradientUnits="userSpaceOnUse"><stop stop-color="#fff"/><stop offset=".047" stop-color="#F9F9F9"/><stop offset=".702" stop-color="#A2A4A6"/><stop offset="1" stop-color="#808285"/></linearGradient></defs></svg>