<svg width="142" height="90" fill="none" xmlns="http://www.w3.org/2000/svg"><path fill-rule="evenodd" clip-rule="evenodd" d="M14 76.537V65h4.956c1.577 0 2.759.616 3.66 1.847.733 1.066 1.127 2.354 1.127 3.922 0 1.513-.394 2.857-1.24 3.976-.9 1.177-2.083 1.793-3.547 1.793H14zm2.422-9.466v7.395h2.253c.901 0 1.521-.393 1.971-1.121.395-.672.564-1.513.564-2.576 0-.897-.169-1.738-.564-2.41-.45-.896-1.126-1.287-1.971-1.287h-2.253zm14.305 6.779h2.252c-.169.952-.675 1.623-1.464 2.184-.676.448-1.52.672-2.534.672-1.182 0-2.14-.45-2.872-1.288-.79-.84-1.183-1.906-1.183-3.25 0-1.174.394-2.183 1.127-2.968.788-.785 1.746-1.233 2.928-1.233 1.69 0 2.816.617 3.436 1.793.225.391.394.895.506 1.4.113.56.17 1.12.17 1.737h-5.858c0 .448.17.84.45 1.231.395.45.79.674 1.297.674.393 0 .787-.114 1.07-.225.337-.167.562-.392.675-.727zm-3.492-2.41h3.492c0-.39-.17-.785-.507-1.064-.394-.335-.788-.504-1.238-.504-.451 0-.846.169-1.183.504a1.282 1.282 0 00-.564 1.064zm7.265-3.304h2.253v5.545c0 .28.169.56.394.785.281.222.62.336.958.336.45 0 .845-.114 1.182-.392.338-.337.507-.673.507-1.065v-5.209h2.197v8.401h-2.197v-1.064c-.675.84-1.52 1.233-2.534 1.233a3.31 3.31 0 01-1.859-.56c-.564-.392-.9-.953-.9-1.625v-6.385zm11.94-2.409v2.41h1.295v1.568H46.44v4.312c0 .168.112.336.226.449.113.112.28.167.506.167h.339c.112-.055.169-.055.225-.055v1.96c-.282.056-.564.113-.733.113-.224.055-.506.055-.9.055-.564 0-.958-.169-1.352-.56a1.643 1.643 0 01-.507-1.234v-5.208h-1.127v-1.569h1.127v-1.12l2.196-1.288zm2.253 7.954h2.252c0 .391.113.73.45.952.282.224.676.336 1.127.336.394 0 .732-.056.958-.167.282-.114.45-.392.45-.73 0-.448-.394-.783-1.296-1.008-1.464-.39-2.309-.616-2.421-.728-.9-.39-1.352-.952-1.352-1.735 0-.785.338-1.402.958-1.906.62-.503 1.465-.728 2.478-.728 1.014 0 1.801.224 2.478.671.732.505 1.126 1.177 1.126 2.129h-2.084c-.056-.336-.225-.616-.507-.783a1.948 1.948 0 00-1.014-.28c-.338 0-.619.11-.845.222-.225.168-.338.336-.338.616 0 .336.45.616 1.296.785 1.295.223 2.14.391 2.421.56.902.392 1.352 1.065 1.352 2.017s-.394 1.68-1.182 2.129c-.676.447-1.465.671-2.478.671-1.127 0-2.028-.28-2.76-.84-.732-.503-1.07-1.231-1.07-2.183zm12.727 3.025c-1.183 0-2.14-.45-2.928-1.288-.733-.84-1.126-1.906-1.126-3.25 0-1.119.393-2.127 1.182-2.968.788-.785 1.746-1.233 2.872-1.233a4.03 4.03 0 012.647.953c.787.56 1.182 1.343 1.182 2.24h-2.253c0-.391-.169-.672-.45-.897-.338-.279-.676-.391-1.127-.391-.563 0-.957.224-1.295.672-.282.391-.45.952-.45 1.624 0 .785.168 1.401.45 1.904.338.45.732.73 1.295.73a1.54 1.54 0 001.07-.45c.338-.28.507-.559.507-.952h2.253c0 .953-.394 1.793-1.182 2.41-.788.56-1.633.896-2.647.896zM66.714 65h2.254v4.031a2.391 2.391 0 011.126-.839c.45-.113.957-.224 1.464-.224.733 0 1.408.224 1.971.672.563.391.844 1.008.844 1.68v6.218h-2.196v-5.266c0-.447-.17-.783-.394-1.007-.224-.223-.563-.336-.956-.336-.451 0-.902.113-1.296.391-.338.282-.564.617-.564 1.066v5.152h-2.253V65zm14.924 8.85h2.197c-.169.952-.675 1.623-1.465 2.184-.675.448-1.52.672-2.478.672-1.182 0-2.14-.45-2.928-1.288-.789-.84-1.127-1.906-1.127-3.25 0-1.174.338-2.183 1.127-2.968.732-.785 1.746-1.233 2.928-1.233 1.634 0 2.76.617 3.38 1.793.281.391.45.895.563 1.4.112.56.112 1.12.112 1.737h-5.856c0 .448.169.84.506 1.231.338.45.789.674 1.295.674.395 0 .732-.114 1.07-.225.282-.167.507-.392.676-.727zm-3.548-2.41h3.547c0-.39-.225-.785-.563-1.064-.337-.335-.732-.504-1.183-.504-.45 0-.9.169-1.239.504-.337.28-.562.673-.562 1.064zm11.432 5.097V65h5.913c.845 0 1.577.28 2.14.895.62.617.958 1.345.958 2.242 0 .503-.114.95-.338 1.4a2.765 2.765 0 01-1.127 1.007c.564.225 1.013.617 1.41 1.066.337.503.505 1.008.505 1.569 0 .95-.338 1.735-.958 2.352-.62.671-1.295 1.007-2.196 1.007h-6.307zm2.366-9.466v2.465h2.872c.393 0 .732-.112 1.013-.336.281-.224.394-.505.394-.84a1.23 1.23 0 00-.394-.953 1.435 1.435 0 00-.957-.335h-2.928zm0 4.538v2.857h3.04c.452 0 .79-.113 1.127-.45.282-.28.452-.616.452-1.007 0-.391-.17-.728-.452-1.008-.338-.28-.675-.391-1.127-.391h-3.04zm11.038-.954h-2.254c0-.895.395-1.568 1.127-2.071.676-.392 1.465-.617 2.423-.617 1.295 0 2.252.225 2.872.617.507.391.787.84.787 1.457v5.152c0 .505.17.952.508 1.344h-2.31c-.112-.168-.224-.281-.28-.448a2.44 2.44 0 01-.17-.505 2.405 2.405 0 01-1.127.84c-.394.17-.9.281-1.52.281-.789 0-1.409-.28-1.859-.73-.507-.502-.789-1.119-.789-1.79 0-.674.225-1.289.621-1.738.394-.447.956-.728 1.689-.839 1.296-.224 1.915-.337 1.971-.337.675-.167 1.013-.392 1.013-.617 0-.335-.112-.614-.393-.727-.226-.168-.564-.223-1.013-.223-.394 0-.676.112-.958.223-.225.17-.338.392-.338.728zm2.703 3.026v-1.288c-.732.111-1.295.28-1.745.39-.845.225-1.24.617-1.24 1.122 0 .391.056.616.282.783.224.17.506.224.902.224.394 0 .788-.111 1.126-.335.337-.167.563-.504.675-.896zm4.225-5.545h2.252v.95a3.254 3.254 0 011.07-.838c.507-.169.957-.28 1.351-.28.789 0 1.409.224 1.97.56.564.448.902 1.008.902 1.68v6.33h-2.253v-5.544c0-.338-.112-.617-.337-.785-.282-.223-.564-.28-.902-.28-.45 0-.788.056-1.07.223a2.743 2.743 0 00-.732.84v5.545h-2.252l.001-8.4zM119.202 65h2.253v6.16l2.59-3.023h2.704l-2.76 3.192 3.042 5.21h-2.648l-1.914-3.585-1.013 1.064v2.52h-2.253L119.202 65zM51.973 13h38.663v38.454H51.973V13zm5.401 5.298V46.08H85.23V18.3H57.374z" fill="#393B8F"/><path fill-rule="evenodd" clip-rule="evenodd" d="M60.649 42.07l13.927-20.44 7.536-.151-14.387 20.59H60.65z" fill="#393B8F"/></svg>