<svg width="142" height="90" fill="none" xmlns="http://www.w3.org/2000/svg"><path fill-rule="evenodd" clip-rule="evenodd" d="M31.271 84.397h78.792V5.603H31.271v78.793z" fill="#7793C0"/><path fill-rule="evenodd" clip-rule="evenodd" d="M100.184 23.596h-2.73V12.833h2.569v1.204c.321-.723 1.124-1.365 2.169-1.445 1.767-.08 2.972.964 2.972 3.212v7.791h-2.811v-8.111c0-.964 0-1.767-.643-1.928-.241-.08-.643 0-.965.24-.401.402-.562.884-.562 1.688l.001 8.112zM53.76 13.556c-.643-.562-1.446-.964-2.41-.964-.963 0-1.686.402-2.409.964-1.124.964-1.847 2.73-1.847 4.658 0 2.008.723 3.694 1.847 4.659.723.562 1.446.963 2.41.963.963 0 1.766-.401 2.409-.963 1.205-.965 1.847-2.651 1.847-4.659 0-1.928-.642-3.694-1.847-4.658zm-1.044 4.658c0 2.008 0 3.615-.322 4.418-.24.4-.482.642-1.044.642-.482 0-.803-.241-.964-.643-.402-.803-.402-2.41-.402-4.417 0-1.928 0-3.614.402-4.418.16-.401.482-.642.964-.642.562 0 .803.24 1.044.642.402.804.322 2.49.322 4.418zm29.075 9.478v2.891h-.562c-.322-1.204-.804-2.248-2.089-2.33-.803-.079-1.526.403-1.606 1.125-.08.723.161 1.366 1.606 2.169 1.848 1.044 3.293 1.526 3.293 3.694 0 2.33-2.008 3.454-3.694 3.454h-3.213V34.68h.562c.402 2.088 1.045 3.373 2.572 3.453.963 0 1.686-.562 1.686-1.606 0-1.045-.644-1.687-2.17-2.57-1.686-1.045-2.73-1.687-2.73-3.133 0-1.928 1.365-3.132 3.534-3.132h2.811zm3.534-4.096v-7.792c0-2.248-1.205-3.292-2.972-3.212-1.205.08-1.928.884-2.25 1.526-.401-1.124-1.284-1.606-2.57-1.526-1.044.08-1.846.723-2.168 1.445v-1.204h-2.49v10.763h2.73v-8.112c0-.804.082-1.286.563-1.688.322-.24.643-.32.884-.24.643.16.643.964.643 1.928v8.112h2.73v-8.193c0-.723.161-1.205.563-1.607.322-.24.643-.32.884-.24.642.16.723.964.723 1.928v8.112h2.73zm-27.87-13.012h2.81v13.012h-2.81V10.584zm12.77 13.012V10.584h-2.81v3.052c-.242-.562-.804-.964-1.607-.964-2.008 0-3.615 2.088-3.695 5.301-.08 2.169.643 5.783 3.454 5.783 1.125 0 1.767-.642 2.008-1.204v1.044h2.65zm-3.293-9.88c.562.804.562 2.73.562 4.257 0 1.606.08 3.694-.562 4.578-.241.321-.482.481-.884.481-.562 0-.883-.642-1.044-1.686-.08-.964-.08-2.17-.08-3.454 0-2.168.16-4.578 1.204-4.578.402 0 .563.162.804.402zm26.746-.562c.723.402 1.205 1.044 1.205 2.49v7.952h-2.651V22.39c-.321.883-1.205 1.446-2.41 1.446-.964 0-2.65-.482-2.65-2.972 0-2.33 1.526-2.811 3.213-3.534 1.525-.642 1.686-.723 1.686-1.365v-1.767c0-.723-.402-1.044-1.204-1.044-.322.08-.884.24-.884.642-.08.482.482.482.562 1.205.08 1.124-.804 1.526-1.606 1.446-.562 0-1.205-.322-1.285-1.205-.08-1.446 1.525-2.65 3.775-2.65 1.044-.001 1.686.24 2.249.561zm-1.606 4.016l-.884.562c-.883.562-1.044 1.285-1.124 2.088-.08.643-.08 1.205 0 2.169.08.883.642 1.044 1.124.883.563-.241.884-1.285.884-2.41V17.17zM53.92 28.174c.723.481 1.124 1.044 1.124 2.49v8.032h-2.57V37.49c-.322.803-1.205 1.365-2.41 1.365-1.044 0-2.65-.401-2.65-2.892 0-2.329 1.526-2.81 3.132-3.533 1.606-.723 1.767-.804 1.767-1.366v-1.767c0-.803-.401-1.124-1.205-1.044-.321 0-.883.16-.883.562-.08.562.482.562.562 1.285.08 1.044-.803 1.446-1.606 1.446-.562-.08-1.205-.402-1.285-1.285-.08-1.366 1.526-2.57 3.775-2.57 1.044 0 1.687.16 2.249.482zm-1.607 4.016l-.883.562c-.884.562-1.045 1.285-1.125 2.088-.08.642-.08 1.285 0 2.168 0 .964.563 1.125 1.044.884.643-.241.964-1.205.964-2.41V32.19zm21.044-1.286c0-2.249-1.205-3.373-2.972-3.212-.884.08-1.607.482-2.009 1.044v-3.132h-2.73v7.39c0 2.73-1.928 5.3-3.855 5.22-1.366 0-1.687-1.044-1.848-2.169-.241-1.606-.241-3.453-.08-5.461.16-1.285.482-2.33 1.446-2.33.723 0 .803.482.482.804-.322.402-.804.803-.563 1.686.241.965 1.767 1.125 2.49.402.562-.642.482-1.686.08-2.329-.482-.803-1.285-1.124-2.49-1.124-1.526 0-4.417 1.365-4.417 5.702 0 4.659 2.971 5.461 4.658 5.461 1.928 0 3.615-1.686 4.096-3.052v2.892h2.73v-8.113c0-.803.162-1.285.563-1.687.321-.24.723-.321.964-.24.643.16.643.963.643 1.927v8.112h2.811v-7.79zM45.246 10.343v4.578h-.562c-.482-2.25-1.526-3.936-2.972-4.016-.964-.08-1.526.482-2.008 1.285-.482.964-.723 2.972-.723 5.381 0 2.25.08 3.936.321 5.14.16.563.563 1.447 1.607 1.447.562 0 .964-.161 1.205-.482.401-.482.481-1.446.481-2.088v-2.169c0-.803-.24-1.285-.642-1.526-.322-.16-.803-.16-1.045-.24v-.563h4.498v11.486h-.562c-.24-.884-.402-1.526-.804-2.25-.401-.722-1.124-1.525-2.329-1.525-1.285-.08-2.249.723-2.249 1.927 0 1.607.964 2.008 2.731 2.972 1.687.964 3.856 1.767 3.856 4.578 0 2.731-2.33 4.418-4.98 4.418h-4.257v-5.543h.563c.723 4.177 2.49 4.9 3.695 4.9 1.525 0 2.248-.964 2.248-2.33-.08-1.766-1.285-2.409-2.972-3.292-2.409-1.366-3.534-2.009-3.534-4.257.08-1.928 1.607-3.132 3.293-3.614-3.534-.402-4.578-3.614-4.497-7.068 0-3.454 2.008-7.149 5.943-7.149h3.695z" fill="#fff"/></svg>