<svg width="142" height="90" fill="none" xmlns="http://www.w3.org/2000/svg"><path d="M14.477 31.722h-2.78V45.27c0 5.088-1.804 6.618-6.375 6.618C1.49 51.876 0 50.408 0 48.505c0-.436.163-1.842 1.565-1.842 1.39 0 1.478.933 1.478 2.451 0 .635.263 1.879 1.904 1.879 2.605 0 3.77-1.182 3.77-5.362V31.72h-2.68V31h8.44v.722zm.563 16.932c-.463 0-.864.149-1.177.472a1.582 1.582 0 00-.488 1.17c0 .46.163.846.488 1.145.326.323.714.472 1.177.472a1.64 1.64 0 001.19-.472c.326-.3.488-.685.488-1.145 0-.473-.162-.846-.488-1.17-.325-.323-.714-.472-1.19-.472zm18.096 0c-.463 0-.851.149-1.177.472a1.57 1.57 0 00-.476 1.17c0 .46.15.846.476 1.145.338.323.726.472 1.177.472.464 0 .864-.149 1.19-.472.325-.3.488-.685.488-1.145 0-.473-.163-.846-.488-1.17-.326-.323-.726-.472-1.19-.472zM27.89 31c6.475 0 7.577 2.426 7.577 5.885 0 3.42-1.791 5.921-8.19 5.921l-2.205.013v5.163c0 .634.075.945.226 1.293.162.41.513.722 1.04.934.375.136.951.211 1.702.236v.92h-8.891v-.92c.751-.025 1.315-.1 1.69-.261.501-.212.84-.523.99-.933.138-.361.213-.423.213-1.667V31.72h-2.43v-.709L27.89 31zm-1.14 11.023c3.908 0 5.849-1.68 5.849-4.964 0-3.272-1.078-5.275-6.011-5.275l-1.528.025v10.226h1.69m34.139 7.166c-.113-.36-.176-.809-.176-1.38v-16.1h2.142V31H57.63c-.063.187-6.286 15.564-6.286 15.564a.17.17 0 01-.138.087.159.159 0 01-.15-.087S44.444 31.187 44.369 31h-5.798v.709h2.405v15.477l-.05 1.443c-.038.373-.163.71-.351.983-.2.286-.514.51-.927.66-.276.086-.689.148-1.19.16v.921h5.899v-.92c-.488-.025-.701-.075-.99-.162-.425-.137-.738-.348-.951-.647a2.105 2.105 0 01-.351-1.008l-.063-1.443V33.85h.338s7.464 17.318 7.552 17.517h.626l7.075-17.318h.176V47.82c0 .597-.063 1.07-.175 1.43-.138.424-.439.735-.877.946-.326.15-.814.224-1.465.249v.92h8.065v-.92c-.651-.037-1.152-.112-1.49-.261-.501-.236-.802-.56-.94-.983zM71.733 36.45c3.982 0 6.937 2.7 6.937 7.651 0 6.358-4.608 7.863-7.025 7.863-1.227 0-6.9-.473-6.9-7.726-.013-4.951 2.692-7.788 6.987-7.788zm-.05 14.618c2.892 0 3.782-1.791 3.782-7.004 0-3.62-.013-6.706-3.782-6.706-3.482 0-3.732 2.986-3.732 6.967 0 5.138.488 6.743 3.732 6.743zm18.246-14.394c-2.567 0-3.457 1.505-4.17 3.048l-.201-.012c-.013.012-.514-2.911-.514-2.911H80.16v.771h2.68v10.027c0 .996-.05 1.767-.313 2.19-.3.485-.914.672-1.94.672h-.44v.92h8.354v-.92h-.451c-1.09 0-1.653-.236-1.94-.71-.264-.41-.39-1.119-.39-2.152v-5.2c0-1.754 1.416-3.77 3.019-3.77 1.678 0 1.728 2.39 3.531 1.531 1.278-.597.99-3.484-2.341-3.484zm33.249 13.2c.526 0 1.164-.548 1.302-1.58h.501c-.138 2.364-1.302 3.31-3.244 3.31-1.728 0-2.68-1.22-2.842-2.228-1.015 1.07-2.518 2.414-4.897 2.414-2.141 0-3.807-1.642-3.907-3.508-.288-4.778 6.036-5.288 8.703-5.524v-2.439c0-.883-.2-1.592-.588-2.127-.413-.56-1.152-.834-2.204-.834-.902 0-1.566.224-1.991.66-.401.423-.576.883-.701 1.68-.176 1.082-.639 1.505-1.466 1.505-.363 0-.651-.1-.914-.324-.25-.211-.375-.522-.375-.97 0-.958.375-1.618 1.327-2.339.977-.746 2.505-1.12 4.571-1.12 2.154 0 3.644.399 4.408 1.17.777.771.99 1.667.99 2.973v6.096l.05 1.866c.1.834.375 1.319 1.277 1.319zm-4.371-6.22c-2.054 0-5.786 1.356-5.786 4.068 0 .846.301 2.538 2.354 2.538.802 0 1.891-.46 3.319-1.754l.063-.063c.05-.037.05-.062.05-.112v-4.677zm21.427 6.133c-.363-.448-.438-1.43-.438-2.177v-6.594c0-.958-.125-1.766-.488-2.438a3.581 3.581 0 00-1.516-1.468c-.651-.323-1.39-.485-2.204-.485-2.93 0-4.208 1.68-4.783 2.811h-.226l-.513-2.637h-4.547v.759h2.28v10.04c0 .771-.063 1.331-.176 1.704-.125.448-.413.747-.839.933-.275.112-.701.187-1.252.212v.92h7.213v-.92c-.726-.062-1.214-.249-1.477-.622-.288-.398-.413-1.07-.413-2.065v-3.844c0-1.605-.013-3.16.538-4.131.601-1.045 1.69-1.63 2.905-1.63 1.102 0 1.691.349 2.041 1.045.389.784.476 2.24.476 3.397v4.765c0 .796-.024 1.368-.075 1.741-.087.436-.188.797-.538 1.02-.25.175-.639.287-1.152.324v.908H142v-.921c-.889-.038-1.415-.187-1.766-.647zm-32.61-13.922c.789-.248 1.44-.062 1.653.822.1.423.013.933-.238 1.38-.238.448-.651.772-1.302.97-.564.188-1.165.188-1.829.038.314.672.576 1.618.576 2.725 0 3.856-2.968 5.014-6.136 5.499-3.23.497-4.057.883-4.057 1.89 0 .685.425 1.083 2.667 1.083 4.634.224 6.7-.037 8.153 1.94.45.635.676 1.481.676 2.539 0 .771-.2 1.58-.639 2.364-.413.783-1.19 1.468-2.304 2.027-1.115.56-2.668.859-4.571.859-1.44 0-2.48-.112-4.058-.585-1.026-.298-2.379-1.12-2.379-2.849 0-.522.088-.958.326-1.33.263-.399.801-.635 1.252-.56.801.136 1.039.858.901 1.542-.162.672-.012 1.617.764 2.09 1.052.647 2.205.796 3.62.796 1.653 0 2.98-.286 3.957-.821 1.052-.585 1.566-1.369 1.566-2.339 0-.709-.251-1.256-.739-1.63-.464-.335-1.103-.56-1.891-.659-.739-.087-1.879-.149-3.469-.162-1.829-.037-3.281-.248-4.32-.671-.94-.386-1.666-1.07-1.666-2.34 0-2.102 1.978-2.749 4.207-3.197.138-.024.138-.21-.024-.236-2.618-.547-3.807-2.04-3.807-5.1 0-2.625 1.79-5.5 5.86-5.5 2.518 0 3.958.847 4.709 1.531.226.174.739.162 1.04.075.3-.1.526-.436.638-1.033.15-.647.425-1.02.864-1.157zm-7.176 10.613c1.778 0 3.056-.535 3.056-4.579 0-2.824-.689-4.665-3.056-4.665-2.028 0-2.98 2.016-2.98 4.715-.013 3.844 1.076 4.529 2.98 4.529z" fill="#321C0F"/></svg>