<svg width="77" height="131" fill="none" xmlns="http://www.w3.org/2000/svg"><path d="M130 130.195H0v-26.993h130v26.993zM5.417 124.779h119.166v-16.161H5.417v16.161zm59.746-26.854l-.314-.001-1.051-.016c-21.892-.5-39.705-18.556-39.705-40.248V.805l4.712 3.318c.67.467 16.753 11.415 32.956 0l1.74-1.225 1.726 1.242c.675.477 16.917 11.7 36.123-.118l4.557-2.806v56.425c0 10.694-4.235 20.785-11.922 28.417-7.718 7.66-17.943 11.867-28.822 11.867zM30.073 11.58v46.08c0 18.469 15.192 33.842 33.865 34.27l.946.014c9.409.018 18.237-3.528 24.888-10.13 6.548-6.5 10.155-15.085 10.155-24.172V11.587c-17.041 8.02-31.468 1.397-36.399-1.46-13.392 8.394-26.645 4.557-33.455 1.452z" fill="#fff"/><path d="M64.471 68.055c-10.161 0-18.429-8.47-18.429-18.882 0-10.413 8.268-18.882 18.43-18.882 10.162 0 18.43 8.47 18.43 18.882 0 10.413-8.268 18.882-18.43 18.882zm0-32.5c-7.259 0-13.163 6.11-13.163 13.618 0 7.509 5.904 13.618 13.163 13.618 7.26 0 13.165-6.11 13.165-13.618 0-7.509-5.906-13.619-13.165-13.619z" fill="#fff"/></svg>