<svg width="75" height="131" fill="none" xmlns="http://www.w3.org/2000/svg"><path d="M80.843 98.03h-36.29L18.8.5h87.796L80.843 98.03zM48.72 92.616h27.956L99.57 5.912H25.827L48.72 92.617z" fill="#fff"/><path d="M96.027 130.5H29.413l9.593-35.177h47.428l9.593 35.177zm-59.53-5.412h52.446L82.3 100.735H43.139l-6.642 24.353zm.491-57.21C-1.447 44.796-.025 22.95.054 22.031l.213-2.474H26.95v5.412H5.664c.987 5.898 6.27 21.55 34.11 38.269l-2.786 4.64zM62.72 56.977c-10.153 0-18.413-8.462-18.413-18.865 0-10.404 8.26-18.865 18.412-18.865 10.154 0 18.415 8.461 18.415 18.865 0 10.403-8.26 18.865-18.415 18.865zm0-32.471c-7.253 0-13.152 6.104-13.152 13.606s5.9 13.606 13.151 13.606c7.253 0 13.154-6.104 13.154-13.606s-5.901-13.606-13.154-13.606z" fill="#fff"/></svg>