<svg width="72" height="131" fill="none" xmlns="http://www.w3.org/2000/svg"><path d="M59.677 73.625c-23.906 0-43.355-31.589-43.355-70.417V.5h86.709v2.708c0 38.828-19.449 70.417-43.354 70.417zM21.772 5.917c.832 34.589 17.516 62.291 37.905 62.291 20.39 0 37.073-27.702 37.905-62.291h-75.81z" fill="#fff"/><path d="M58.294 48.546c-6.527 0-11.836-5.308-11.836-11.835 0-6.528 5.31-11.836 11.836-11.836 6.526 0 11.835 5.308 11.835 11.836 0 6.527-5.31 11.835-11.835 11.835zm0-18.255a6.426 6.426 0 00-6.42 6.42 6.426 6.426 0 006.42 6.419c3.54 0 6.419-2.88 6.419-6.42a6.426 6.426 0 00-6.42-6.419zM86.776 130.5H32.582v-21.692h54.194V130.5zM38 125.083h43.36v-10.858H38v10.858z" fill="#fff"/><path d="M54.25 70.916h-5.417v40.625h5.416V70.916zm16.25 0h-5.417v40.625h5.416V70.916zm-36.559-7.871c-9.59 0-20.767-3.431-27.537-13.256C1.448 42.6-1.609 30.378 2.14 20.94c2.54-6.398 7.876-10.635 15.43-12.255l1.137 5.296c-5.786 1.241-9.666 4.255-11.533 8.958-2.905 7.317-.406 17.835 3.69 23.778 6.534 9.478 18.261 11.733 27.083 10.678l.643 5.376a39.04 39.04 0 01-4.649.275z" fill="#fff"/></svg>