<svg width="68" height="131" fill="none" xmlns="http://www.w3.org/2000/svg"><path d="M54.289 74.11l-1.155-.509c-11.465-5.065-28.79-12.716-28.79-30.921V6.825A6.332 6.332 0 0130.667.5h49.655a6.333 6.333 0 016.327 6.325V42.68c0 15.8-13.044 22.089-26.856 28.746-1.447.696-2.91 1.4-4.373 2.125l-1.132.559zM30.669 5.9a.926.926 0 00-.926.925V42.68c0 13.177 11.416 19.655 24.423 25.471 1.1-.538 2.195-1.065 3.284-1.59 12.77-6.156 23.8-11.471 23.8-23.881V6.825a.926.926 0 00-.927-.925H30.668z" fill="#fff"/><path d="M25.545 44.926C5.942 31.859-1.725 23.196.686 16.833 3.754 8.74 21.92 10.57 27.41 11.323l-.733 5.35c-9.067-1.245-19.894-.694-20.94 2.075-.2.53-1.266 5.64 22.804 21.685l-2.995 4.493zm52.978 71.666h-5.4c0-10.42-8.477-18.899-18.898-18.899-10.42 0-18.899 8.479-18.899 18.899h-5.4c0-13.399 10.902-24.298 24.3-24.298 13.397 0 24.297 10.899 24.297 24.298z" fill="#fff"/><path d="M56.924 71.13h-5.4v23.864h5.4V71.131zM87.03 130.5H21.42v-16.948h65.61V130.5zm-59.396-6.217h53.182v-4.514H27.634v4.514zm27.862-77.886c-6.506 0-11.799-5.292-11.799-11.799S48.99 22.8 55.496 22.8c6.505 0 11.798 5.291 11.798 11.798s-5.293 11.799-11.798 11.799zm0-18.198a6.406 6.406 0 00-6.4 6.4 6.406 6.406 0 006.4 6.398 6.406 6.406 0 006.399-6.399 6.406 6.406 0 00-6.4-6.399z" fill="#fff"/></svg>