<svg width="61" height="60" fill="none" xmlns="http://www.w3.org/2000/svg"><rect x=".833" width="60" height="60" rx="10" fill="#FE7E47" fill-opacity=".3"/><path d="M30.833 13.333c-4.366 0-7.916 3.55-7.916 7.917 0 4.283 3.35 7.75 7.716 7.9a1.35 1.35 0 01.367 0h.117a7.897 7.897 0 007.633-7.9c0-4.367-3.55-7.917-7.917-7.917z" fill="#FE7E47"/><path d="M39.3 33.583c-4.65-3.1-12.233-3.1-16.917 0C20.267 35 19.1 36.917 19.1 38.967c0 2.05 1.166 3.95 3.266 5.35 2.334 1.566 5.4 2.35 8.467 2.35s6.134-.784 8.467-2.35c2.1-1.417 3.267-3.317 3.267-5.384-.017-2.05-1.167-3.95-3.267-5.35z" fill="#141731"/></svg>