<svg width="61" height="60" fill="none" xmlns="http://www.w3.org/2000/svg"><rect x=".5" width="60" height="60" rx="10" fill="#FE7E47" fill-opacity=".3"/><path d="M13.432 28.933c.9-.143 1.8 0 2.728.371.929-2.67 2.4-5.427 4.328-8.098-3.314.071-6.284 1.285-8.47 3.47a8.998 8.998 0 00-.614.672c-.614.7-.7 1.685-.243 2.485a2.19 2.19 0 002.271 1.1zm18.139 18.139a2.159 2.159 0 001.086 2.27c.343.2.714.287 1.085.287.5 0 1-.172 1.414-.529.229-.2.457-.4.672-.614 2.185-2.185 3.399-5.156 3.47-8.47-2.685 1.928-5.442 3.4-8.112 4.314.385.928.528 1.842.385 2.742zm3.014-34.25c-2.6 1.128-5.184 2.7-7.398 4.913-4.285 4.285-7.456 9.284-8.698 13.697-.2.7-.158 1.443.1 2.128 1.556 3.985 4.356 6.8 8.355 8.356.386.143.8.229 1.214.229.314 0 .614-.043.914-.13 4.414-1.242 9.398-4.412 13.697-8.697 2.214-2.214 3.785-4.8 4.913-7.399-5.513-3.185-9.912-7.598-13.097-13.097zm3.428 16.068a1.422 1.422 0 01-2.014 0 1.44 1.44 0 010-2.028c.671-.671.686-1.743.029-2.385-.314-.314-.771-.557-1.186-.486-.442 0-.885.186-1.2.514a1.677 1.677 0 00-.028 2.386c1.757 1.77 1.742 4.656-.029 6.427a4.56 4.56 0 01-3.242 1.342 4.5 4.5 0 01-2.014-.485 1.456 1.456 0 01-.957.385c-.37 0-.728-.143-1.014-.414a1.424 1.424 0 01-.028-1.97 4.565 4.565 0 01.857-5.257 1.423 1.423 0 012.014 0 1.423 1.423 0 010 2.014c-.672.671-.686 1.742-.029 2.4.657.642 1.728.628 2.385-.03.672-.67.686-1.742.029-2.399-1.757-1.756-1.743-4.642.029-6.427a4.59 4.59 0 013.213-1.342h.029c.714 0 1.4.185 2.014.5a1.424 1.424 0 011.97.028c.543.543.543 1.414.029 1.971.314.628.5 1.314.5 2.043a4.594 4.594 0 01-1.357 3.213z" fill="#141731"/><path d="M50.482 11.394a1.433 1.433 0 00-1.371-1.386c-.357-.014-5.8-.17-11.812 1.8 2.842 4.756 6.67 8.57 11.412 11.412 1.956-6.013 1.785-11.469 1.77-11.826zM15.29 37.617a1.533 1.533 0 00-.23.2c-.67.671-2.156 2.956-3.313 5.927a36.502 36.502 0 00-1.143 3.27c-.242.815-.014 1.7.586 2.3a2.338 2.338 0 001.643.686c.228 0 .457-.029.67-.1.986-.3 2.072-.686 3.243-1.143 2.97-1.157 5.256-2.628 5.942-3.313a.997.997 0 00.185-.229c.743-1.157.2-3.742-1.828-5.756-2.014-2.014-4.599-2.585-5.756-1.842z" fill="#FE7E47"/></svg>