<svg width="61" height="60" fill="none" xmlns="http://www.w3.org/2000/svg"><rect x=".5" width="60" height="60" rx="10" fill="#FE7E47" fill-opacity=".3"/><path d="M30.397 10.346l-4.086 9.511h-4.086a9.6 9.6 0 00-1.984.187l1.696-4.07.068-.152.101-.271c.051-.119.085-.22.136-.305 1.967-4.561 4.17-5.985 8.155-4.9zm11.513 9.969l-.034-.017a11.338 11.338 0 00-3.103-.441H28.16l3.814-8.867.051-.119c.238.085.492.204.746.288l3.747 1.577c2.085.865 3.544 1.763 4.442 2.848.153.204.288.39.424.61.152.238.271.476.339.73.068.152.119.288.153.44.254.865.27 1.849.034 2.95z" fill="#FE7E47"/><path d="M31.38 39.59h.424c.508 0 .932-.457.932-1.016 0-.712-.203-.814-.644-.984l-.712-.254v2.255z" fill="#141731"/><path d="M41.164 22.74a8.57 8.57 0 00-2.39-.34H22.226c-1.153 0-2.238.22-3.255.662-2.95 1.271-5.018 4.204-5.018 7.612v9.408c0 .407.034.797.084 1.203.373 5.392 3.256 8.274 8.647 8.63.39.051.78.085 1.204.085h13.224c6.273 0 9.58-2.984 9.901-8.918.017-.322.034-.661.034-1v-9.408c0-3.747-2.492-6.9-5.883-7.935zM32.67 35.928c.78.271 1.831.847 1.831 2.645 0 1.543-1.204 2.78-2.696 2.78h-.424v.373c0 .492-.39.882-.881.882a.876.876 0 01-.882-.882v-.373h-.152c-1.628 0-2.967-1.373-2.967-3.069 0-.491.39-.881.881-.881.492 0 .882.39.882.881 0 .713.543 1.306 1.204 1.306h.152v-2.865l-1.288-.458c-.78-.271-1.831-.848-1.831-2.645 0-1.543 1.204-2.78 2.695-2.78h.424v-.373c0-.492.39-.882.882-.882s.881.39.881.882v.373h.153c1.628 0 2.967 1.373 2.967 3.068 0 .492-.39.882-.881.882a.876.876 0 01-.882-.882c0-.712-.543-1.305-1.204-1.305h-.152v2.865l1.288.458z" fill="#141731"/><path d="M28.26 33.623c0 .712.204.814.645.983l.712.255v-2.255h-.424c-.526 0-.933.457-.933 1.017z" fill="#141731"/></svg>