<svg width="61" height="60" fill="none" xmlns="http://www.w3.org/2000/svg"><rect x=".167" width="60" height="60" rx="10" fill="#FE7E47" fill-opacity=".3"/><path d="M23.382 38.333c-.394 0-.787-.145-1.098-.455-.6-.6-.6-1.595 0-2.196l13.57-13.565c.6-.6 1.595-.6 2.195 0 .601.6.601 1.595 0 2.195L24.48 37.878c-.31.31-.703.455-1.097.455zM24.334 20a4.175 4.175 0 00-4.167 4.167 4.175 4.175 0 004.166 4.166 4.175 4.175 0 004.167-4.166C28.472 21.858 26.614 20 24.334 20zm13.333 11.667a4.175 4.175 0 00-4.167 4.166A4.175 4.175 0 0037.667 40a4.175 4.175 0 004.166-4.167 4.157 4.157 0 00-4.166-4.166z" fill="#141731"/><path d="M30.167 46.667c9.2 0 16.666-7.467 16.666-16.667 0-9.2-7.466-16.667-16.666-16.667S13.5 20.8 13.5 30c0 9.2 7.467 16.667 16.667 16.667zM18.333 18.333l23.334 23.334" stroke="#FE7E47" stroke-width="3" stroke-miterlimit="10" stroke-linecap="round" stroke-linejoin="round"/></svg>