<svg width="61" height="60" fill="none" xmlns="http://www.w3.org/2000/svg"><rect x=".167" width="60" height="60" rx="10" fill="#FE7E47" fill-opacity=".3"/><path d="M45.166 47.917h-30a1.26 1.26 0 01-1.25-1.25c0-.684.567-1.25 1.25-1.25h30c.684 0 1.25.566 1.25 1.25a1.26 1.26 0 01-1.25 1.25z" fill="#141731"/><path d="M40.833 23.967H43.5c.916 0 1.666.75 1.666 1.666V40c0 .917-.75 1.667-1.666 1.667h-2.667c-.916 0-1.666-.75-1.666-1.667V25.633c0-.933.75-1.666 1.666-1.666zm-12-5.317H31.5c.916 0 1.666.75 1.666 1.667V40c0 .917-.75 1.667-1.666 1.667h-2.667c-.916 0-1.666-.75-1.666-1.667V20.317c0-.917.75-1.667 1.666-1.667zm-12-5.317H19.5c.916 0 1.666.75 1.666 1.667v25c0 .917-.75 1.667-1.666 1.667h-2.667c-.916 0-1.666-.75-1.666-1.667V15c0-.917.75-1.667 1.666-1.667z" fill="#FE7E47"/></svg>