<svg width="60" height="60" fill="none" xmlns="http://www.w3.org/2000/svg"><rect width="60" height="60" rx="10" fill="#FE7E47" fill-opacity=".3"/><path d="M13 32.61c0-3.997 5.465-9.771 6.373-10.562a.193.193 0 01.254 0c.908.79 6.373 6.565 6.373 10.566a6.342 6.342 0 01-1.908 4.517A6.555 6.555 0 0119.498 39a6.555 6.555 0 01-4.593-1.872A6.342 6.342 0 0113 32.61zm1.511.811a4.95 4.95 0 001.414 2.707 5.09 5.09 0 002.751 1.391.721.721 0 00.574-.158.7.7 0 00.25-.532.711.711 0 00-.167-.464.733.733 0 00-.431-.25 3.635 3.635 0 01-1.955-.992 3.535 3.535 0 01-1.008-1.924.716.716 0 00-.254-.424.738.738 0 00-1.013.082.696.696 0 00-.16.564z" fill="#141731"/><path d="M22 14.258a1.249 1.249 0 01.382-.89 1.344 1.344 0 01.922-.368h22.392c.331 0 .65.12.893.34a1.226 1.226 0 01.112 1.717 1.314 1.314 0 01-.843.443v6.643c-.054-.003-.107-.008-.162-.008H23.304c-.054 0-.108.005-.162.008V15.5a1.316 1.316 0 01-.815-.413 1.229 1.229 0 01-.327-.83zm23.696 9.237H23.304a1.62 1.62 0 00-.14.007c2.044 2.452 4.445 5.97 4.625 9.127h17.907c.055 0 .11.004.164.008v-6.641c.33-.04.63-.2.841-.446a1.226 1.226 0 00-.113-1.716 1.328 1.328 0 00-.892-.34zM47 35.247a1.22 1.22 0 00-.1-.481 1.255 1.255 0 00-.282-.408 1.345 1.345 0 00-.922-.368H27.742a8.505 8.505 0 01-1.466 3.849 8.9 8.9 0 01-3.132 2.773v3.887c-.33.039-.631.197-.843.443a1.226 1.226 0 00.11 1.718c.242.22.562.34.893.34h22.392c.331 0 .65-.12.892-.34a1.24 1.24 0 00.41-.836 1.227 1.227 0 00-.297-.88 1.315 1.315 0 00-.84-.445V36.49a1.31 1.31 0 00.813-.413c.21-.23.326-.524.326-.83z" fill="#FE7E47"/></svg>