<svg width="60" height="60" fill="none" xmlns="http://www.w3.org/2000/svg"><rect width="60" height="60" rx="10" fill="#FE7E47" fill-opacity=".3"/><path fill-rule="evenodd" clip-rule="evenodd" d="M48.333 35.367c.69 0 1.25.56 1.25 1.25 0 7.14-5.776 12.916-12.916 12.916a1.25 1.25 0 01-1.072-1.893l1.75-2.916a1.25 1.25 0 112.144 1.286l-.453.754a10.41 10.41 0 008.047-10.147c0-.69.56-1.25 1.25-1.25zm-27.369-22.23a10.41 10.41 0 00-8.047 10.146 1.25 1.25 0 01-2.5 0c0-7.14 5.776-12.916 12.916-12.916a1.25 1.25 0 011.072 1.893l-1.75 2.917a1.25 1.25 0 11-2.143-1.287l.452-.753z" fill="#FE7E47"/><path d="M34.75 35.55c0 5.683-4.6 10.283-10.283 10.283-5.684 0-10.284-4.6-10.284-10.283s4.6-10.283 10.284-10.283c.266 0 .516.016.8.033a10.29 10.29 0 019.466 9.467c0 .25.017.5.017.783z" fill="#FE7E47"/><path d="M45.833 24.45c0 5.683-4.6 10.283-10.283 10.283h-.817a10.29 10.29 0 00-9.466-9.466v-.817c0-5.683 4.6-10.284 10.283-10.284s10.283 4.6 10.283 10.284zm-17.3 10.567c.2-.417.317-.867.317-1.35 0-1.667-1.467-3.134-3.134-3.134h-.433V29.9a1.26 1.26 0 00-1.25-1.25 1.26 1.26 0 00-1.25 1.25v.633h-1.75a1.26 1.26 0 00-1.25 1.25v7.5c0 .684.567 1.25 1.25 1.25h1.75v.634c0 .683.567 1.25 1.25 1.25a1.26 1.26 0 001.25-1.25v-.634h1.1c1.867 0 3.4-1.4 3.4-3.133 0-.95-.5-1.817-1.25-2.383zm-6.25-1.984h3.433c.35 0 .634.384.634.634 0 .35-.284.633-.634.633h-3.433v-1.267zm4.1 5.017h-4.116V36.8h4.099c.534 0 .9.333.9.633s-.35.617-.883.617z" fill="#141731"/></svg>