<svg width="60" height="60" fill="none" xmlns="http://www.w3.org/2000/svg"><rect width="60" height="60" rx="10" fill="#FE7E47" fill-opacity=".3"/><path fill-rule="evenodd" clip-rule="evenodd" d="M37.933 19.333c3.434 0 5.8.784 7.217 2.35 1.567 1.734 1.6 4.034 1.467 5.717-.008.055-.012.103-.016.15-.005.05-.009.098-.018.15l-.083.783-.067.6a.2.2 0 01-.083.084c-.7.516-1.417.983-2.183 1.416l-.08.05a1.712 1.712 0 01-.17.1 28.047 28.047 0 01-9.65 3.467c-.117 1.617-.834 3.433-4.484 3.433s-4.333-1.833-4.483-3.4c-3.183-.516-6.317-1.566-9.167-3.133-.25-.133-.5-.267-.733-.417-.6-.333-1.167-.7-1.717-1.066-.033-.017-.066-.05-.083-.067l-.167-1.75-.016-.117C13.25 26 13.2 23.533 14.85 21.7c1.417-1.567 3.767-2.35 7.217-2.35h.4v-.083c0-2.784 0-6.267 6.266-6.267h2.534c6.266 0 6.266 3.467 6.266 6.267v.066h.4zm-13.083-.066v.083h10.3v-.083c0-2.817 0-3.884-3.883-3.884h-2.534c-3.883 0-3.883 1.05-3.883 3.884zm-3.194 3.46V30h5.07v-1.428h-3.312v-1.495h3.054v-1.43h-3.054v-1.492h3.313v-1.428h-5.071zm5.934 0v1.428h2.209V30h1.733v-5.845h2.205v-1.428H27.59zm7.005 0V30h1.758v-2.923h2.89v-1.43h-2.89v-1.492h3.207v-1.428h-4.965z" fill="#141731"/><path d="M44.166 30.5l-.25.15a28.396 28.396 0 01-9.65 3.467c-.133 1.6-.833 3.434-4.483 3.434-3.65 0-4.35-1.817-4.483-3.4a27.824 27.824 0 01-9.167-3.134c-.25-.133-.5-.267-.733-.416-.6-.334-1.167-.7-1.717-1.067-.033-.017-.066-.05-.083-.067l1.017 10.85c.35 3.317 1.716 6.733 9.05 6.733h12.7c7.333 0 8.7-3.416 9.05-6.75l1.05-11.3a.2.2 0 01-.084.084c-.717.517-1.45 1-2.217 1.416z" fill="#FE7E47"/></svg>