<svg width="60" height="60" fill="none" xmlns="http://www.w3.org/2000/svg"><rect width="60" height="60" rx="10" fill="#FE7E47" fill-opacity=".3"/><path d="M36.983 13.334H23.017c-6.067 0-9.684 3.616-9.684 9.683v13.95c0 6.083 3.617 9.7 9.684 9.7h13.95c6.066 0 9.683-3.617 9.683-9.684V23.017c.017-6.067-3.6-9.683-9.667-9.683z" fill="#FE7E47"/><path d="M21.467 41.5a1.26 1.26 0 01-1.25-1.25V36.8c0-.683.566-1.25 1.25-1.25.683 0 1.25.567 1.25 1.25v3.45c0 .7-.567 1.25-1.25 1.25zm8.533 0a1.26 1.26 0 01-1.25-1.25v-6.916c0-.684.567-1.25 1.25-1.25s1.25.566 1.25 1.25v6.916c0 .7-.567 1.25-1.25 1.25zm8.533 0a1.26 1.26 0 01-1.25-1.25V29.885c0-.683.567-1.25 1.25-1.25.684 0 1.25.567 1.25 1.25V40.25c0 .7-.55 1.25-1.25 1.25zm1.25-21.8c0-.083-.033-.183-.05-.267-.016-.066-.033-.15-.05-.216-.033-.067-.083-.117-.116-.184-.05-.066-.1-.15-.167-.2-.017-.016-.017-.033-.033-.033-.05-.033-.1-.05-.15-.083a1.09 1.09 0 00-.234-.134c-.083-.033-.166-.033-.25-.05-.066-.016-.116-.033-.183-.033h-4.883a1.26 1.26 0 00-1.25 1.25c0 .683.566 1.25 1.25 1.25h2.083a30.248 30.248 0 01-14.583 8.517 1.26 1.26 0 00-.917 1.516c.133.567.65.95 1.217.95.1 0 .2-.016.3-.033a32.554 32.554 0 0015.516-8.933v1.616c0 .684.567 1.25 1.25 1.25.684 0 1.25-.566 1.25-1.25V19.7z" fill="#141731"/></svg>