<svg width="60" height="60" fill="none" xmlns="http://www.w3.org/2000/svg"><rect width="60" height="60" rx="10" fill="#FE7E47" fill-opacity=".3"/><path d="M38.333 22.917c-.316 0-.633-.117-.883-.367a1.257 1.257 0 010-1.767l3.417-3.416c-2.934-2.5-6.717-4.034-10.867-4.034-9.2 0-16.667 7.467-16.667 16.667 0 9.2 7.467 16.667 16.667 16.667 9.2 0 16.667-7.467 16.667-16.667 0-4.15-1.534-7.933-4.034-10.867l-3.416 3.417c-.25.25-.567.367-.884.367z" fill="#FE7E47"/><path d="M32.917 29.7l-1.667-.583v-3.7h.133c.85 0 1.534.75 1.534 1.666 0 .684.566 1.25 1.25 1.25a1.26 1.26 0 001.25-1.25c0-2.3-1.8-4.166-4.034-4.166h-.133V22.5A1.26 1.26 0 0030 21.25a1.26 1.26 0 00-1.25 1.25v.417h-.5c-2.017 0-3.667 1.7-3.667 3.8 0 2.433 1.417 3.216 2.5 3.6l1.667.583v3.7h-.133c-.85 0-1.534-.75-1.534-1.667a1.26 1.26 0 00-1.25-1.25 1.26 1.26 0 00-1.25 1.25c0 2.3 1.8 4.167 4.034 4.167h.133v.417c0 .683.567 1.25 1.25 1.25a1.26 1.26 0 001.25-1.25V37.1h.5c2.017 0 3.667-1.7 3.667-3.8 0-2.45-1.417-3.233-2.5-3.6zM27.9 27.933c-.567-.2-.817-.316-.817-1.233 0-.717.534-1.3 1.167-1.3h.5v2.817l-.85-.284zm3.85 6.65h-.5v-2.816l.85.3c.567.2.817.316.817 1.233 0 .7-.534 1.283-1.167 1.283zM47.817 12.85c-.134-.3-.367-.55-.684-.683-.15-.067-.316-.1-.483-.1h-6.667a1.26 1.26 0 00-1.25 1.25c0 .683.567 1.25 1.25 1.25h3.65L40.85 17.35a17.65 17.65 0 011.767 1.767l2.783-2.784V20c0 .683.567 1.25 1.25 1.25A1.26 1.26 0 0047.9 20v-6.667a.993.993 0 00-.083-.483z" fill="#141731"/></svg>