<svg width="60" height="60" fill="none" xmlns="http://www.w3.org/2000/svg"><rect width="60" height="60" rx="10" fill="#FE7E47" fill-opacity=".3"/><path d="M46.667 23.017v12.25a5.923 5.923 0 00-1.617-.5l-.517-.084-.433-.9c-.917-1.866-2.417-2.95-4.1-2.95-1.683 0-3.183 1.084-4.1 2.95l-.45.9-.5.084c-1.983.333-3.417 1.433-3.933 3-.5 1.583.016 3.316 1.433 4.75l.517.516-.05.2c-.334 1.484-.2 2.617.116 3.434H23.017c-6.067 0-9.684-3.617-9.684-9.684V23.017c0-6.067 3.617-9.684 9.684-9.684h13.966c6.067 0 9.684 3.617 9.684 9.684z" fill="#FE7E47"/><path d="M41.867 34.9l.533 1.083c.267.534.95 1.034 1.517 1.134l.716.116c2.184.367 2.684 1.967 1.134 3.534l-.667.666c-.45.45-.683 1.317-.55 1.95l.083.4c.6 2.634-.8 3.65-3.083 2.267l-.483-.3c-.584-.35-1.55-.35-2.134 0l-.483.3c-2.3 1.383-3.683.367-3.083-2.267l.083-.4c.133-.616-.1-1.5-.55-1.95l-.667-.666c-1.55-1.584-1.05-3.167 1.134-3.534l.716-.116c.584-.1 1.25-.6 1.517-1.134l.533-1.083c1.034-2.083 2.7-2.083 3.734 0z" fill="#141731"/><path fill-rule="evenodd" clip-rule="evenodd" d="M36.883 23.195a1.25 1.25 0 01.222 1.754l-3.858 4.976a2.936 2.936 0 01-4.095.497l-.008-.006-3.045-2.396a.423.423 0 00-.593.077l-3.966 5.15a1.25 1.25 0 01-1.98-1.526l3.968-5.152a2.923 2.923 0 014.103-.525l.009.007 3.044 2.396c.19.144.458.107.6-.07l3.845-4.96a1.25 1.25 0 011.754-.222z" fill="#141731"/></svg>