<svg width="100" height="73" fill="none" xmlns="http://www.w3.org/2000/svg"><path d="M7.401 71.818A47.395 47.395 0 012 49.778C2 23.391 23.49 2 50 2s48 21.39 48 47.778c0 7.949-1.95 15.444-5.4 22.038" stroke="#6E7E90" stroke-width="1.745" stroke-dasharray="0.87 4.36"/><path d="M7.401 71.818A47.395 47.395 0 012 49.778C2 23.391 23.49 2 50 2c9.885 0 19.072 2.974 26.707 8.073" stroke="#1F5FC0" stroke-width="3.491"/><path fill="#1F5FC0" d="M78.129 6.364l1.079.741-4.48 6.516-1.078-.741z"/><path d="M38.17 59.358a11.836 11.836 0 01-3.899-.678c-1.244-.443-2.36-1.163-3.35-2.16-.988-.997-1.772-2.318-2.351-3.963-.571-1.645-.857-3.665-.857-6.06.009-2.199.26-4.163.754-5.893.503-1.739 1.22-3.213 2.148-4.424.938-1.21 2.058-2.13 3.362-2.761 1.304-.64 2.766-.959 4.385-.959 1.747 0 3.29.341 4.628 1.023 1.338.673 2.412 1.59 3.222 2.748a8.356 8.356 0 011.483 3.9h-5.46c-.212-.912-.66-1.628-1.341-2.148-.682-.52-1.526-.78-2.532-.78-1.704 0-3 .742-3.886 2.225-.878 1.483-1.325 3.498-1.343 6.046h.18a6.086 6.086 0 011.585-1.981 7.23 7.23 0 012.288-1.266 8.257 8.257 0 012.723-.447c1.551 0 2.932.366 4.142 1.1a7.797 7.797 0 012.864 2.99c.699 1.27 1.048 2.724 1.048 4.36 0 1.773-.413 3.35-1.24 4.73-.818 1.38-1.965 2.463-3.439 3.247-1.466.776-3.17 1.16-5.114 1.151zm-.025-4.347c.852 0 1.615-.204 2.288-.613a4.37 4.37 0 001.586-1.662c.383-.7.575-1.483.575-2.352 0-.87-.192-1.65-.575-2.34a4.33 4.33 0 00-1.56-1.65c-.665-.408-1.424-.613-2.276-.613-.639 0-1.231.12-1.777.358a4.46 4.46 0 00-1.419.997c-.4.426-.716.92-.946 1.483a4.586 4.586 0 00-.345 1.777c0 .844.192 1.615.575 2.314.392.7.92 1.257 1.585 1.675.674.418 1.437.626 2.289.626zm23.305 4.347c-1.806 0-3.417-.332-4.832-.997-1.406-.665-2.523-1.581-3.35-2.749-.826-1.167-1.257-2.506-1.29-4.014h5.369c.06 1.014.485 1.837 1.278 2.467.793.631 1.734.946 2.825.946.87 0 1.637-.191 2.301-.575a4.117 4.117 0 001.573-1.623c.383-.7.575-1.5.575-2.404 0-.92-.196-1.73-.588-2.429a4.156 4.156 0 00-1.598-1.636c-.682-.392-1.462-.593-2.34-.601-.767 0-1.512.158-2.237.473-.716.315-1.274.746-1.674 1.291l-4.922-.882 1.24-13.807h16.005v4.526H58.344l-.678 6.558h.154c.46-.648 1.154-1.185 2.083-1.61.93-.427 1.97-.64 3.12-.64 1.576 0 2.983.37 4.218 1.112a8.009 8.009 0 012.928 3.056c.716 1.286 1.07 2.77 1.061 4.449.009 1.764-.4 3.332-1.227 4.704-.818 1.364-1.965 2.438-3.44 3.222-1.465.775-3.17 1.163-5.113 1.163z" fill="#141731"/><path opacity=".8" d="M36.443 28v-5.09h2.008c.386 0 .715.073.987.22a1.5 1.5 0 01.621.61c.145.258.217.556.217.894 0 .338-.073.637-.22.895-.145.259-.356.46-.633.604-.275.144-.608.216-1 .216h-1.28v-.862h1.107c.207 0 .377-.036.512-.107a.709.709 0 00.303-.3.943.943 0 00.102-.446.918.918 0 00-.102-.442.68.68 0 00-.303-.296 1.107 1.107 0 00-.517-.107h-.726V28h-1.076zm9.21-2.546c0 .556-.105 1.028-.316 1.417-.209.39-.494.687-.855.893-.36.204-.764.306-1.213.306-.452 0-.858-.103-1.218-.309a2.195 2.195 0 01-.853-.892c-.208-.39-.313-.861-.313-1.415 0-.555.105-1.027.313-1.416.21-.39.493-.686.853-.89.36-.206.766-.308 1.218-.308.45 0 .854.102 1.213.308.361.204.647.5.855.89.21.39.316.861.316 1.416zm-1.091 0c0-.36-.054-.662-.162-.91a1.23 1.23 0 00-.45-.561 1.21 1.21 0 00-.68-.192c-.261 0-.488.064-.682.192a1.246 1.246 0 00-.452.562c-.107.247-.16.55-.16.91s.053.662.16.91c.107.246.258.434.452.561.194.128.42.192.681.192.26 0 .487-.064.681-.192a1.23 1.23 0 00.45-.562c.108-.247.162-.55.162-.91zm2.965-2.545V28H46.45v-5.09h1.077zm5.143 0V28h-.93l-2.214-3.204h-.038V28h-1.076v-5.09h.945l2.197 3.2h.045v-3.2h1.071zm.696.888v-.888h4.18v.888h-1.558V28h-1.064v-4.203h-1.558zm7.631.576a.63.63 0 00-.256-.467c-.15-.111-.355-.167-.614-.167a1.17 1.17 0 00-.445.075.626.626 0 00-.278.201.484.484 0 00-.095.294.418.418 0 00.058.238.596.596 0 00.176.177c.075.048.16.09.258.127.098.034.203.064.314.089l.457.11c.222.05.426.115.612.198.185.083.346.185.482.306a1.278 1.278 0 01.432.992 1.407 1.407 0 01-.238.81 1.515 1.515 0 01-.676.53c-.294.124-.648.186-1.062.186-.41 0-.769-.063-1.074-.189a1.573 1.573 0 01-.71-.56c-.17-.248-.258-.555-.267-.921h1.042a.77.77 0 00.147.427.815.815 0 00.35.256c.148.057.314.085.5.085.182 0 .34-.027.474-.08a.728.728 0 00.316-.221.51.51 0 00.112-.326.423.423 0 00-.102-.288.773.773 0 00-.293-.199 2.977 2.977 0 00-.47-.149l-.554-.14c-.43-.104-.768-.267-1.017-.489-.249-.222-.372-.521-.37-.897-.002-.309.08-.578.246-.808.167-.23.397-.41.688-.54a2.43 2.43 0 01.995-.194c.377 0 .707.065.989.194.283.13.504.31.661.54.158.23.239.497.244.8h-1.032zM44.64 65.67L43 71.767h-.913l1.64-6.096h.913zm2.715.24V71h-1.076v-4.07h-.03l-1.166.732v-.955l1.26-.798h1.012zm3.206 5.202c-.428-.002-.795-.107-1.104-.316-.306-.209-.542-.511-.708-.907-.164-.396-.245-.873-.244-1.43 0-.555.082-1.028.246-1.419.166-.391.402-.688.709-.892.308-.206.675-.308 1.101-.308.426 0 .792.102 1.099.308.308.205.545.504.71.895.166.39.248.861.247 1.416 0 .559-.083 1.036-.249 1.432-.164.396-.4.699-.706.908-.306.208-.673.313-1.1.313zm0-.892c.292 0 .525-.147.699-.44.174-.294.26-.734.258-1.32 0-.387-.04-.708-.12-.965-.077-.257-.188-.45-.332-.58a.727.727 0 00-.505-.193c-.29 0-.522.145-.696.435-.174.29-.262.724-.263 1.303 0 .39.039.717.116.979.08.26.192.456.336.587a.736.736 0 00.507.194zm4.82.892c-.428-.002-.796-.107-1.104-.316-.307-.209-.543-.511-.709-.907-.164-.396-.245-.873-.243-1.43 0-.555.082-1.028.246-1.419.166-.391.402-.688.708-.892.308-.206.675-.308 1.101-.308.426 0 .793.102 1.1.308.307.205.544.504.71.895.166.39.248.861.246 1.416 0 .559-.083 1.036-.248 1.432-.165.396-.4.699-.706.908-.307.208-.674.313-1.102.313zm0-.892c.291 0 .524-.147.698-.44.174-.294.26-.734.258-1.32 0-.387-.04-.708-.119-.965-.078-.257-.189-.45-.333-.58a.727.727 0 00-.505-.193c-.29 0-.522.145-.696.435-.174.29-.261.724-.263 1.303 0 .39.039.717.117.979.08.26.191.456.335.587a.74.74 0 00.507.194z" fill="#6E7E90"/></svg>