<svg width="60" height="60" fill="none" xmlns="http://www.w3.org/2000/svg"><rect width="60" height="60" rx="10" fill="#FE7E47" fill-opacity=".3"/><path d="M45 47.917H15a1.26 1.26 0 01-1.25-1.25c0-.684.567-1.25 1.25-1.25h30c.683 0 1.25.566 1.25 1.25a1.26 1.26 0 01-1.25 1.25z" fill="#141731"/><path d="M19.333 23.967h-2.666c-.917 0-1.667.75-1.667 1.666V40c0 .917.75 1.667 1.667 1.667h2.666c.917 0 1.667-.75 1.667-1.667V25.633a1.66 1.66 0 00-1.667-1.666zm12-5.317h-2.666c-.917 0-1.667.75-1.667 1.667V40c0 .917.75 1.667 1.666 1.667h2.667c.917 0 1.667-.75 1.667-1.667V20.317c0-.917-.75-1.667-1.667-1.667zm12-5.317h-2.666c-.917 0-1.667.75-1.667 1.667v25c0 .917.75 1.667 1.667 1.667h2.666c.917 0 1.667-.75 1.667-1.667V15c0-.917-.75-1.667-1.667-1.667z" fill="#FE7E47"/></svg>