<svg width="80" height="80" fill="none" xmlns="http://www.w3.org/2000/svg"><g opacity=".5" fill="#fff"><path d="M56.1 52.134c2.233-1.467 5.167.133 5.167 2.8v4.3c0 4.233-3.3 8.767-7.267 10.1l-10.633 3.533c-1.867.633-4.9.633-6.734 0L26 69.334c-4-1.334-7.267-5.867-7.267-10.1V54.9c0-2.633 2.934-4.233 5.134-2.8l6.866 4.467c2.634 1.767 5.967 2.633 9.3 2.633 3.334 0 6.667-.866 9.3-2.633l6.767-4.433z"/><path d="M66.6 21.535l-19.967-13.1c-3.6-2.367-9.533-2.367-13.133 0l-20.067 13.1c-6.433 4.167-6.433 13.6 0 17.8l5.334 3.467 14.733 9.6c3.6 2.367 9.533 2.367 13.133 0l14.634-9.6 4.566-3v10.2a2.52 2.52 0 002.5 2.5c1.367 0 2.5-1.134 2.5-2.5v-16.4c1.334-4.3-.033-9.3-4.233-12.067z"/></g></svg>