<svg width="80" height="80" fill="none" xmlns="http://www.w3.org/2000/svg"><path d="M73.333 16.167V55.8c0 3.234-2.633 6.2-5.866 6.6l-1.034.134c-5.466.733-13.166 3-19.366 5.6-2.167.9-4.567-.734-4.567-3.1V18.667c0-1.233.7-2.367 1.8-2.967 6.1-3.3 15.333-6.233 21.6-6.766h.2c4 0 7.233 3.233 7.233 7.233zM35.7 15.7c-6.1-3.3-15.333-6.233-21.6-6.766h-.233c-4 0-7.234 3.233-7.234 7.233V55.8c0 3.234 2.634 6.2 5.867 6.6l1.033.134c5.467.733 13.167 3 19.367 5.6 2.167.9 4.567-.734 4.567-3.1V18.667A3.33 3.33 0 0035.7 15.7zM16.667 25.8h7.5a2.52 2.52 0 012.5 2.5c0 1.4-1.134 2.5-2.5 2.5h-7.5c-1.367 0-2.5-1.1-2.5-2.5 0-1.366 1.133-2.5 2.5-2.5zm10 15h-10c-1.367 0-2.5-1.1-2.5-2.5 0-1.366 1.133-2.5 2.5-2.5h10a2.52 2.52 0 012.5 2.5c0 1.4-1.134 2.5-2.5 2.5z" opacity=".5" fill="#fff"/></svg>