<svg width="166" height="166" fill="none" xmlns="http://www.w3.org/2000/svg"><g opacity=".15"><path d="M83.333 16.533C83.333 7.403 90.736 0 99.867 0h49.6C158.598 0 166 7.402 166 16.533v49.6c0 9.132-7.402 16.534-16.533 16.534h-37.2c-15.98 0-28.934-12.954-28.934-28.934v-37.2z" fill="#141731"/><path d="M83.333 119.865c0-9.131 7.403-16.533 16.534-16.533h49.6c9.131 0 16.533 7.402 16.533 16.533v49.6c0 9.131-7.402 16.534-16.533 16.534h-49.6c-9.132 0-16.534-7.403-16.534-16.534v-49.6zM-20 16.533C-20 7.403-12.598 0-3.467 0h49.6c9.131 0 16.534 7.402 16.534 16.533v49.6c0 9.132-7.403 16.534-16.534 16.534h-49.6c-9.13 0-16.533-7.403-16.533-16.534v-49.6z" fill="#fff"/><path fill-rule="evenodd" clip-rule="evenodd" d="M112.266 103.288a48.85 48.85 0 01-2.066.044c-26.252 0-47.533-21.281-47.533-47.533 0-.693.014-1.383.044-2.069H33.733v28.978c.685-.03 1.374-.044 2.067-.044 26.252 0 47.533 21.281 47.533 47.533 0 .693-.014 1.382-.044 2.067h28.977v-28.976z" fill="#fff"/></g></svg>