<svg width="80" height="80" fill="none" xmlns="http://www.w3.org/2000/svg"><g opacity=".5" fill="#fff"><path d="M43.67 66.851c.47.11.52.742.065.908-.442.16-.898.317-1.368.474L37.1 69.966c-13.233 4.267-20.2.7-24.5-12.533L8.333 44.266c-4.266-13.233-.733-20.233 12.5-24.5l4.118-1.363c.402-.133.783.266.642.666-.475 1.35-.895 2.85-1.293 4.497l-3.267 13.967c-3.666 15.7 1.7 24.367 17.4 28.1l5.236 1.218z"/><path d="M57.233 10.702l-5.566-1.3C40.533 6.768 33.9 8.935 30 17.002c-1 2.033-1.8 4.5-2.467 7.333l-3.266 13.967C21 52.235 25.3 59.102 39.2 62.402l5.6 1.333c1.933.467 3.733.767 5.4.9 10.4 1 15.933-3.867 18.733-15.9L72.2 34.802c3.267-13.934-1-20.834-14.967-24.1zm-6.266 33.733a2.493 2.493 0 01-2.434 1.867c-.2 0-.4-.034-.633-.067l-9.7-2.467c-1.333-.333-2.133-1.7-1.8-3.033.333-1.333 1.7-2.133 3.033-1.8l9.7 2.467a2.493 2.493 0 011.834 3.033zm9.766-11.267a2.493 2.493 0 01-2.433 1.867c-.2 0-.4-.033-.633-.067l-16.167-4.1c-1.333-.333-2.133-1.7-1.8-3.033.333-1.333 1.7-2.133 3.033-1.8l16.167 4.1c1.367.3 2.167 1.667 1.833 3.033z"/></g></svg>