<svg width="80" height="80" fill="none" xmlns="http://www.w3.org/2000/svg"><g opacity=".5" fill="#fff"><path d="M69.9 34.567V45.2c0 7.733-6.267 14-14 14H44.033a3.322 3.322 0 00-3.333 3.333v2.734c0 1.833 1.5 3.333 3.333 3.333h7.534c1.3 0 2.366 1.033 2.366 2.367 0 1.3-1.066 2.366-2.366 2.366H25.1a2.376 2.376 0 01-2.367-2.366A2.354 2.354 0 0125.1 68.6h7.533c1.834 0 3.334-1.5 3.334-3.333v-2.734c0-1.866-1.5-3.333-3.334-3.333h-12c-7.7 0-13.966-6.267-13.966-14V23.967c0-7.7 6.266-13.967 13.966-13.967H35c1.833 0 3.333 1.5 3.333 3.333V20.5c0 6.433 4.3 10.733 10.7 10.733h17.534c1.833 0 3.333 1.5 3.333 3.334z"/><path d="M73.3 7.865L69.533 10.5V9.1c0-3.167-2.566-5.7-5.7-5.7H49.567c-3.434-.034-6.234 2.766-6.234 6.2v10.933c0 2.867 1.434 5.7 5.7 5.7H63.8c3.167 0 5.7-2.567 5.7-5.7V19.1l3.767 2.633c1.9 1.3 3.4.5 3.4-1.767V9.632c0-2.267-1.5-3.033-3.367-1.767z"/></g></svg>