<svg width="0" height="0">
  <symbol xmlns="http://www.w3.org/2000/svg" viewBox="0 0 12 8" id="arrow-header">
    <path d="M1 1.5l5 5 5-5" stroke-width="2"></path>
  </symbol>

  <symbol xmlns="http://www.w3.org/2000/svg" viewBox="0 0 30 30" id="arrow">
    <g clip-path="url(#clip0_27_2375)">
      <path d="M5.963 4.139v3.878h12.862L2.768 24.074l2.742 2.741 16.057-16.057V23.62h3.878V4.14H5.963z"></path>
    </g>
    <defs>
      <clipPath id="clip0_27_2375">
        <path fill="#fff" d="M0 0h30v30H0z"></path>
      </clipPath>
    </defs>
  </symbol>

  <symbol xmlns="http://www.w3.org/2000/svg" viewBox="0 0 50 50" id="call">
    <path d="M45.77 38.185a5.3 5.3 0 01-.52 2.27 8.594 8.594 0 01-1.417 2.126c-1.02 1.125-2.146 1.937-3.416 2.458a10.48 10.48 0 01-4.063.792c-2.125 0-4.396-.5-6.792-1.521-2.396-1.02-4.791-2.396-7.166-4.125a59.897 59.897 0 01-6.834-5.833 59.2 59.2 0 01-5.812-6.813c-1.709-2.375-3.083-4.75-4.083-7.104-1-2.375-1.5-4.646-1.5-6.813 0-1.416.25-2.77.75-4.02.5-1.271 1.291-2.438 2.395-3.48 1.334-1.312 2.792-1.958 4.334-1.958.583 0 1.166.125 1.687.375.542.25 1.021.625 1.396 1.167l4.833 6.812c.375.521.646 1 .834 1.459.187.437.291.875.291 1.27 0 .5-.146 1-.437 1.48-.271.479-.667.979-1.167 1.479L17.5 19.852c-.23.229-.334.5-.334.833 0 .167.021.312.063.48.063.166.125.29.167.416.375.687 1.02 1.583 1.937 2.666a71.312 71.312 0 003.021 3.292c1.125 1.104 2.208 2.125 3.313 3.063 1.083.916 1.979 1.541 2.687 1.916.104.042.23.104.375.167.167.062.333.083.52.083.355 0 .626-.125.855-.354l1.583-1.562c.521-.521 1.021-.917 1.5-1.167.48-.292.959-.438 1.48-.438.395 0 .812.084 1.27.271.459.188.938.459 1.459.813l6.895 4.896c.542.375.917.812 1.146 1.333a4.26 4.26 0 01.334 1.625z" stroke-width="3" stroke-miterlimit="10"></path>
    <path d="M38.541 18.749c0-1.25-.979-3.167-2.437-4.73-1.333-1.437-3.104-2.562-4.854-2.562m14.583 7.29c0-8.062-6.52-14.583-14.583-14.583" stroke-width="3" stroke-linecap="round" stroke-linejoin="round"></path>
  </symbol>

  <symbol xmlns="http://www.w3.org/2000/svg" viewBox="0 0 50 50" id="mail">
    <path d="M4.167 17.71c0-7.292 4.166-10.417 10.416-10.417h20.834c6.25 0 10.416 3.125 10.416 10.417v14.583c0 7.292-4.166 10.417-10.416 10.417H14.583" stroke-width="3" stroke-miterlimit="10" stroke-linecap="round" stroke-linejoin="round"></path>
    <path d="M35.417 18.75l-6.521 5.208c-2.146 1.709-5.667 1.709-7.813 0l-6.5-5.208M4.167 34.375h12.5m-12.5-8.332h6.25" stroke-width="3" stroke-miterlimit="10" stroke-linecap="round" stroke-linejoin="round"></path>
  </symbol>

  <symbol xmlns="http://www.w3.org/2000/svg" viewBox="0 0 40 40" id="arrow-right">
    <rect width="40" height="40" rx="20" fill="#FE7E47"></rect>
    <path d="M18 25L23 20L18 15" stroke="white" stroke-width="2"></path>
  </symbol>
</svg>