<svg width="60" height="60" fill="none" xmlns="http://www.w3.org/2000/svg"><rect width="60" height="60" rx="10" fill="#FE7E47" fill-opacity=".3"/><path d="M40 44.168h-1.667v-.416c0-1.834-1.5-3.334-3.333-3.334h-3.75v-3.816c-.417.05-.833.066-1.25.066-.417 0-.833-.016-1.25-.066v3.816H25a3.343 3.343 0 00-3.333 3.334v.416H20a1.26 1.26 0 00-1.25 1.25c0 .684.567 1.25 1.25 1.25h20a1.26 1.26 0 001.25-1.25 1.26 1.26 0 00-1.25-1.25zM19.2 29.4c-1.1-.416-2.067-1.1-2.833-1.866-1.55-1.717-2.567-3.767-2.567-6.167s1.883-4.283 4.283-4.283h.934a6.589 6.589 0 00-.684 2.917v5c0 1.566.3 3.05.867 4.4zm27-8.033c0 2.4-1.017 4.45-2.567 6.167-.766.767-1.733 1.45-2.833 1.867.567-1.35.867-2.834.867-4.4v-5a6.58 6.58 0 00-.684-2.917h.934a4.24 4.24 0 014.283 4.283z" fill="#FE7E47"/><path d="M35 13.334H25a6.665 6.665 0 00-6.667 6.667v5c0 6.45 5.217 11.666 11.667 11.666s11.667-5.216 11.667-11.666v-5A6.665 6.665 0 0035 13.334zm-.267 10.75L33.7 25.351c-.167.183-.283.55-.267.8l.1 1.633c.067 1-.65 1.517-1.583 1.15l-1.517-.6a1.534 1.534 0 00-.866 0l-1.517.6c-.933.367-1.65-.15-1.583-1.15l.1-1.633c.016-.25-.1-.617-.267-.8l-1.033-1.267c-.65-.767-.367-1.617.6-1.867l1.583-.4c.25-.066.55-.3.683-.516l.884-1.367c.55-.85 1.416-.85 1.966 0l.884 1.367c.133.216.433.45.683.516l1.583.4c.967.25 1.25 1.1.6 1.867z" fill="#141731"/><path d="M34.733 24.084L33.7 25.351c-.167.183-.283.55-.267.8l.1 1.633c.067 1-.65 1.517-1.583 1.15l-1.517-.6a1.532 1.532 0 00-.866 0l-1.517.6c-.933.367-1.65-.15-1.583-1.15l.1-1.633c.016-.25-.1-.617-.267-.8l-1.033-1.267c-.65-.766-.367-1.616.6-1.866l1.583-.4c.25-.067.55-.3.683-.517l.884-1.367c.55-.85 1.416-.85 1.966 0l.884 1.367c.133.217.433.45.683.517l1.583.4c.967.25 1.25 1.1.6 1.866z" fill="#FE7E47"/></svg>