<svg width="168" height="169" fill="none" xmlns="http://www.w3.org/2000/svg"><path opacity=".1" d="M114.296 139.208c11.797-6.812 20.882-20.032 25.946-32.678a60.766 60.766 0 00-21.158-72.077 60.76 60.76 0 00-75.033 3.562 60.762 60.762 0 0014.522 101.193" stroke="url(#paint0_linear_276_12354)" stroke-width="12.905" stroke-linecap="round"/><g filter="url(#filter0_d_276_12354)"><path d="M142.206 67.123c-3.837-13.072-11.493-24.767-22.589-32.67a60.763 60.763 0 10-60.512 104.754" stroke="url(#paint1_linear_276_12354)" stroke-width="12.905" stroke-linecap="round"/></g><g filter="url(#filter1_d_276_12354)"><circle cx="142.022" cy="67.121" r="1.29" fill="#fff"/></g><path d="M57.841 97.398V83.416h.896v13.982h-.896zm2.376-9.367c-.044-.44-.231-.782-.563-1.026-.331-.244-.78-.366-1.349-.366-.386 0-.712.054-.977.164-.266.105-.47.253-.612.442-.138.19-.208.404-.208.644a.92.92 0 00.126.525c.095.15.224.278.388.388.164.105.353.198.568.278.215.077.444.142.688.197l1.005.24c.488.11.936.255 1.343.437.408.182.761.406 1.06.672.299.265.53.579.694.94.167.36.253.773.256 1.239-.003.684-.178 1.278-.524 1.78-.342.5-.837.887-1.486 1.164-.644.273-1.421.41-2.332.41-.903 0-1.69-.139-2.36-.416-.665-.276-1.186-.686-1.561-1.229-.371-.546-.566-1.221-.584-2.026h2.288c.025.375.133.688.322.94.193.247.45.435.77.562.324.124.69.186 1.098.186.4 0 .748-.058 1.043-.175.299-.117.53-.279.694-.486.164-.208.246-.446.246-.716a.93.93 0 00-.224-.633c-.146-.171-.36-.317-.645-.437-.28-.12-.624-.23-1.032-.328l-1.218-.306c-.943-.229-1.688-.588-2.234-1.076-.546-.487-.817-1.145-.814-1.971-.003-.677.177-1.27.541-1.775.368-.506.872-.901 1.513-1.185.64-.284 1.369-.426 2.185-.426.83 0 1.554.142 2.173.426.623.284 1.107.679 1.453 1.185.346.506.524 1.092.535 1.758h-2.266zm8.81-3.217V96h-2.364v-8.94h-.066l-2.561 1.605v-2.097l2.769-1.754h2.223zM71.688 96v-1.704l3.98-3.687c.34-.327.623-.622.853-.884.233-.263.41-.52.53-.77.12-.255.18-.53.18-.825 0-.328-.075-.61-.224-.847a1.47 1.47 0 00-.612-.551 1.917 1.917 0 00-.88-.197c-.341 0-.64.07-.895.208a1.43 1.43 0 00-.59.595 1.93 1.93 0 00-.207.923h-2.245c0-.732.166-1.367.497-1.906a3.318 3.318 0 011.393-1.251c.597-.295 1.285-.442 2.064-.442.801 0 1.499.142 2.092.426.597.28 1.061.67 1.393 1.168.331.5.497 1.07.497 1.715 0 .423-.084.84-.251 1.251-.164.412-.457.869-.88 1.371-.422.499-1.017 1.098-1.786 1.797l-1.633 1.6v.077h4.697V96h-7.974zm12.237-1.53l-.06.602a8.25 8.25 0 01-.273 1.436c-.13.48-.27.916-.415 1.305-.142.39-.257.696-.344.918h-1.507l.224-.901c.094-.383.183-.812.267-1.29.084-.476.137-.962.159-1.458l.027-.611h1.922zm6.041 1.776c-.94-.004-1.748-.235-2.425-.694-.674-.459-1.192-1.123-1.556-1.993-.36-.87-.54-1.917-.536-3.14 0-1.22.18-2.26.541-3.12.364-.859.883-1.512 1.557-1.96.677-.452 1.483-.677 2.42-.677.935 0 1.74.225 2.413.677.677.451 1.198 1.107 1.562 1.966.364.856.544 1.893.54 3.113 0 1.227-.181 2.276-.545 3.146-.36.87-.878 1.535-1.551 1.994-.674.458-1.48.688-2.42.688zm0-1.961c.64 0 1.153-.322 1.535-.967.382-.644.571-1.61.568-2.9 0-.848-.088-1.555-.262-2.119-.171-.564-.415-.989-.732-1.273a1.596 1.596 0 00-1.109-.425c-.637 0-1.147.318-1.53.955-.382.638-.575 1.591-.578 2.862 0 .86.085 1.577.257 2.152.174.572.42 1.001.737 1.289.317.284.688.426 1.114.426zm10.338 1.868c-.816 0-1.542-.14-2.18-.42-.633-.285-1.134-.674-1.502-1.17a2.937 2.937 0 01-.562-1.725h2.381c.015.273.104.513.268.72.167.204.39.363.666.476.277.113.588.17.934.17.361 0 .679-.065.956-.192a1.57 1.57 0 00.65-.53 1.34 1.34 0 00.235-.78c0-.3-.084-.563-.252-.793a1.598 1.598 0 00-.71-.546c-.305-.131-.67-.197-1.092-.197h-1.043V89.43h1.043c.357 0 .672-.062.945-.186a1.52 1.52 0 00.644-.513c.153-.223.23-.481.23-.776a1.347 1.347 0 00-.759-1.24 1.814 1.814 0 00-.831-.18c-.32 0-.613.058-.879.175a1.537 1.537 0 00-.639.486 1.28 1.28 0 00-.257.743h-2.266c.01-.645.195-1.213.552-1.704.356-.492.837-.876 1.441-1.153.608-.28 1.295-.42 2.059-.42.772 0 1.448.14 2.027.42.579.28 1.028.66 1.349 1.136.324.474.484 1.005.48 1.595.004.626-.191 1.149-.584 1.567-.39.42-.898.685-1.524.798v.087c.823.106 1.449.392 1.879.858.433.462.648 1.041.644 1.737a2.729 2.729 0 01-.551 1.698c-.368.495-.876.885-1.524 1.169-.648.284-1.391.426-2.228.426zm5.834-2.12v-1.862l4.67-7.357h1.605v2.578h-.95l-2.944 4.66v.087h6.636v1.895h-9.017zM111.506 96v-2.534l.043-.825v-7.827h2.218V96h-2.261zM71.04 76.52v-5.363h1.81c.35 0 .64.06.872.183.234.122.41.289.527.5.117.211.175.451.175.72 0 .224-.038.415-.113.574a1.019 1.019 0 01-.306.385 1.29 1.29 0 01-.432.212v.042c.173.012.34.073.503.183.162.108.296.26.4.456.105.195.157.429.157.701 0 .27-.06.513-.18.726-.12.21-.306.378-.555.5-.248.12-.564.18-.948.18h-1.91zm.49-.44h1.42c.413 0 .719-.092.916-.275a.9.9 0 00.299-.692c0-.204-.05-.389-.15-.555a1.05 1.05 0 00-.416-.398 1.286 1.286 0 00-.628-.147h-1.44v2.067zm0-2.501h1.365c.211 0 .396-.044.555-.131a.95.95 0 00.372-.361 1.03 1.03 0 00.133-.527.92.92 0 00-.277-.694c-.185-.18-.461-.27-.828-.27h-1.32v1.983zm5.312 3.032c-.243 0-.465-.047-.665-.141a1.171 1.171 0 01-.48-.414 1.18 1.18 0 01-.178-.66c0-.199.038-.367.113-.503a.916.916 0 01.32-.335c.137-.087.3-.156.489-.207.189-.05.396-.09.623-.117.226-.028.416-.053.571-.074a1.05 1.05 0 00.359-.1c.082-.045.123-.118.123-.22v-.094c0-.274-.082-.49-.246-.646-.163-.16-.396-.239-.702-.239-.29 0-.526.064-.71.191a1.06 1.06 0 00-.382.45l-.442-.159c.09-.22.216-.395.377-.526.16-.133.34-.228.539-.286a2.033 2.033 0 011.084-.029c.168.04.323.11.466.21.143.098.26.235.349.411.088.175.133.396.133.665v2.731h-.466v-.636h-.029a1.29 1.29 0 01-.662.62c-.166.072-.36.108-.584.108zm.063-.427c.247 0 .462-.055.644-.165.181-.11.32-.255.419-.437.1-.183.149-.385.149-.605v-.581a.463.463 0 01-.175.089c-.08.026-.174.05-.28.07-.105.02-.21.036-.315.05l-.283.037c-.227.028-.42.072-.581.13a.838.838 0 00-.37.247.602.602 0 00-.128.398c0 .245.088.434.262.568.175.133.394.2.657.2zm3.384-5.027v5.362h-.466v-5.362h.466zm2.357 5.454c-.243 0-.465-.047-.665-.141a1.171 1.171 0 01-.48-.414 1.18 1.18 0 01-.178-.66c0-.199.038-.367.113-.503a.917.917 0 01.32-.335c.137-.087.3-.156.49-.207.188-.05.395-.09.622-.117a59.3 59.3 0 00.571-.074 1.05 1.05 0 00.359-.1c.082-.045.123-.118.123-.22v-.094c0-.274-.082-.49-.246-.646-.162-.16-.396-.239-.702-.239-.29 0-.526.064-.71.191a1.059 1.059 0 00-.382.45l-.442-.159c.09-.22.216-.395.377-.526.16-.133.34-.228.54-.286a2.033 2.033 0 011.084-.029c.167.04.322.11.465.21.144.098.26.235.349.411.089.175.133.396.133.665v2.731h-.466v-.636h-.029a1.289 1.289 0 01-.663.62c-.165.072-.36.108-.583.108zm.063-.427c.248 0 .462-.055.644-.165.181-.11.321-.255.419-.437.1-.183.15-.385.15-.605v-.581a.463.463 0 01-.176.089c-.08.026-.174.05-.28.07-.105.02-.21.036-.315.05l-.283.037c-.227.028-.42.072-.58.13a.838.838 0 00-.37.247.602.602 0 00-.128.398c0 .245.087.434.261.568.175.133.394.2.658.2zm3.384-2.178v2.513h-.466v-4.022h.453v.631h.042a1.13 1.13 0 01.44-.495c.2-.125.449-.188.744-.188.27 0 .508.057.712.17.206.112.366.277.48.495.114.218.172.486.172.804v2.605h-.466v-2.576c0-.33-.093-.591-.278-.783-.183-.192-.43-.288-.738-.288-.211 0-.4.045-.563.136a.993.993 0 00-.39.393c-.095.17-.142.37-.142.605zm5.376 2.597c-.36 0-.673-.09-.94-.27a1.788 1.788 0 01-.618-.738 2.488 2.488 0 01-.22-1.068c0-.403.074-.762.222-1.076a1.8 1.8 0 01.623-.739c.266-.18.574-.27.925-.27.269 0 .512.053.73.158a1.42 1.42 0 01.81 1.091h-.472a1.042 1.042 0 00-.353-.58c-.185-.163-.421-.244-.707-.244-.257 0-.484.07-.681.209-.197.138-.352.33-.464.579a2.08 2.08 0 00-.165.856c0 .327.054.615.163.867.108.25.26.445.455.586.198.142.428.213.692.213.178 0 .34-.034.487-.1a1.009 1.009 0 00.576-.73h.471a1.425 1.425 0 01-.79 1.095 1.642 1.642 0 01-.744.161zm4.16 0c-.376 0-.7-.087-.975-.261a1.756 1.756 0 01-.636-.731 2.487 2.487 0 01-.223-1.079c0-.405.075-.765.223-1.079.15-.316.357-.563.62-.74.266-.18.572-.27.92-.27.218 0 .428.04.63.12.203.078.385.2.545.364.163.162.291.367.385.615.095.246.142.538.142.875v.23h-3.143v-.41h2.666c0-.26-.052-.491-.157-.697a1.222 1.222 0 00-.432-.493 1.133 1.133 0 00-.636-.18c-.255 0-.48.068-.673.204a1.404 1.404 0 00-.456.54 1.684 1.684 0 00-.165.733v.246c0 .32.055.598.165.838.112.237.27.421.474.552.204.131.446.197.725.197.19 0 .357-.03.5-.09a1.072 1.072 0 00.59-.57l.442.144c-.06.169-.161.325-.3.468a1.547 1.547 0 01-.52.346 1.844 1.844 0 01-.712.128z" fill="#fff"/><path d="M109.636 128.08a49.919 49.919 0 00-25.935-93.137 49.917 49.917 0 00-22.273 94.08" stroke="url(#paint2_linear_276_12354)" stroke-width=".369" stroke-linecap="round" stroke-dasharray="0 0.37 5.16 0 0.37 5.16"/><defs><linearGradient id="paint0_linear_276_12354" x1="137.037" y1="54.571" x2="31.793" y2="115.334" gradientUnits="userSpaceOnUse"><stop stop-color="#FE7E47"/><stop offset="1" stop-color="#FE7E47" stop-opacity="0"/></linearGradient><linearGradient id="paint1_linear_276_12354" x1="130.278" y1="42.695" x2="25.36" y2="103.269" gradientUnits="userSpaceOnUse"><stop stop-color="#FF8C5A"/><stop offset="1" stop-color="#E16631"/></linearGradient><linearGradient id="paint2_linear_276_12354" x1="127.907" y1="59.892" x2="41.447" y2="109.809" gradientUnits="userSpaceOnUse"><stop stop-color="#FE7E47"/><stop offset="1" stop-color="#FE7E47" stop-opacity="0"/></linearGradient><filter id="filter0_d_276_12354" x="11.62" y="13.041" width="142.571" height="139.993" filterUnits="userSpaceOnUse" color-interpolation-filters="sRGB"><feFlood flood-opacity="0" result="BackgroundImageFix"/><feColorMatrix in="SourceAlpha" values="0 0 0 0 0 0 0 0 0 0 0 0 0 0 0 0 0 0 127 0" result="hardAlpha"/><feOffset dy="1.844"/><feGaussianBlur stdDeviation="2.765"/><feColorMatrix values="0 0 0 0 0.890196 0 0 0 0 0.407843 0 0 0 0 0.2 0 0 0 0.2 0"/><feBlend in2="BackgroundImageFix" result="effect1_dropShadow_276_12354"/><feBlend in="SourceGraphic" in2="effect1_dropShadow_276_12354" result="shape"/></filter><filter id="filter1_d_276_12354" x="140.362" y="65.461" width="3.318" height="3.317" filterUnits="userSpaceOnUse" color-interpolation-filters="sRGB"><feFlood flood-opacity="0" result="BackgroundImageFix"/><feColorMatrix in="SourceAlpha" values="0 0 0 0 0 0 0 0 0 0 0 0 0 0 0 0 0 0 127 0" result="hardAlpha"/><feOffset/><feGaussianBlur stdDeviation=".184"/><feColorMatrix values="0 0 0 0 0 0 0 0 0 0 0 0 0 0 0 0 0 0 0.15 0"/><feBlend in2="BackgroundImageFix" result="effect1_dropShadow_276_12354"/><feBlend in="SourceGraphic" in2="effect1_dropShadow_276_12354" result="shape"/></filter></defs></svg>