<svg width="60" height="60" fill="none" xmlns="http://www.w3.org/2000/svg"><rect width="60" height="60" rx="10" fill="#FE7E47" fill-opacity=".3"/><path fill-rule="evenodd" clip-rule="evenodd" d="M15.05 11.668h4.9c2.117 0 3.383 1.267 3.383 3.383v4.9c0 2.117-1.266 3.384-3.383 3.384h-4.9c-2.117 0-3.384-1.267-3.384-3.384v-4.9c0-2.116 1.267-3.383 3.384-3.383zm5.657 4.874a1 1 0 10-1.414-1.415l-2.628 2.626-.958-.958a1 1 0 00-1.415 1.413l1.665 1.667a1 1 0 001.414 0l3.336-3.333z" fill="#141731"/><path d="M37.717 13.334h-14.75c.233.483.366 1.05.366 1.717v4.9c0 2.116-1.266 3.383-3.383 3.383h-4.9c-.317 0-.6-.033-.883-.1v15.317a8.116 8.116 0 008.116 8.116h13.284c.283 0 .566-.1.783-.333 2.467-2.483 6.767-6.817 9.183-9.25a.983.983 0 00.3-.717V21.451a8.116 8.116 0 00-8.116-8.117z" fill="#FE7E47"/><path d="M45.833 36.365c0 .25-.083.5-.3.717l-9.183 9.25a1.05 1.05 0 01-.784.334c-.55 0-1.083-.434-1.083-1.067v-5.833c0-2.434 2.067-4.45 4.6-4.45 1.584-.017 3.784-.017 5.667-.017.65 0 1.083.517 1.083 1.066zm-11.2-5.179H22.267c-.7 0-1.25-.567-1.25-1.25 0-.684.567-1.25 1.25-1.25h12.366c.7 0 1.25.566 1.25 1.25 0 .683-.55 1.25-1.25 1.25zM30 37.367h-7.733c-.7 0-1.25-.566-1.25-1.25 0-.7.567-1.25 1.25-1.25H30c.7 0 1.25.567 1.25 1.25 0 .684-.55 1.25-1.25 1.25z" fill="#141731"/></svg>