<svg width="60" height="60" fill="none" xmlns="http://www.w3.org/2000/svg"><rect width="60" height="60" rx="10" fill="#FE7E47" fill-opacity=".3"/><path d="M26.65 39.967c7.355 0 13.317-5.962 13.317-13.316 0-7.355-5.962-13.317-13.317-13.317s-13.317 5.962-13.317 13.317c0 7.354 5.962 13.316 13.317 13.316z" fill="#FE7E47"/><path d="M46.617 36.65c0 5.5-4.467 9.967-9.967 9.967-3.4 0-6.383-1.7-8.183-4.283 7.267-.817 13.05-6.6 13.867-13.867 2.583 1.8 4.283 4.783 4.283 8.183zM29.083 26.184l-4-1.4c-.4-.134-.483-.167-.483-.75 0-.434.3-.784.683-.784h2.5c.534 0 .967.484.967 1.084 0 .683.567 1.25 1.25 1.25a1.26 1.26 0 001.25-1.25c0-1.917-1.483-3.484-3.333-3.567v-.083a1.26 1.26 0 00-1.25-1.25c-.684 0-1.25.55-1.25 1.25v.083h-.15c-1.75 0-3.184 1.467-3.184 3.283 0 1.584.7 2.6 2.15 3.1l4.017 1.4c.4.134.483.167.483.75 0 .434-.3.784-.683.784h-2.5c-.533 0-.967-.484-.967-1.084a1.26 1.26 0 00-1.25-1.25 1.26 1.26 0 00-1.25 1.25c0 1.917 1.484 3.484 3.334 3.567v.1c0 .683.566 1.25 1.25 1.25a1.26 1.26 0 001.25-1.25v-.083h.15c1.75 0 3.183-1.467 3.183-3.284 0-1.583-.717-2.6-2.167-3.116z" fill="#141731"/></svg>