<svg width="60" height="60" fill="none" xmlns="http://www.w3.org/2000/svg"><rect width="60" height="60" rx="10" fill="#FE7E47" fill-opacity=".3"/><path d="M25 13.334c-4.367 0-7.917 3.55-7.917 7.917 0 4.283 3.35 7.75 7.717 7.9a1.32 1.32 0 01.367 0h.116a7.897 7.897 0 007.634-7.9c0-4.367-3.55-7.917-7.917-7.917zm8.467 20.251c-4.65-3.1-12.234-3.1-16.917 0-2.117 1.416-3.283 3.333-3.283 5.383s1.166 3.95 3.266 5.35c2.334 1.567 5.4 2.35 8.467 2.35s6.133-.783 8.467-2.35c2.1-1.417 3.266-3.317 3.266-5.383-.016-2.05-1.166-3.95-3.266-5.35z" fill="#FE7E47"/><path d="M43.317 22.234c.267 3.233-2.034 6.067-5.217 6.45h-.083c-.1 0-.2 0-.284.034-1.616.083-3.1-.434-4.216-1.384 1.716-1.533 2.7-3.833 2.5-6.333a7.734 7.734 0 00-1.284-3.634 5.955 5.955 0 012.117-.583c3.267-.283 6.183 2.15 6.467 5.45zm3.333 15.417c-.133 1.617-1.167 3.017-2.9 3.967-1.667.917-3.767 1.35-5.85 1.3 1.2-1.083 1.9-2.433 2.033-3.867.167-2.066-.816-4.05-2.783-5.633-1.117-.883-2.417-1.583-3.833-2.1 3.683-1.067 8.316-.35 11.166 1.95 1.534 1.233 2.317 2.783 2.167 4.383z" fill="#141731"/></svg>