<svg width="60" height="60" fill="none" xmlns="http://www.w3.org/2000/svg"><rect width="60" height="60" rx="10" fill="#FE7E47" fill-opacity=".3"/><path d="M12.932 28.932c.9-.143 1.8 0 2.728.371.928-2.67 2.4-5.427 4.328-8.098-3.314.072-6.285 1.286-8.47 3.47a8.936 8.936 0 00-.614.672c-.614.7-.7 1.685-.243 2.485a2.19 2.19 0 002.271 1.1zm18.139 18.139a2.159 2.159 0 001.086 2.271c.343.2.714.286 1.085.286.5 0 1-.172 1.414-.529.229-.2.457-.4.671-.614 2.186-2.185 3.4-5.156 3.471-8.47-2.685 1.929-5.442 3.4-8.113 4.314.386.928.529 1.843.386 2.742zm3.014-34.249c-2.6 1.129-5.185 2.7-7.399 4.913-4.284 4.285-7.455 9.284-8.698 13.698-.2.7-.157 1.442.1 2.128 1.557 3.985 4.357 6.798 8.356 8.355.385.143.8.229 1.214.229.314 0 .614-.043.914-.129 4.413-1.242 9.398-4.413 13.697-8.698 2.214-2.214 3.785-4.8 4.913-7.398-5.513-3.186-9.912-7.599-13.097-13.098zm3.428 16.068a1.422 1.422 0 01-2.014 0 1.44 1.44 0 010-2.028c.671-.671.686-1.742.029-2.385-.315-.314-.772-.557-1.186-.486-.443 0-.886.186-1.2.515a1.677 1.677 0 00-.028 2.385c1.757 1.77 1.742 4.656-.029 6.427-.9.9-2.07 1.343-3.242 1.343a4.5 4.5 0 01-2.014-.486 1.455 1.455 0 01-.957.386c-.371 0-.728-.143-1.014-.415a1.423 1.423 0 01-.028-1.97 4.565 4.565 0 01.857-5.257 1.422 1.422 0 012.013 0 1.422 1.422 0 010 2.014c-.67.671-.685 1.743-.028 2.4.657.642 1.728.628 2.385-.029.671-.671.686-1.742.029-2.4-1.757-1.756-1.743-4.641.028-6.427a4.59 4.59 0 013.214-1.342h.028c.715 0 1.4.185 2.014.5a1.423 1.423 0 011.971.028c.543.543.543 1.414.029 1.971.314.629.5 1.314.5 2.043a4.594 4.594 0 01-1.357 3.213z" fill="#141731"/><path d="M49.981 11.394a1.433 1.433 0 00-1.37-1.386c-.358-.014-5.8-.17-11.812 1.8 2.842 4.756 6.67 8.57 11.412 11.412 1.956-6.013 1.785-11.469 1.77-11.826zM14.79 37.617a1.526 1.526 0 00-.23.2c-.67.671-2.156 2.956-3.313 5.927a36.47 36.47 0 00-1.143 3.27c-.242.815-.014 1.7.586 2.3a2.339 2.339 0 001.643.686c.228 0 .457-.029.67-.1.986-.3 2.072-.686 3.243-1.143 2.97-1.157 5.256-2.628 5.942-3.313a.996.996 0 00.185-.229c.743-1.157.2-3.742-1.828-5.756-2.014-2.014-4.599-2.585-5.756-1.842z" fill="#FE7E47"/></svg>