<svg width="60" height="60" fill="none" xmlns="http://www.w3.org/2000/svg"><rect width="60" height="60" rx="10" fill="#FE7E47" fill-opacity=".3"/><path d="M45.417 40.783l-2.75.65c-.617.15-1.1.617-1.234 1.233l-.583 2.45c-.317 1.334-2.017 1.75-2.9.7l-4.983-5.733c-.4-.467-.184-1.2.416-1.35 2.95-.717 5.6-2.367 7.55-4.717.317-.383.884-.433 1.234-.083l3.7 3.7c1.266 1.267.816 2.85-.45 3.15zm-30.917 0l2.75.65c.616.15 1.1.617 1.233 1.233l.583 2.45c.317 1.334 2.017 1.75 2.9.7l4.984-5.733c.4-.467.183-1.2-.417-1.35a14.153 14.153 0 01-7.55-4.717c-.317-.383-.883-.433-1.233-.083l-3.7 3.7c-1.267 1.267-.817 2.85.45 3.15z" fill="#141731"/><path d="M30 13.334a11.658 11.658 0 00-11.667 11.667c0 2.416.717 4.633 1.95 6.483 1.8 2.667 4.65 4.55 7.967 5.033.567.1 1.15.15 1.75.15.6 0 1.183-.05 1.75-.15 3.317-.483 6.167-2.366 7.967-5.033a11.613 11.613 0 001.95-6.483c0-6.45-5.217-11.667-11.667-11.667zm5.1 11.3l-1.383 1.383c-.234.234-.367.684-.284 1.017l.4 1.717c.317 1.35-.4 1.883-1.6 1.166l-1.666-.983c-.3-.183-.8-.183-1.1 0l-1.667.983c-1.2.7-1.917.184-1.6-1.166l.4-1.717c.067-.317-.05-.783-.283-1.017L24.9 24.634c-.817-.817-.55-1.633.583-1.817l1.784-.3c.3-.05.65-.316.783-.583l.983-1.967c.534-1.066 1.4-1.066 1.934 0l.983 1.967c.133.267.483.533.8.583l1.783.3c1.117.184 1.384 1 .567 1.817z" fill="#FE7E47"/></svg>