<svg width="60" height="60" fill="none" xmlns="http://www.w3.org/2000/svg"><rect width="60" height="60" rx="10" fill="#FE7E47" fill-opacity=".3"/><path d="M36.983 13.334h-13.95c-6.066 0-9.683 3.617-9.683 9.683v13.95c0 6.067 3.617 9.684 9.683 9.684h13.95c6.067 0 9.684-3.617 9.684-9.684v-13.95c0-6.066-3.617-9.683-9.684-9.683z" fill="#FE7E47"/><path d="M24.7 36.702c-.316 0-.633-.117-.883-.367a1.258 1.258 0 010-1.767l10.916-10.916a1.257 1.257 0 011.767 0 1.257 1.257 0 010 1.766L25.584 36.335c-.25.25-.567.367-.884.367zm.683-13.934c-1.35 0-2.466 1.1-2.466 2.466 0 1.35 1.1 2.467 2.466 2.467 1.35 0 2.467-1.1 2.467-2.467-.017-1.366-1.117-2.466-2.467-2.466zm10.9 9.55c-1.35 0-2.466 1.1-2.466 2.467 0 1.35 1.1 2.467 2.466 2.467 1.35 0 2.467-1.1 2.467-2.467s-1.1-2.467-2.467-2.467z" fill="#141731"/></svg>