<svg width="60" height="60" fill="none" xmlns="http://www.w3.org/2000/svg"><rect width="60" height="60" rx="10" fill="#FE7E47" fill-opacity=".3"/><path d="M46.1 27.4l-1.633 6.968c-1.4 6.016-4.167 8.45-9.367 7.95a17.528 17.528 0 01-2.7-.45l-2.8-.667c-6.95-1.65-9.1-5.084-7.467-12.05l1.634-6.983C24.1 20.75 24.5 19.518 25 18.5c1.95-4.034 5.267-5.117 10.833-3.8l2.784.65c6.983 1.633 9.116 5.083 7.483 12.05z" fill="#FE7E47"/><path d="M35.1 42.317c-1.033.7-2.333 1.283-3.917 1.8l-2.633.866c-6.617 2.134-10.1.35-12.25-6.266l-2.133-6.584c-2.134-6.616-.367-10.116 6.25-12.25l2.633-.866c.683-.217 1.333-.4 1.95-.517-.5 1.017-.9 2.25-1.233 3.667l-1.634 6.983c-1.633 6.967.517 10.4 7.467 12.05l2.8.667c.967.233 1.867.383 2.7.45zm4.05-14.801c-.1 0-.2-.016-.316-.033l-8.084-2.05a1.249 1.249 0 01-.9-1.517 1.249 1.249 0 011.517-.9l8.083 2.05a1.25 1.25 0 01.9 1.517c-.133.55-.65.933-1.2.933z" fill="#141731"/><path d="M34.267 33.15c-.1 0-.2-.016-.317-.032l-4.85-1.234a1.249 1.249 0 01-.9-1.517 1.249 1.249 0 011.517-.9l4.85 1.234a1.25 1.25 0 01.9 1.517 1.214 1.214 0 01-1.2.933z" fill="#141731"/></svg>