<svg width="60" height="60" fill="none" xmlns="http://www.w3.org/2000/svg"><rect width="60" height="60" rx="10" fill="#FE7E47" fill-opacity=".3"/><path d="M41.667 35A6.665 6.665 0 0035 41.667c0 1.25.35 2.433.967 3.433a6.616 6.616 0 005.7 3.233c2.433 0 4.55-1.3 5.7-3.233a6.54 6.54 0 00.966-3.433A6.665 6.665 0 0041.667 35zm3.45 5.95l-3.55 3.283c-.234.217-.55.334-.85.334-.317 0-.634-.117-.884-.367l-1.65-1.65a1.258 1.258 0 010-1.767 1.258 1.258 0 011.767 0l.8.8 2.667-2.466c.5-.467 1.3-.434 1.766.066.467.5.434 1.284-.066 1.767zm1.55-18.382v2.433H13.333v-2.433c0-3.817 3.1-6.9 6.917-6.9h19.5c3.817 0 6.917 3.083 6.917 6.9z" fill="#141731"/><path d="M13.333 25v12.433c0 3.817 3.084 6.9 6.9 6.9h10.434c.966 0 1.8-.816 1.716-1.783-.233-2.55.584-5.317 2.85-7.517a8.463 8.463 0 013.334-2.016c2.083-.667 4.1-.584 5.883.016 1.083.367 2.217-.416 2.217-1.566V25H13.333zm10 13.75H20a1.26 1.26 0 01-1.25-1.25c0-.683.567-1.25 1.25-1.25h3.333c.684 0 1.25.567 1.25 1.25a1.26 1.26 0 01-1.25 1.25z" fill="#FE7E47"/><path d="M24.583 37.5a1.26 1.26 0 01-1.25 1.25H20a1.26 1.26 0 01-1.25-1.25c0-.683.567-1.25 1.25-1.25h3.333c.684 0 1.25.567 1.25 1.25z" fill="#141731"/></svg>