<svg width="160" height="139" fill="none" xmlns="http://www.w3.org/2000/svg"><path opacity=".1" d="M68.78 6.627a6.6 6.6 0 016.6-6.6h9.9a6.6 6.6 0 016.6 6.6v122.1a6.6 6.6 0 01-6.6 6.6h-9.9a6.6 6.6 0 01-6.6-6.6V6.627z" fill="#FE7E47"/><rect x="7.4" y="80.879" width="5.94" height="34.98" rx="1.32" fill="url(#paint0_linear_276_12306)"/><rect opacity=".4" x=".47" y="90.779" width="5.94" height="25.08" rx="1.32" fill="#FE7E47"/><rect x="80.66" y="35.998" width="5.94" height="79.86" rx="1.32" fill="url(#paint1_linear_276_12306)"/><rect opacity=".4" x="73.73" y="58.438" width="5.94" height="57.42" rx="1.32" fill="#FE7E47"/><rect x="31.82" y="50.52" width="5.94" height="65.34" rx="1.32" fill="url(#paint2_linear_276_12306)"/><rect opacity=".4" x="24.89" y="69" width="5.94" height="46.86" rx="1.32" fill="#FE7E47"/><rect x="105.08" y="90.777" width="5.94" height="25.08" rx="1.32" fill="url(#paint3_linear_276_12306)"/><rect opacity=".4" x="98.15" y="97.707" width="5.94" height="18.15" rx="1.32" fill="#FE7E47"/><rect x="56.24" y="16.199" width="5.94" height="99.66" rx="1.32" fill="url(#paint4_linear_276_12306)"/><rect opacity=".4" x="49.31" y="44.25" width="5.94" height="71.61" rx="1.32" fill="#FE7E47"/><rect x="129.5" y="18.838" width="5.94" height="97.02" rx="1.32" fill="url(#paint5_linear_276_12306)"/><rect opacity=".4" x="122.57" y="46.228" width="5.94" height="69.63" rx="1.32" fill="#FE7E47"/><rect x="153.92" y="47.547" width="5.94" height="68.31" rx="1.32" fill="url(#paint6_linear_276_12306)"/><rect opacity=".4" x="146.99" y="66.688" width="5.94" height="49.17" rx="1.32" fill="#FE7E47"/><path opacity=".5" d="M6.157 126.459H5.76v-2.053h-.013l-.841 2.032h-.321l-.843-2.032h-.014v2.053h-.394v-2.79h.5l.903 2.202h.016l.901-2.202h.503v2.79zm2.04-.244c-.176.189-.41.283-.702.283-.293 0-.527-.094-.702-.283-.175-.189-.263-.447-.263-.773 0-.325.088-.581.263-.77.175-.189.41-.284.702-.284s.526.095.702.284c.175.189.263.445.263.77 0 .326-.088.584-.263.773zm-.702-.062a.472.472 0 00.394-.187c.097-.125.145-.3.145-.524 0-.223-.049-.397-.147-.522a.47.47 0 00-.392-.188.476.476 0 00-.395.188c-.096.125-.145.299-.145.522 0 .224.049.399.145.524.098.125.23.187.395.187zm1.288.306v-2.034h.398v.34h.01a.635.635 0 01.247-.276.74.74 0 01.393-.099c.223 0 .396.067.52.201.123.133.185.317.185.551v1.317h-.42v-1.236c0-.154-.036-.272-.11-.351-.072-.082-.18-.122-.322-.122a.453.453 0 00-.352.143.54.54 0 00-.132.381v1.185h-.417zm94.354 0h-.434v-2.79h1.743v.373h-1.309v.884h1.198v.365h-1.198v1.168zm1.635 0v-2.034h.399v.346h.009a.487.487 0 01.49-.379c.04 0 .087.005.143.015v.389a.554.554 0 00-.188-.023.416.416 0 00-.319.126.484.484 0 00-.116.342v1.218h-.418zm1.313 0v-2.034h.418v2.034h-.418zm.381-2.402a.235.235 0 01-.172.07.236.236 0 01-.172-.07.23.23 0 01-.07-.168.24.24 0 01.242-.24c.068 0 .126.024.172.07a.227.227 0 01.072.17.224.224 0 01-.072.168zm-77.029 2.402h-.433v-2.417h-.855v-.373h2.14v.373h-.852v2.417zm2.53-2.034v2.034h-.401v-.344h-.01c-.117.254-.327.381-.63.381-.222 0-.396-.067-.524-.201-.126-.136-.19-.32-.19-.553v-1.317h.418v1.235c0 .156.037.275.11.356.074.08.182.12.325.12.15 0 .268-.048.354-.143a.548.548 0 00.13-.383v-1.185h.417zm1.618.447a.462.462 0 00-.354-.147.478.478 0 00-.36.148.582.582 0 00-.159.381h1.018a.563.563 0 00-.145-.382zm.143.99h.396a.689.689 0 01-.286.458.971.971 0 01-.59.178c-.298 0-.532-.094-.704-.281-.17-.188-.255-.443-.255-.765 0-.32.085-.577.255-.772.172-.195.4-.292.687-.292.28 0 .504.092.669.277.165.183.247.429.247.738v.143h-1.436v.025c0 .178.05.321.148.428.1.107.233.16.399.16a.545.545 0 00.301-.081.392.392 0 00.169-.216zm19.777-1.507l-.601 2.104h-.41l-.752-2.79h.45l.517 2.185h.015l.59-2.185h.402l.592 2.185h.015l.517-2.185h.45l-.754 2.79h-.408l-.603-2.104h-.02zm3.063.517a.462.462 0 00-.354-.147.478.478 0 00-.36.148.581.581 0 00-.158.381h1.017a.563.563 0 00-.145-.382zm.143.99h.397a.689.689 0 01-.287.458.971.971 0 01-.59.178c-.297 0-.532-.094-.703-.281-.17-.188-.255-.443-.255-.765 0-.32.085-.577.255-.772.171-.195.4-.292.686-.292.281 0 .504.092.67.277.164.183.247.429.247.738v.143h-1.437v.025c0 .178.05.321.149.428.1.107.232.16.398.16a.545.545 0 00.302-.081.392.392 0 00.168-.216zm1.508.632a.764.764 0 01-.62-.286c-.156-.191-.234-.446-.234-.766s.077-.574.232-.764a.759.759 0 01.618-.286c.144 0 .271.033.383.101a.638.638 0 01.256.27h.007v-1.094h.42v2.79h-.406v-.346h-.008a.684.684 0 01-.26.28.74.74 0 01-.388.101zm.11-1.75a.469.469 0 00-.392.189c-.097.125-.145.295-.145.509 0 .215.048.385.145.51a.47.47 0 00.393.188c.16 0 .29-.063.388-.19.098-.127.147-.297.147-.508 0-.21-.049-.379-.147-.507a.467.467 0 00-.388-.191zm67.944.938h.427a.447.447 0 00.207.332.794.794 0 00.46.126c.175 0 .32-.041.433-.122a.364.364 0 00.172-.309.329.329 0 00-.121-.265c-.082-.07-.213-.126-.393-.17l-.362-.087c-.256-.062-.446-.154-.568-.277a.647.647 0 01-.182-.475c0-.24.094-.436.282-.586.19-.151.434-.227.733-.227.294 0 .534.076.72.227a.745.745 0 01.288.586h-.422a.442.442 0 00-.18-.327.662.662 0 00-.411-.12.677.677 0 00-.41.116.358.358 0 00-.157.302c0 .097.039.178.118.241.079.062.208.116.389.161l.307.075c.286.067.492.162.619.284a.648.648 0 01.191.49c0 .26-.096.467-.29.62-.193.152-.456.228-.787.228-.31 0-.562-.074-.756-.222a.778.778 0 01-.307-.601zm3.19.481c.147 0 .27-.044.369-.133a.43.43 0 00.151-.333v-.16l-.501.031a.539.539 0 00-.29.092.251.251 0 00-.1.209c0 .089.033.161.1.215a.432.432 0 00.271.079zm-.116.331a.705.705 0 01-.489-.17.571.571 0 01-.188-.443c0-.178.066-.319.198-.424.131-.105.317-.165.558-.178l.557-.032v-.157a.334.334 0 00-.108-.265.436.436 0 00-.3-.097.492.492 0 00-.29.08.345.345 0 00-.139.218h-.394a.607.607 0 01.243-.46c.151-.119.35-.178.596-.178s.442.061.588.182c.147.121.22.283.22.487v1.402h-.4v-.335h-.01a.642.642 0 01-.265.269.748.748 0 01-.377.101zm1.58-2.551h.419v.482h.387v.33h-.387v1.122c0 .088.02.152.06.193.04.042.103.062.188.062a.748.748 0 00.137-.009v.33c-.051.013-.129.02-.232.02-.205 0-.352-.042-.441-.126-.087-.085-.131-.226-.131-.424v-1.168h-.296v-.33h.296v-.482z" fill="#454459"/><path d="M78.181 126.459h-.497v-2.369h-.835v-.421h2.165v.421h-.833v2.369zm1.14 0v-2.79h.477v1.092h.01a.62.62 0 01.249-.288.747.747 0 01.398-.102c.224 0 .4.069.526.207.128.136.191.323.191.56v1.321h-.481v-1.222c0-.146-.036-.259-.109-.338-.07-.08-.175-.12-.313-.12a.44.44 0 00-.342.137.523.523 0 00-.124.365v1.178h-.481zm4.056-2.05v2.05h-.465v-.356h-.01c-.113.262-.321.393-.626.393-.223 0-.4-.068-.531-.203-.13-.137-.196-.323-.196-.559v-1.325h.482v1.228c0 .147.035.259.104.337.071.077.174.116.31.116a.418.418 0 00.328-.136.516.516 0 00.122-.359v-1.186h.482z" fill="#454459"/><path opacity=".5" d="M150.033 125.682h.427a.45.45 0 00.207.332.794.794 0 00.46.126c.175 0 .32-.041.433-.122a.364.364 0 00.172-.309.329.329 0 00-.121-.265c-.082-.07-.213-.126-.393-.17l-.362-.087c-.256-.062-.446-.154-.568-.277a.647.647 0 01-.182-.475c0-.24.094-.436.282-.586.19-.151.434-.227.733-.227.294 0 .534.076.72.227a.745.745 0 01.288.586h-.422a.442.442 0 00-.18-.327.662.662 0 00-.411-.12.677.677 0 00-.41.116.358.358 0 00-.157.302c0 .097.039.178.118.241.079.062.208.116.389.161l.307.075c.286.067.492.162.619.284a.648.648 0 01.191.49c0 .26-.096.467-.29.62-.193.152-.456.228-.787.228-.31 0-.562-.074-.756-.222a.778.778 0 01-.307-.601zm4.223-1.257v2.034h-.401v-.344h-.009c-.118.254-.328.381-.631.381-.221 0-.396-.067-.524-.201-.126-.136-.189-.32-.189-.553v-1.317h.418v1.235c0 .156.036.275.11.356.073.08.182.12.325.12a.453.453 0 00.353-.143.545.545 0 00.13-.383v-1.185h.418zm.413 2.034v-2.034h.399v.34h.009a.64.64 0 01.248-.276.739.739 0 01.392-.099c.223 0 .397.067.521.201.123.133.185.317.185.551v1.317h-.419v-1.236c0-.154-.037-.272-.111-.351-.072-.082-.179-.122-.322-.122a.452.452 0 00-.352.143.538.538 0 00-.132.381v1.185h-.418z" fill="#454459"/><circle cx="80.33" cy="135.329" r="2.64" fill="#FE7E47" stroke="#fff" stroke-width="1.32"/><defs><linearGradient id="paint0_linear_276_12306" x1="9.38" y1="80.879" x2="-2.582" y2="85.609" gradientUnits="userSpaceOnUse"><stop stop-color="#FF8C5A"/><stop offset="1" stop-color="#E16631"/></linearGradient><linearGradient id="paint1_linear_276_12306" x1="82.64" y1="35.998" x2="69.21" y2="38.324" gradientUnits="userSpaceOnUse"><stop stop-color="#FF8C5A"/><stop offset="1" stop-color="#E16631"/></linearGradient><linearGradient id="paint2_linear_276_12306" x1="33.8" y1="50.52" x2="20.561" y2="53.322" gradientUnits="userSpaceOnUse"><stop stop-color="#FF8C5A"/><stop offset="1" stop-color="#E16631"/></linearGradient><linearGradient id="paint3_linear_276_12306" x1="107.06" y1="90.777" x2="96.454" y2="96.627" gradientUnits="userSpaceOnUse"><stop stop-color="#FF8C5A"/><stop offset="1" stop-color="#E16631"/></linearGradient><linearGradient id="paint4_linear_276_12306" x1="58.22" y1="16.199" x2="44.649" y2="18.083" gradientUnits="userSpaceOnUse"><stop stop-color="#FF8C5A"/><stop offset="1" stop-color="#E16631"/></linearGradient><linearGradient id="paint5_linear_276_12306" x1="131.48" y1="18.838" x2="117.923" y2="20.771" gradientUnits="userSpaceOnUse"><stop stop-color="#FF8C5A"/><stop offset="1" stop-color="#E16631"/></linearGradient><linearGradient id="paint6_linear_276_12306" x1="155.9" y1="47.547" x2="142.612" y2="50.237" gradientUnits="userSpaceOnUse"><stop stop-color="#FF8C5A"/><stop offset="1" stop-color="#E16631"/></linearGradient></defs></svg>