<svg width="60" height="60" fill="none" xmlns="http://www.w3.org/2000/svg"><rect width="60" height="60" rx="10" fill="#FE7E47" fill-opacity=".3"/><path d="M46.667 46.666H13.333a1.26 1.26 0 01-1.25-1.25c0-.683.567-1.25 1.25-1.25h33.334c.683 0 1.25.567 1.25 1.25a1.26 1.26 0 01-1.25 1.25z" fill="#141731"/><path d="M26.25 16.667v30h7.5v-30c0-1.833-.75-3.333-3-3.333h-1.5c-2.25 0-3 1.5-3 3.333z" fill="#141731"/><path d="M15 26.667v20h6.667v-20c0-1.833-.667-3.333-2.667-3.333h-1.333c-2 0-2.667 1.5-2.667 3.333zM38.333 35v11.666H45V34.999c0-1.833-.667-3.333-2.667-3.333H41c-2 0-2.667 1.5-2.667 3.333z" fill="#FE7E47"/></svg>