<svg width="198" height="220" fill="none" xmlns="http://www.w3.org/2000/svg"><rect width="198" height="220" rx="20" fill="#F5F5F5"/><rect x="20" y="20" width="60" height="60" rx="10" fill="#FE7E47" fill-opacity=".3"/><path d="M48.267 33.434L39.1 36.868c-1.75.666-3.183 2.733-3.183 4.616v13.5c0 1.35.883 3.134 1.966 3.934l9.167 6.85c1.617 1.216 4.267 1.216 5.883 0l9.167-6.85c1.083-.817 1.967-2.584 1.967-3.934v-13.5c0-1.866-1.434-3.95-3.184-4.6l-9.166-3.433c-.934-.367-2.5-.367-3.45-.017z" fill="#FE7E47"/><path d="M47.767 53.715c-.317 0-.634-.116-.884-.366L44.2 50.665a1.257 1.257 0 010-1.766 1.257 1.257 0 011.767 0l1.8 1.8 6.283-6.284a1.258 1.258 0 011.767 0 1.258 1.258 0 010 1.767l-7.167 7.167c-.25.25-.567.366-.883.366zM30.71 161.364V173h-1.875l-5.483-7.926h-.096V173h-2.108v-11.636h1.886l5.477 7.931h.103v-7.931h2.096zm6.07 11.806c-.875 0-1.63-.181-2.267-.545a3.689 3.689 0 01-1.46-1.557c-.341-.674-.512-1.468-.512-2.38 0-.898.17-1.686.512-2.364a3.867 3.867 0 011.443-1.591c.617-.383 1.343-.574 2.176-.574a4.41 4.41 0 011.523.261c.48.171.905.436 1.272.796.372.36.663.818.875 1.375.212.553.319 1.212.319 1.977v.631h-7.154v-1.387h5.182a2.215 2.215 0 00-.256-1.051 1.86 1.86 0 00-.699-.733 1.965 1.965 0 00-1.034-.267c-.42 0-.79.103-1.108.307a2.114 2.114 0 00-.744.796 2.285 2.285 0 00-.267 1.074v1.21c0 .507.093.943.278 1.307.186.359.445.636.779.829.333.189.723.284 1.17.284.3 0 .57-.041.813-.125.242-.087.452-.214.63-.381a1.58 1.58 0 00.404-.619l1.92.216a2.994 2.994 0 01-.693 1.33 3.386 3.386 0 01-1.295.875c-.527.204-1.13.306-1.807.306zm9.416 3.285c-.739 0-1.373-.101-1.903-.302-.53-.197-.957-.462-1.279-.795a2.753 2.753 0 01-.67-1.108l1.852-.449c.083.171.205.339.364.506.159.17.373.31.642.42.272.114.615.171 1.028.171.583 0 1.066-.142 1.449-.426.383-.281.574-.743.574-1.387v-1.653h-.102c-.107.212-.262.43-.466.653a2.384 2.384 0 01-.802.563c-.329.151-.744.227-1.244.227a3.58 3.58 0 01-1.824-.472c-.541-.318-.973-.791-1.295-1.42-.318-.633-.477-1.424-.477-2.375 0-.958.159-1.767.477-2.426.322-.663.756-1.165 1.301-1.506a3.341 3.341 0 011.824-.517c.511 0 .932.087 1.261.261.334.171.599.377.796.62.197.238.346.464.449.676h.113v-1.443h2.029v8.869c0 .746-.178 1.364-.535 1.852-.355.489-.842.854-1.46 1.097-.617.242-1.318.364-2.102.364zm.017-5.194c.436 0 .807-.106 1.114-.318.306-.212.54-.517.699-.915.159-.397.238-.875.238-1.431 0-.55-.08-1.031-.238-1.444-.156-.412-.387-.733-.694-.96-.303-.231-.676-.346-1.119-.346-.458 0-.84.119-1.148.358-.306.238-.537.566-.693.983a3.977 3.977 0 00-.233 1.409c0 .534.078 1.001.233 1.403.16.398.392.708.699.932.31.22.691.329 1.142.329zm8.699 1.915a3.64 3.64 0 01-1.494-.295 2.442 2.442 0 01-1.046-.887c-.254-.39-.38-.871-.38-1.443 0-.492.09-.899.272-1.221.182-.322.43-.58.744-.773a3.776 3.776 0 011.063-.438 8.616 8.616 0 011.233-.221c.511-.053.926-.101 1.244-.142.319-.046.55-.114.694-.205.147-.095.221-.24.221-.437v-.034c0-.428-.127-.76-.38-.995-.254-.235-.62-.352-1.097-.352-.504 0-.904.11-1.2.329a1.64 1.64 0 00-.59.779l-1.92-.273c.151-.53.401-.973.75-1.329a3.26 3.26 0 011.278-.807 4.886 4.886 0 011.67-.273c.42 0 .84.049 1.256.148.417.098.798.261 1.142.488.345.224.621.529.83.915.212.387.318.87.318 1.449V173h-1.977v-1.199h-.069a2.5 2.5 0 01-.528.682 2.551 2.551 0 01-.847.506c-.337.125-.732.187-1.187.187zm.534-1.511c.413 0 .77-.082 1.074-.245a1.8 1.8 0 00.699-.659c.166-.272.25-.57.25-.892v-1.028a.979.979 0 01-.33.148 4.753 4.753 0 01-.511.119c-.19.034-.377.064-.563.091l-.483.068c-.306.042-.581.11-.824.205a1.365 1.365 0 00-.573.397c-.14.167-.21.383-.21.648 0 .379.138.665.414.858.277.193.629.29 1.057.29zm10.5-7.392v1.591h-5.017v-1.591h5.017zm-3.778-2.091h2.056v8.193c0 .277.042.489.125.636a.68.68 0 00.341.296c.14.053.296.079.466.079.129 0 .246-.009.352-.028a3.08 3.08 0 00.25-.051l.347 1.608c-.11.038-.267.079-.472.125-.2.045-.446.072-.738.079a3.348 3.348 0 01-1.392-.233 2.166 2.166 0 01-.983-.806c-.239-.364-.356-.819-.352-1.364v-8.534zM67.666 173v-8.727h2.057V173h-2.057zm1.034-9.966a1.2 1.2 0 01-.84-.324 1.043 1.043 0 01-.353-.79c0-.31.117-.573.352-.789.235-.22.516-.33.841-.33.33 0 .61.11.841.33.235.216.353.479.353.789 0 .307-.118.571-.353.79a1.187 1.187 0 01-.84.324zm10.933 1.239L76.526 173h-2.273l-3.108-8.727h2.193l2.006 6.483h.09l2.012-6.483h2.188zm4.99 8.897c-.874 0-1.63-.181-2.267-.545a3.69 3.69 0 01-1.46-1.557c-.34-.674-.511-1.468-.511-2.38 0-.898.17-1.686.511-2.364a3.868 3.868 0 011.444-1.591c.617-.383 1.342-.574 2.176-.574a4.41 4.41 0 011.522.261c.481.171.906.436 1.273.796.371.36.663.818.875 1.375.212.553.318 1.212.318 1.977v.631h-7.153v-1.387h5.182a2.215 2.215 0 00-.256-1.051c-.167-.31-.4-.555-.699-.733a1.965 1.965 0 00-1.034-.267c-.42 0-.79.103-1.108.307a2.114 2.114 0 00-.744.796 2.284 2.284 0 00-.267 1.074v1.21c0 .507.093.943.278 1.307.186.359.445.636.778.829.334.189.724.284 1.171.284.3 0 .57-.041.813-.125.242-.087.452-.214.63-.381.178-.166.313-.373.404-.619l1.92.216a2.994 2.994 0 01-.693 1.33 3.388 3.388 0 01-1.296.875c-.526.204-1.128.306-1.806.306zm9.681-.17v-11.636h2.057v4.352h.085c.106-.212.256-.438.449-.676.193-.243.454-.449.784-.62.33-.174.75-.261 1.261-.261a3.32 3.32 0 011.824.517c.546.341.977.847 1.296 1.517.322.667.483 1.485.483 2.455 0 .958-.158 1.772-.472 2.443-.314.67-.742 1.182-1.284 1.534a3.305 3.305 0 01-1.841.528c-.5 0-.915-.083-1.244-.25a2.52 2.52 0 01-.796-.602 3.924 3.924 0 01-.46-.676h-.12V173h-2.022zm2.017-4.364c0 .565.08 1.059.239 1.483.162.425.395.756.698.995.307.234.679.352 1.114.352.455 0 .835-.121 1.142-.364.307-.246.538-.581.693-1.005.159-.428.239-.915.239-1.461a4.16 4.16 0 00-.233-1.443c-.155-.42-.386-.75-.693-.988-.307-.239-.69-.358-1.148-.358-.44 0-.812.115-1.12.346-.306.231-.539.555-.698.972-.155.416-.233.907-.233 1.471zm10.482 4.54a3.643 3.643 0 01-1.495-.295 2.44 2.44 0 01-1.045-.887c-.254-.39-.381-.871-.381-1.443 0-.492.091-.899.273-1.221.182-.322.43-.58.744-.773a3.785 3.785 0 011.063-.438 8.579 8.579 0 011.233-.221c.511-.053.926-.101 1.244-.142.318-.046.549-.114.693-.205.148-.095.222-.24.222-.437v-.034c0-.428-.127-.76-.381-.995s-.619-.352-1.097-.352c-.503 0-.903.11-1.198.329-.292.22-.489.48-.591.779l-1.921-.273c.152-.53.402-.973.75-1.329.349-.36.775-.629 1.279-.807a4.88 4.88 0 011.67-.273c.421 0 .839.049 1.256.148.416.098.797.261 1.142.488.344.224.621.529.829.915.212.387.319.87.319 1.449V173h-1.978v-1.199h-.068c-.125.243-.301.47-.528.682a2.557 2.557 0 01-.847.506c-.337.125-.733.187-1.187.187zm.534-1.511c.413 0 .77-.082 1.074-.245.303-.166.535-.386.698-.659.167-.272.25-.57.25-.892v-1.028a.973.973 0 01-.329.148 4.76 4.76 0 01-.512.119c-.189.034-.376.064-.562.091l-.483.068a3.6 3.6 0 00-.824.205 1.367 1.367 0 00-.574.397c-.14.167-.21.383-.21.648 0 .379.138.665.415.858.276.193.629.29 1.057.29zm8.199-10.301V173h-2.057v-11.636h2.057zm4.626 11.812a3.639 3.639 0 01-1.494-.295 2.443 2.443 0 01-1.046-.887c-.254-.39-.381-.871-.381-1.443 0-.492.091-.899.273-1.221.182-.322.43-.58.745-.773a3.767 3.767 0 011.062-.438 8.628 8.628 0 011.233-.221c.511-.053.926-.101 1.244-.142.318-.046.55-.114.693-.205.148-.095.222-.24.222-.437v-.034c0-.428-.127-.76-.381-.995-.253-.235-.619-.352-1.096-.352-.504 0-.904.11-1.199.329-.292.22-.489.48-.591.779l-1.92-.273c.151-.53.401-.973.75-1.329.348-.36.774-.629 1.278-.807a4.888 4.888 0 011.67-.273c.421 0 .839.049 1.256.148.417.098.797.261 1.142.488.345.224.621.529.83.915.212.387.318.87.318 1.449V173h-1.977v-1.199h-.069c-.125.243-.301.47-.528.682a2.547 2.547 0 01-.847.506c-.337.125-.733.187-1.187.187zm.534-1.511c.413 0 .771-.082 1.074-.245a1.8 1.8 0 00.699-.659c.166-.272.25-.57.25-.892v-1.028a.98.98 0 01-.33.148 4.739 4.739 0 01-.511.119c-.19.034-.377.064-.563.091l-.483.068a3.59 3.59 0 00-.823.205 1.36 1.36 0 00-.574.397c-.14.167-.211.383-.211.648 0 .379.139.665.415.858.277.193.629.29 1.057.29zm8.199-3.779V173h-2.057v-8.727h1.966v1.483h.102c.201-.489.521-.877.96-1.165.444-.288.991-.432 1.643-.432.602 0 1.126.129 1.573.386.451.258.8.631 1.046 1.12.25.488.373 1.081.369 1.778V173h-2.057v-5.239c0-.583-.151-1.039-.454-1.369-.299-.33-.714-.494-1.245-.494-.359 0-.679.079-.96.238a1.663 1.663 0 00-.653.676c-.155.296-.233.654-.233 1.074zm11.5 5.284c-.871 0-1.619-.191-2.244-.573a3.827 3.827 0 01-1.438-1.586c-.333-.678-.5-1.458-.5-2.341 0-.886.171-1.668.511-2.346a3.814 3.814 0 011.444-1.591c.625-.383 1.363-.574 2.216-.574.708 0 1.335.131 1.88.392.549.258.987.623 1.313 1.097.325.469.511 1.019.557 1.647h-1.966c-.08-.42-.269-.77-.569-1.051-.295-.284-.691-.426-1.187-.426-.421 0-.79.114-1.108.341-.318.224-.566.546-.744.966-.175.42-.262.924-.262 1.511 0 .595.087 1.106.262 1.534.174.425.418.752.733.983a1.87 1.87 0 001.119.341c.303 0 .574-.057.812-.17.243-.118.446-.286.608-.506a1.95 1.95 0 00.336-.801h1.966a3.44 3.44 0 01-.546 1.642 3.222 3.222 0 01-1.284 1.114c-.542.265-1.178.397-1.909.397zm9.291 0c-.875 0-1.631-.181-2.267-.545a3.686 3.686 0 01-1.46-1.557c-.341-.674-.512-1.468-.512-2.38 0-.898.171-1.686.512-2.364a3.872 3.872 0 011.443-1.591c.617-.383 1.343-.574 2.176-.574a4.41 4.41 0 011.523.261c.481.171.905.436 1.273.796.371.36.662.818.875 1.375.212.553.318 1.212.318 1.977v.631h-7.154v-1.387h5.182a2.214 2.214 0 00-.256-1.051 1.858 1.858 0 00-.698-.733 1.968 1.968 0 00-1.034-.267c-.421 0-.79.103-1.108.307a2.11 2.11 0 00-.745.796 2.29 2.29 0 00-.267 1.074v1.21c0 .507.093.943.279 1.307.185.359.445.636.778.829.333.189.724.284 1.17.284.3 0 .571-.041.813-.125.242-.087.453-.214.631-.381.178-.166.312-.373.403-.619l1.921.216a3.003 3.003 0 01-.694 1.33 3.388 3.388 0 01-1.295.875c-.527.204-1.129.306-1.807.306zm-128.63 25.103v-12h2.023v1.443h.12c.106-.212.255-.438.449-.676.193-.243.454-.449.784-.62.33-.174.75-.261 1.261-.261.674 0 1.282.172 1.824.517.546.341.977.847 1.296 1.517.322.667.483 1.485.483 2.455 0 .958-.158 1.772-.472 2.443-.315.67-.743 1.182-1.284 1.534a3.304 3.304 0 01-1.841.528c-.5 0-.915-.083-1.245-.25a2.518 2.518 0 01-.795-.602 3.913 3.913 0 01-.46-.676h-.085v4.648h-2.057zm2.018-7.637c0 .565.08 1.059.238 1.483.163.425.396.756.7.995.306.234.677.352 1.113.352.454 0 .835-.121 1.142-.364.307-.246.538-.581.693-1.005.16-.428.239-.915.239-1.461a4.16 4.16 0 00-.233-1.443c-.155-.42-.387-.75-.693-.988-.307-.239-.69-.358-1.148-.358-.44 0-.813.115-1.12.346-.306.231-.54.555-.698.972-.155.416-.233.907-.233 1.471zM31.057 195v-8.727h1.994v1.454h.091c.16-.504.432-.892.818-1.165.39-.276.835-.414 1.335-.414.114 0 .241.005.381.017.144.007.263.021.358.04v1.892a2.123 2.123 0 00-.415-.08 3.895 3.895 0 00-.54-.04 2.08 2.08 0 00-1.01.245c-.296.159-.53.38-.7.664-.17.284-.255.612-.255.983V195h-2.057zm9.791.17c-.852 0-1.59-.187-2.216-.562a3.822 3.822 0 01-1.454-1.574c-.341-.674-.512-1.462-.512-2.364 0-.901.17-1.691.512-2.369a3.81 3.81 0 011.454-1.579c.625-.375 1.364-.563 2.216-.563.852 0 1.59.188 2.216.563a3.773 3.773 0 011.449 1.579c.345.678.517 1.468.517 2.369 0 .902-.172 1.69-.517 2.364a3.784 3.784 0 01-1.45 1.574c-.624.375-1.363.562-2.215.562zm.011-1.647c.462 0 .849-.127 1.16-.381.31-.258.541-.602.693-1.034a4.24 4.24 0 00.233-1.443c0-.534-.078-1.017-.233-1.449-.152-.436-.383-.782-.694-1.04-.31-.257-.697-.386-1.159-.386-.473 0-.867.129-1.181.386-.311.258-.544.604-.7 1.04a4.358 4.358 0 00-.227 1.449c0 .53.076 1.011.228 1.443.155.432.388.776.699 1.034.314.254.708.381 1.181.381zm10.274-7.25v1.591h-5.017v-1.591h5.017zm-3.778-2.091h2.057v8.193c0 .277.042.489.125.636.087.144.2.243.34.296.141.053.296.079.467.079.128 0 .246-.009.352-.028.11-.019.193-.036.25-.051l.347 1.608c-.11.038-.267.079-.472.125a3.85 3.85 0 01-.739.079 3.348 3.348 0 01-1.392-.233 2.166 2.166 0 01-.983-.806c-.238-.364-.356-.819-.352-1.364v-8.534zm9.269 10.988c-.875 0-1.631-.181-2.268-.545a3.69 3.69 0 01-1.46-1.557c-.34-.674-.511-1.468-.511-2.38 0-.898.17-1.686.511-2.364a3.868 3.868 0 011.444-1.591c.617-.383 1.342-.574 2.176-.574.538 0 1.045.087 1.522.261.481.171.906.436 1.273.796.371.36.663.818.875 1.375.212.553.318 1.212.318 1.977v.631h-7.153v-1.387h5.182a2.215 2.215 0 00-.256-1.051c-.167-.31-.4-.555-.699-.733a1.965 1.965 0 00-1.034-.267c-.42 0-.79.103-1.108.307a2.114 2.114 0 00-.744.796 2.284 2.284 0 00-.267 1.074v1.21c0 .507.093.943.278 1.307.186.359.445.636.778.829.334.189.724.284 1.171.284.3 0 .57-.041.813-.125.242-.087.452-.214.63-.381.178-.166.313-.373.404-.619l1.92.216a2.994 2.994 0 01-.693 1.33 3.388 3.388 0 01-1.296.875c-.526.204-1.128.306-1.806.306zm9.427 0c-.871 0-1.62-.191-2.244-.573a3.832 3.832 0 01-1.438-1.586c-.333-.678-.5-1.458-.5-2.341 0-.886.17-1.668.512-2.346a3.817 3.817 0 011.443-1.591c.625-.383 1.364-.574 2.216-.574.708 0 1.335.131 1.88.392.55.258.987.623 1.313 1.097.326.469.511 1.019.557 1.647h-1.966c-.08-.42-.27-.77-.568-1.051-.296-.284-.692-.426-1.188-.426-.42 0-.79.114-1.108.341-.318.224-.566.546-.744.966-.174.42-.261.924-.261 1.511 0 .595.087 1.106.26 1.534.175.425.42.752.734.983a1.87 1.87 0 001.12.341c.302 0 .573-.057.812-.17.242-.118.445-.286.608-.506.162-.22.274-.487.335-.801h1.966a3.428 3.428 0 01-.546 1.642 3.227 3.227 0 01-1.284 1.114c-.541.265-1.178.397-1.909.397zm9.786-8.897v1.591H70.82v-1.591h5.017zm-3.779-2.091h2.057v8.193c0 .277.042.489.125.636.087.144.2.243.341.296.14.053.295.079.466.079.129 0 .246-.009.352-.028.11-.019.193-.036.25-.051l.347 1.608c-.11.038-.267.079-.472.125a3.85 3.85 0 01-.739.079 3.347 3.347 0 01-1.391-.233 2.166 2.166 0 01-.984-.806c-.238-.364-.355-.819-.352-1.364v-8.534zM77.557 195v-8.727h2.057V195h-2.057zm1.034-9.966a1.2 1.2 0 01-.841-.324 1.043 1.043 0 01-.352-.79c0-.31.117-.573.352-.789.235-.22.515-.33.84-.33.33 0 .61.11.842.33.235.216.352.479.352.789 0 .307-.117.571-.352.79a1.186 1.186 0 01-.841.324zm6.945 10.136c-.853 0-1.591-.187-2.216-.562a3.822 3.822 0 01-1.455-1.574c-.34-.674-.511-1.462-.511-2.364 0-.901.17-1.691.511-2.369a3.81 3.81 0 011.455-1.579c.625-.375 1.363-.563 2.216-.563.852 0 1.59.188 2.215.563a3.773 3.773 0 011.45 1.579c.344.678.516 1.468.516 2.369 0 .902-.172 1.69-.517 2.364a3.784 3.784 0 01-1.449 1.574c-.625.375-1.363.562-2.216.562zm.01-1.647c.463 0 .85-.127 1.16-.381.31-.258.542-.602.693-1.034a4.24 4.24 0 00.233-1.443c0-.534-.078-1.017-.233-1.449-.151-.436-.382-.782-.693-1.04-.31-.257-.697-.386-1.16-.386-.473 0-.867.129-1.18.386-.311.258-.544.604-.7 1.04a4.358 4.358 0 00-.227 1.449c0 .53.076 1.011.227 1.443.156.432.389.776.7 1.034.314.254.707.381 1.18.381zm7.974-3.637V195h-2.057v-8.727h1.966v1.483h.102c.201-.489.521-.877.96-1.165.444-.288.991-.432 1.642-.432.603 0 1.127.129 1.574.386.451.258.8.631 1.046 1.12.25.488.373 1.081.37 1.778V195h-2.058v-5.239c0-.583-.151-1.039-.454-1.369-.3-.33-.714-.494-1.245-.494-.36 0-.68.079-.96.238a1.661 1.661 0 00-.653.676c-.156.296-.233.654-.233 1.074z" fill="#141731"/></svg>