<svg width="60" height="60" fill="none" xmlns="http://www.w3.org/2000/svg"><rect width="60" height="60" rx="10" fill="#FE7E47" fill-opacity=".3"/><path d="M28.267 13.434L19.1 16.868c-1.75.666-3.183 2.733-3.183 4.616v13.5c0 1.35.883 3.134 1.966 3.934l9.167 6.85c1.617 1.216 4.267 1.216 5.883 0l9.167-6.85c1.083-.817 1.967-2.584 1.967-3.934v-13.5c0-1.866-1.434-3.95-3.184-4.6l-9.166-3.433c-.934-.367-2.5-.367-3.45-.017z" fill="#FE7E47"/><path d="M27.767 33.715c-.317 0-.634-.116-.884-.366L24.2 30.665a1.257 1.257 0 010-1.766 1.257 1.257 0 011.767 0l1.8 1.8 6.283-6.284a1.258 1.258 0 011.767 0 1.258 1.258 0 010 1.767l-7.167 7.167c-.25.25-.567.366-.883.366z" fill="#141731"/></svg>