<svg width="198" height="148" fill="none" xmlns="http://www.w3.org/2000/svg"><g filter="url(#filter0_d_276_12339)"><rect x="118.47" y="127.67" width="16.5" height="9.9" rx="4.95" fill="#FE7E47"/></g><path d="M26.243 46.397C12.375 46.397 0 57.107 0 57.107v63.961h198v-88.29s-6.435-7.528-16.611-9.966c-18.341-4.394-20.901 27.684-37.014 27.684-11.835 0-12.653-20.044-28.433-21.87-15.78-1.828-22.899 44.2-48.338 43.682-19.057-.389-30.644-25.91-41.361-25.91z" fill="url(#paint0_linear_276_12339)"/><path d="M.33 56.97s12.045-10.613 25.913-10.613c11.542 0 22.305 25.48 41.361 25.868 25.44.518 32.558-45.434 48.338-43.61 15.78 1.824 16.598 21.834 28.433 21.834 16.113 0 18.673-32.024 37.014-27.638 10.176 2.434 16.611 9.95 16.611 9.95" stroke="#FE7E47" stroke-width="1.65" stroke-linecap="round"/><path opacity=".3" d="M113.52 7.22a6.6 6.6 0 016.6-6.6h13.2a6.6 6.6 0 016.6 6.6v113.849h-26.4V7.219z" fill="url(#paint1_linear_276_12339)"/><g filter="url(#filter1_d_276_12339)"><circle cx="126.72" cy="33.289" r="8.25" fill="#FE7E47"/><circle cx="126.72" cy="33.289" r="7.26" stroke="#fff" stroke-width="1.98"/></g><path opacity=".5" d="M13.938 133.593h.425c.003.116.042.21.118.282a.416.416 0 00.298.109c.142 0 .25-.042.325-.124.076-.084.114-.206.114-.365v-1.977h.433v1.978c0 .276-.077.491-.23.644-.153.154-.366.23-.638.23-.251 0-.455-.071-.611-.214a.728.728 0 01-.234-.563zm2.894.42c.148 0 .27-.045.37-.134a.43.43 0 00.15-.332v-.161l-.5.031a.528.528 0 00-.29.093.25.25 0 00-.1.209c0 .089.033.16.1.214a.43.43 0 00.27.08zm-.116.33a.702.702 0 01-.489-.17.57.57 0 01-.187-.443c0-.177.066-.319.197-.423.132-.106.318-.165.559-.178l.557-.033v-.156a.333.333 0 00-.109-.265.432.432 0 00-.3-.097.49.49 0 00-.29.079.347.347 0 00-.139.219h-.394a.609.609 0 01.244-.46c.15-.119.349-.178.595-.178s.442.06.588.181a.6.6 0 01.22.488v1.402h-.4v-.335h-.01a.65.65 0 01-.264.269.748.748 0 01-.378.1zm1.458-.034v-2.035h.399v.341h.01a.638.638 0 01.247-.277.75.75 0 01.393-.098c.223 0 .396.067.52.201.123.133.185.316.185.551v1.317h-.42v-1.236c0-.155-.036-.272-.11-.352-.072-.081-.18-.122-.322-.122a.456.456 0 00-.352.143.543.543 0 00-.132.381v1.186h-.418z" fill="#6E7E90"/><path d="M126.101 134.309h-.448v-1.98h-.014l-.806 1.956h-.341l-.806-1.956h-.013v1.98h-.451v-2.791h.578l.855 2.106h.015l.855-2.106h.576v2.791zm1.143-.331a.515.515 0 00.348-.122.39.39 0 00.143-.307v-.157l-.474.029a.486.486 0 00-.27.087.233.233 0 00-.095.195c0 .084.031.151.095.201a.407.407 0 00.253.074zm-.145.363a.712.712 0 01-.493-.172.57.57 0 01-.192-.446c0-.182.067-.326.202-.431.135-.106.328-.167.578-.182l.541-.031v-.147a.316.316 0 00-.102-.25.412.412 0 00-.281-.089.465.465 0 00-.274.076.309.309 0 00-.13.205h-.447a.619.619 0 01.25-.474c.157-.122.364-.184.621-.184.253 0 .457.062.609.186.153.124.23.289.23.495v1.412h-.464v-.327h-.01a.653.653 0 01-.263.263.77.77 0 01-.375.096zm1.721.729c-.105 0-.168-.002-.19-.007v-.381a.786.786 0 00.14.008.385.385 0 00.232-.062.375.375 0 00.123-.203l.014-.056a.23.23 0 00.013-.058l-.729-2.052h.526l.484 1.64h.007l.484-1.64h.506l-.74 2.131c-.088.254-.196.43-.325.53-.129.1-.311.15-.545.15z" fill="#F5F5F5"/><path opacity=".5" d="M41.38 134.309h-.433v-2.791h1.742v.374H41.38v.883h1.199v.366H41.38v1.168zm2.771-1.588a.463.463 0 00-.354-.147.479.479 0 00-.36.149.581.581 0 00-.158.381h1.017a.568.568 0 00-.145-.383zm.143.99h.396a.684.684 0 01-.286.458.965.965 0 01-.59.178c-.297 0-.532-.093-.703-.28-.17-.188-.255-.444-.255-.766 0-.319.084-.577.255-.771.171-.195.4-.292.686-.292.281 0 .504.092.67.276.164.183.247.429.247.739v.143h-1.437v.025c0 .178.05.32.149.427.1.107.232.161.398.161a.545.545 0 00.302-.081.394.394 0 00.168-.217zm1.827.632a.743.743 0 01-.388-.1.713.713 0 01-.265-.281h-.008v.347h-.406v-2.791h.418v1.103h.01a.691.691 0 01.641-.379c.257 0 .462.094.615.284.155.189.232.445.232.766 0 .322-.077.578-.23.767a.753.753 0 01-.619.284zm-.112-1.75c-.16 0-.29.065-.39.194-.1.127-.15.296-.15.505 0 .21.05.379.15.506.1.128.23.192.39.192a.463.463 0 00.389-.188c.095-.125.143-.295.143-.51 0-.214-.048-.384-.143-.509a.462.462 0 00-.389-.19zm25.528 1.716h-.396v-2.054h-.014l-.841 2.032h-.32l-.844-2.032h-.013v2.054h-.395v-2.791h.5l.904 2.203h.015l.901-2.203h.503v2.791zm1.122-.296c.146 0 .27-.045.369-.134a.43.43 0 00.15-.332v-.161l-.5.031a.528.528 0 00-.29.093.25.25 0 00-.1.209c0 .089.033.16.1.214a.43.43 0 00.27.08zm-.117.33a.702.702 0 01-.489-.17.57.57 0 01-.187-.443c0-.177.066-.319.197-.423.132-.106.318-.165.559-.178l.557-.033v-.156a.333.333 0 00-.109-.265.432.432 0 00-.3-.097.49.49 0 00-.29.079.347.347 0 00-.139.219h-.394a.609.609 0 01.244-.46c.15-.119.349-.178.595-.178s.442.06.588.181a.6.6 0 01.22.488v1.402h-.4v-.335h-.01a.65.65 0 01-.264.269.748.748 0 01-.377.1zm1.459-.034v-2.035h.398v.347h.01a.49.49 0 01.49-.379c.039 0 .086.005.142.015v.389a.52.52 0 00-.188-.024.416.416 0 00-.319.126.486.486 0 00-.116.342v1.219H74zm77.99-.716h.425c.003.116.042.21.118.282a.416.416 0 00.298.109c.142 0 .25-.042.325-.124.076-.084.114-.206.114-.365v-1.977h.433v1.978c0 .276-.077.491-.23.644-.154.154-.366.23-.638.23-.252 0-.455-.071-.611-.214a.728.728 0 01-.234-.563zm3.927-1.319v2.035h-.4v-.345h-.01c-.117.254-.328.381-.63.381-.222 0-.397-.067-.524-.201-.127-.135-.19-.319-.19-.553v-1.317h.418v1.236c0 .156.036.275.11.356.073.08.182.12.325.12a.457.457 0 00.354-.143.551.551 0 00.129-.383v-1.186h.418zm.414 2.035v-2.035h.398v.341h.01a.634.634 0 01.247-.277.749.749 0 01.393-.098c.223 0 .396.067.52.201.123.133.185.316.185.551v1.317h-.419v-1.236c0-.155-.037-.272-.11-.352-.073-.081-.18-.122-.323-.122a.455.455 0 00-.352.143.542.542 0 00-.132.381v1.186h-.417zm-58.153 0l-.255-.755H96.86l-.255.755h-.45l1.007-2.791h.468l1.007 2.791h-.458zm-.793-2.327l-.415 1.224h.843l-.416-1.224h-.012zm2.568.26c.259 0 .467.094.623.284.156.189.234.445.234.766 0 .32-.078.576-.232.767a.756.756 0 01-.617.284.744.744 0 01-.385-.098.663.663 0 01-.255-.271h-.01v1.007h-.418v-2.707h.404v.35h.008a.685.685 0 01.261-.28.737.737 0 01.387-.102zm-.11 1.748a.469.469 0 00.392-.188c.097-.126.145-.296.145-.51 0-.213-.048-.383-.145-.509a.468.468 0 00-.392-.19.464.464 0 00-.387.192c-.098.128-.147.296-.147.507 0 .211.049.38.145.508a.47.47 0 00.389.19zm1.29.319v-2.035h.398v.347h.01a.517.517 0 01.179-.279c.087-.067.19-.1.31-.1.04 0 .087.005.143.015v.389a.525.525 0 00-.188-.024.416.416 0 00-.319.126.487.487 0 00-.116.342v1.219h-.417zm77.904-.716h.426c.002.116.042.21.118.282a.415.415 0 00.298.109c.141 0 .25-.042.324-.124.076-.084.115-.206.115-.365v-1.977h.433v1.978c0 .276-.077.491-.23.644-.154.154-.367.23-.639.23-.251 0-.455-.071-.611-.214a.728.728 0 01-.234-.563zm3.928-1.319v2.035h-.401v-.345h-.009c-.118.254-.328.381-.631.381-.221 0-.396-.067-.524-.201-.126-.135-.189-.319-.189-.553v-1.317h.418v1.236c0 .156.036.275.11.356.073.08.181.12.325.12a.453.453 0 00.353-.143.547.547 0 00.13-.383v-1.186h.418zm.429 2.035v-2.791h.418v2.791h-.418z" fill="#6E7E90"/><path opacity=".1" d="M0 121.068h198" stroke="#6E7E90" stroke-width=".33"/><defs><linearGradient id="paint0_linear_276_12339" x1="99" y1="22.398" x2="99" y2="121.068" gradientUnits="userSpaceOnUse"><stop stop-color="#FE7E47" stop-opacity=".3"/><stop offset="1" stop-color="#FE7E47" stop-opacity="0"/></linearGradient><linearGradient id="paint1_linear_276_12339" x1="126.72" y1=".619" x2="126.72" y2="121.069" gradientUnits="userSpaceOnUse"><stop stop-color="#FE7E47" stop-opacity=".15"/><stop offset="1" stop-color="#FE7E47"/></linearGradient><filter id="filter0_d_276_12339" x="110.22" y="121.07" width="33" height="26.4" filterUnits="userSpaceOnUse" color-interpolation-filters="sRGB"><feFlood flood-opacity="0" result="BackgroundImageFix"/><feColorMatrix in="SourceAlpha" values="0 0 0 0 0 0 0 0 0 0 0 0 0 0 0 0 0 0 127 0" result="hardAlpha"/><feOffset dy="1.65"/><feGaussianBlur stdDeviation="4.125"/><feColorMatrix values="0 0 0 0 0 0 0 0 0 0 0 0 0 0 0 0 0 0 0.1 0"/><feBlend in2="BackgroundImageFix" result="effect1_dropShadow_276_12339"/><feBlend in="SourceGraphic" in2="effect1_dropShadow_276_12339" result="shape"/></filter><filter id="filter1_d_276_12339" x="110.22" y="18.439" width="33" height="33" filterUnits="userSpaceOnUse" color-interpolation-filters="sRGB"><feFlood flood-opacity="0" result="BackgroundImageFix"/><feColorMatrix in="SourceAlpha" values="0 0 0 0 0 0 0 0 0 0 0 0 0 0 0 0 0 0 127 0" result="hardAlpha"/><feOffset dy="1.65"/><feGaussianBlur stdDeviation="4.125"/><feColorMatrix values="0 0 0 0 0 0 0 0 0 0 0 0 0 0 0 0 0 0 0.1 0"/><feBlend in2="BackgroundImageFix" result="effect1_dropShadow_276_12339"/><feBlend in="SourceGraphic" in2="effect1_dropShadow_276_12339" result="shape"/></filter></defs></svg>