<svg width="190" height="25" fill="none" xmlns="http://www.w3.org/2000/svg"><g opacity=".5" clip-path="url(#clip0_27_2412)" fill="#6E7E90"><path d="M51.581 13.073c-3.292 0-4.929 2.412-4.929 5.668 0 3.39 1.573 5.758 4.93 5.758 3.358 0 4.926-2.368 4.926-5.758 0-3.256-1.635-5.668-4.927-5.668zm0 9.21c-.875 0-1.264-.783-1.264-3.543 0-2.52.26-3.453 1.264-3.453 1.003 0 1.263.933 1.263 3.454 0 2.762-.391 3.542-1.263 3.542zm7.204-10.14v1.218h-1.44v2.478h1.44v8.424h3.532V15.84h1.923v-2.478h-1.923v-1.106c0-.662.336-1.025 1.266-1.025.196 0 .457.043.656.088V8.627c-.57-.066-1.094-.132-1.79-.132-2.332 0-3.664.977-3.664 3.649zm-37.661 4.28c0-2.41-2.2-3.32-4.32-3.32-2.003 0-3.967.867-4.358 3.017l3.072.631c.039-.638.31-1.432 1.158-1.432.61 0 .914.432.914 1.083v.937c-2.334.27-5.55 1.108-5.627 3.946-.055 2.004 1.288 3.19 3.049 3.19 1.042 0 2.085-.573 2.687-1.206.022.181.045.696.111.997h3.642c-.133-.149-.33-.521-.33-1.76l.002-6.082zm-3.533 5.064c-.3.394-.731.677-1.133.677-.634 0-1.025-.396-1.025-1.156 0-1.391.923-1.859 2.157-1.977l.001 2.456zm12.196-8.385c-1.378 0-2.35.635-3.078 1.374h-.046l-.018-1.115h-3.457v10.903h3.533v-7.797c.322-.412.752-.678 1.149-.678.59 0 .814.345.814.967v7.506h3.533V15.64c0-1.495-.883-2.537-2.43-2.537zm14.313.258h-3.513l-2.599 3.295h-.043V8.8h-3.534v15.464h3.534v-3.905l.743-.85h.043l1.722 4.755h3.664l-2.972-7.546L44.1 13.36zM8.198 16.22v-.12c1.125-.438 2.533-1.502 2.533-3.523 0-2.136-1.808-3.779-4.558-3.779H.036v15.466h5.98c2.948 0 5.084-1.49 5.084-4.137 0-1.982-1.22-3.355-2.902-3.907zM3.85 11.536h1.374c.892 0 1.89.239 1.89 1.715 0 .914-.56 1.673-1.979 1.673H3.85v-3.388zm1.44 9.862H3.85v-3.867h1.44c1.264 0 1.979.76 1.979 1.912 0 1.584-1.131 1.955-1.98 1.955zm134.077 1.109v-6.083c0-2.41-2.198-3.32-4.316-3.32-2.005 0-3.97.866-4.362 3.016l3.076.631c.036-.638.306-1.432 1.157-1.432.606 0 .915.432.915 1.083v.937c-2.337.27-5.556 1.108-5.632 3.946-.054 2.004 1.287 3.19 3.051 3.19 1.042 0 2.083-.573 2.69-1.206.018.181.043.696.107.997h3.64c-.128-.15-.326-.521-.326-1.76zm-3.528-1.02c-.306.394-.735.677-1.136.677-.634 0-1.026-.396-1.026-1.156 0-1.391.924-1.859 2.16-1.977l.002 2.456zm-34.985-8.414c-3.25 0-4.866 2.607-4.866 5.692 0 3.019 1.527 5.735 4.907 5.735a4.528 4.528 0 002.679-.779 4.5 4.5 0 001.707-2.198l-2.381-.87c-.176.878-.895 1.497-1.748 1.497-1.421 0-1.68-1.611-1.632-2.582h5.912v-.74c0-2.844-1.176-5.755-4.578-5.755zm1.307 4.407h-2.64c-.054-1.026.306-2.192 1.31-2.192 1.22 0 1.364 1.182 1.33 2.192zm12.798-4.119h3.531v10.903h-3.531V13.361zm0-4.563h3.531v3.128h-3.531V8.798zm10.171 6.49c.569 0 .85.305 1.024.737.155.414.175.935.175 1.37h3.012c0-1.085-.568-4.32-4.316-4.32-3.336 0-4.992 2.976-4.992 5.95 0 2.693 1.654 5.476 4.839 5.476 2.574 0 4.1-1.39 4.363-4.04l-2.748-.392c0 .826-.109 2.082-1.354 2.082-.913 0-1.306-.8-1.306-3.257-.006-2.172.127-3.606 1.303-3.606zM70.38 8.8l-3.641 15.465h3.4l.678-3.126h3.598l.611 3.126h3.816L75.525 8.8H70.38zm.983 9.601l1.311-6.3h.079l1.116 6.3h-2.506zm39.037-3.563h-.059l-.036-1.477h-3.418v10.903h3.536v-7.06c.414-.492 1.035-.844 1.937-.844.609 0 1.039.147 1.441.3v-3.558c-1.363 0-2.681.584-3.401 1.736zm-18.41-1.735c-1.48 0-2.535.793-3.153 1.458h-.045c-.334-.841-1.05-1.458-2.124-1.458-1.317 0-2.424.677-3.163 1.37h-.044l-.02-1.11h-3.447v10.903h3.466V16.49c.298-.402.829-.672 1.2-.672.655 0 .829.39.829.978v7.47h3.468V16.49c.23-.301.734-.672 1.208-.672.642 0 .822.39.822.978v7.47h3.465v-8.692c0-1.506-.994-2.471-2.463-2.471zm69.094-6.752a79.14 79.14 0 014.154 1.773 92.177 92.177 0 00-12.573 6.235 78.85 78.85 0 00-4.135-2.008 87.255 87.255 0 0112.554-6zm-5.183-1.824a72.06 72.06 0 00-12.999 5.556 80.81 80.81 0 013.904 1.518 74.28 74.28 0 0112.613-5.88 79.348 79.348 0 00-3.518-1.194zm14.624 1.647a76.865 76.865 0 00-11.032-4.303c-1.334.383-2.657.8-3.966 1.254a76.892 76.892 0 0111.356 4.354 88.501 88.501 0 013.642-1.305zm5.795-1.72A83.55 83.55 0 00165.086.5a79.531 79.531 0 00-3.647.842A76.71 76.71 0 01172.54 5.53a90.688 90.688 0 013.78-1.077zm9.305 3.113a98.17 98.17 0 00-25.389 12.882 91.871 91.871 0 015.653 3.758 102.936 102.936 0 0124.076-14.192 86.025 86.025 0 00-4.34-2.448zm-6.27-2.968a89.151 89.151 0 00-26.429 11.836 87.412 87.412 0 015.329 2.843A92.295 92.295 0 01184.191 6.83a84.73 84.73 0 00-4.836-2.231zm-10.491 18.635c0-.543.459-.986 1.024-.986.564 0 1.023.443 1.023.986 0 .554-.459.996-1.023.996a1.008 1.008 0 01-1.024-.996zm.193 0c0 .453.37.801.831.801.456 0 .826-.348.826-.8 0-.438-.369-.79-.826-.79-.46 0-.831.352-.831.79z"/><path d="M170.397 23.791h-.191l-.329-.51h-.202v.51h-.168v-1.107h.498a.564.564 0 01.282.055.284.284 0 01.126.24c0 .216-.159.297-.361.303l.345.51zm-.532-.646c.159 0 .378.027.378-.17 0-.145-.127-.164-.271-.164h-.294v.332l.187.002z"/></g><defs><clipPath id="clip0_27_2412"><path fill="#fff" transform="translate(0 .5)" d="M0 0h190v24H0z"/></clipPath></defs></svg>