<svg width="95" height="29" fill="none" xmlns="http://www.w3.org/2000/svg"><g opacity=".5" fill="#6E7E90"><path d="M21.327 7.114v8.974a.553.553 0 01-.158.388.537.537 0 01-.382.16h-2.791a.536.536 0 01-.383-.16.553.553 0 01-.158-.388V1.491c0-.145.057-.285.158-.387a.536.536 0 01.383-.161h2.583a.54.54 0 01.382.16.553.553 0 01.158.388v2.056S22.043.615 24.783.615c0 0 2.71-.333 3.813 2.72 0 0 .923-2.72 3.723-2.72 0 0 4.164-.251 4.164 4.121l.032 2.408v8.974a.553.553 0 01-.159.388.536.536 0 01-.382.16h-2.791a.536.536 0 01-.382-.16.553.553 0 01-.159-.388l-.025-9.79c.08-2.217-1.688-2.055-1.688-2.055-2.224.04-2.01 2.871-2.01 2.871v8.974a.553.553 0 01-.159.388.536.536 0 01-.382.16h-2.791a.536.536 0 01-.382-.16.553.553 0 01-.158-.388V6.55s.163-2.298-1.823-2.298c0 0-1.966-.262-1.897 2.862zm71.956-.027v8.974a.553.553 0 01-.159.388.536.536 0 01-.382.16l-2.903.057a.537.537 0 01-.382-.16.553.553 0 01-.158-.388V6.55s.163-2.298-1.823-2.298c0 0-1.897-.095-1.897 3.508v8.328a.553.553 0 01-.158.388.537.537 0 01-.382.16h-2.792a.537.537 0 01-.382-.16.554.554 0 01-.158-.388V1.49c0-.145.057-.284.158-.387a.537.537 0 01.382-.161h2.584a.54.54 0 01.382.16.552.552 0 01.158.388v2.056S86.294.615 89.035.615c0 0 2.935-.452 3.924 2.664 0 0 .324.642.324 3.808zM73.127.554c-3.57 0-6.463 3.053-6.463 8.192 0 4.525 2.234 8.193 6.463 8.193 3.992 0 6.464-3.668 6.464-8.193 0-5.048-2.894-8.192-6.464-8.192zm2.254 8.374c0 1.934-.239 2.962-.239 2.962-.339 2.045-1.802 2.048-2.017 2.037-.233.01-1.709-.011-2.014-2.037 0 0-.238-1.027-.238-2.962v-.323c0-1.934.238-2.962.238-2.962.305-2.025 1.781-2.047 2.013-2.037.216-.011 1.68-.009 2.018 2.037 0 0 .239 1.028.239 2.962v.323zM65.043 3.527V1.432a.553.553 0 00-.158-.387.537.537 0 00-.382-.161h-9.227a.537.537 0 00-.382.16.553.553 0 00-.158.388V3.51c0 .146.057.285.158.388a.54.54 0 00.382.161h4.813l-5.697 8.387s-.224.34-.217.715v2.552s-.037.874.94.367c0 0 1.737-1.065 4.648-1.065 0 0 2.875-.036 4.792 1.156 0 0 .795.367.795-.44v-2.22s.073-.588-.687-.955c0 0-2.206-1.23-5.1-1.028l5.48-8.001zM15.3 14.027l-.873-1.35c-.278-.505-.258-1.07-.258-1.07V5.382C14.288 0 8.409.464 8.409.464 3.185.464 2.413 4.59 2.413 4.59c-.217.83.416.85.416.85l2.553.262s.436.101.594-.425c0 0 .336-1.8 2.217-1.8 2.046 0 2.025 1.782 2.025 1.782v1.492C6.132 6.89 4.239 8.04 4.239 8.04c-2.521 1.451-2.363 4.333-2.363 4.333 0 4.695 4.409 4.494 4.409 4.494 2.82 0 4.488-2.096 4.488-2.096.496.887 1.41 1.733 1.41 1.733.457.503.933.08.933.08l2.065-1.793c.457-.343.12-.766.12-.766zm-7.64-.059c-1.325 0-1.818-1.338-1.598-2.652.22-1.315 1.365-2.348 4.155-2.318v.8c.099 3.491-1.452 4.17-2.556 4.17zm44.736.058l-.874-1.35c-.278-.504-.258-1.068-.258-1.068V5.38C51.383 0 45.504.464 45.504.464c-5.225 0-5.997 4.127-5.997 4.127-.218.83.416.85.416.85l2.553.262s.436.101.594-.425c0 0 .336-1.8 2.217-1.8 2.046 0 2.025 1.782 2.025 1.782v1.492c-4.085.138-5.978 1.289-5.978 1.289-2.522 1.451-2.363 4.333-2.363 4.333 0 4.695 4.409 4.494 4.409 4.494 2.82 0 4.488-2.096 4.488-2.096.496.887 1.41 1.733 1.41 1.733.456.503.933.08.933.08l2.065-1.793c.457-.343.12-.766.12-.766zm-7.64-.058c-1.327 0-1.82-1.338-1.6-2.652.221-1.315 1.366-2.348 4.156-2.318v.8c.099 3.491-1.452 4.17-2.556 4.17zm14.668 11.845s-.233.412.053.504c0 0 .325.128.729-.252 0 0 2.947-2.613 3.018-7.37 0 0 .022-.595-.213-.757 0 0-.923-.83-4.244-.577 0 0-2.894.198-4.474 1.622 0 0-.142.126-.142.288 0 0-.035.35.834.198 0 0 2.894-.414 4.617-.198 0 0 .888.108 1.136.415 0 0 .409.342.196 1.477 0 0-.587 2.884-1.51 4.65z"/><path d="M58.84 21.248s.433.569-.265 1.059c0 0-7.45 6.048-19.961 6.048 0 0-12.878.645-23.631-9.27 0 0-.378-.336-.144-.648 0 0 .21-.288.751.025 0 0 10.116 6.397 23.401 6.397 0 0 9.234.362 18.706-3.749 0 0 .755-.397 1.144.139z"/></g></svg>