<svg width="127" height="27" fill="none" xmlns="http://www.w3.org/2000/svg"><g opacity=".5" clip-path="url(#clip0_27_2416)" fill="#6E7E90"><path d="M126.5 12.215V9.992h-2.752V6.536l-.092.029-2.585.793-.051.016v2.618h-4.079V8.533c0-.679.151-1.199.449-1.545.297-.343.72-.517 1.261-.517.389 0 .791.092 1.196.273l.101.045V4.45l-.047-.018c-.378-.137-.892-.205-1.529-.205-.802 0-1.532.175-2.168.522a3.708 3.708 0 00-1.487 1.476c-.35.63-.527 1.358-.527 2.164v1.604h-1.916v2.223h1.916v9.365h2.751v-9.365h4.079v5.951c0 2.451 1.152 3.694 3.425 3.694.374 0 .767-.044 1.168-.13.409-.089.687-.177.851-.27l.036-.022v-2.244l-.112.074c-.149.1-.335.182-.553.242a2.096 2.096 0 01-.543.093c-.533 0-.927-.144-1.171-.428-.247-.287-.373-.788-.373-1.489v-5.471h2.752zm-20.369 7.388c-.998 0-1.785-.332-2.34-.986-.558-.658-.841-1.595-.841-2.786 0-1.229.283-2.19.841-2.86.555-.664 1.335-1.002 2.318-1.002.954 0 1.713.323 2.257.959.546.639.824 1.593.824 2.836 0 1.258-.261 2.225-.776 2.872-.51.641-1.279.967-2.283.967zm.123-9.89c-1.905 0-3.418.56-4.497 1.664-1.078 1.104-1.624 2.633-1.624 4.543 0 1.814.533 3.274 1.586 4.337 1.052 1.064 2.484 1.602 4.256 1.602 1.846 0 3.329-.567 4.407-1.687 1.078-1.118 1.625-2.632 1.625-4.498 0-1.843-.513-3.313-1.524-4.369-1.012-1.057-2.435-1.592-4.229-1.592zm-10.556 0c-1.296 0-2.367.332-3.186.988-.824.66-1.242 1.524-1.242 2.57 0 .545.09 1.028.268 1.438.178.411.455.773.822 1.077.364.301.927.617 1.672.938.626.259 1.094.478 1.39.65.29.17.496.339.612.504.113.162.17.384.17.657 0 .779-.58 1.158-1.776 1.158-.444 0-.95-.093-1.504-.276a5.64 5.64 0 01-1.54-.784l-.114-.082v2.657l.042.02c.39.18.88.332 1.458.451.577.12 1.102.18 1.558.18 1.406 0 2.538-.333 3.364-.993.831-.664 1.253-1.549 1.253-2.632 0-.78-.227-1.45-.674-1.99-.444-.537-1.215-1.029-2.29-1.463-.856-.345-1.405-.632-1.631-.851-.218-.213-.33-.513-.33-.893 0-.337.138-.607.418-.826.283-.22.677-.331 1.17-.331.46 0 .928.073 1.394.215a4.47 4.47 0 011.217.566l.113.077v-2.52l-.043-.019c-.316-.135-.731-.251-1.236-.345a7.521 7.521 0 00-1.355-.141zM84.1 19.603c-.999 0-1.786-.332-2.34-.986-.559-.658-.841-1.595-.841-2.786 0-1.229.282-2.19.841-2.86.555-.664 1.334-1.002 2.317-1.002.954 0 1.713.323 2.257.959.547.639.824 1.593.824 2.836 0 1.258-.261 2.225-.775 2.872-.511.641-1.279.967-2.283.967zm.122-9.89c-1.905 0-3.418.56-4.496 1.664-1.078 1.104-1.625 2.633-1.625 4.543 0 1.815.534 3.274 1.586 4.337 1.053 1.064 2.485 1.602 4.257 1.602 1.846 0 3.329-.567 4.407-1.687 1.078-1.118 1.624-2.632 1.624-4.498 0-1.843-.512-3.313-1.524-4.369-1.012-1.057-2.435-1.592-4.229-1.592zm-10.296 2.286V9.992h-2.718V21.58h2.718v-5.928c0-1.008.227-1.836.677-2.461.444-.618 1.035-.931 1.757-.931.245 0 .52.04.817.12.295.08.508.166.634.257l.114.083V9.972l-.044-.019c-.253-.108-.611-.162-1.064-.162a2.78 2.78 0 00-1.817.653c-.46.381-.792.904-1.046 1.555h-.028zm-7.583-2.286c-1.247 0-2.359.268-3.304.797a5.36 5.36 0 00-2.18 2.248c-.496.96-.748 2.08-.748 3.33 0 1.095.244 2.1.727 2.985a5.12 5.12 0 002.033 2.062c.865.481 1.864.725 2.971.725 1.291 0 2.394-.26 3.278-.77l.035-.02v-2.498l-.114.084a5.1 5.1 0 01-1.33.694c-.48.168-.917.253-1.301.253-1.066 0-1.922-.334-2.543-.994-.623-.66-.939-1.589-.939-2.756 0-1.175.33-2.126.978-2.828.647-.7 1.505-1.056 2.549-1.056.893 0 1.763.304 2.586.903l.114.083v-2.631l-.037-.021c-.31-.174-.732-.318-1.256-.427a7.486 7.486 0 00-1.52-.163zm-8.104.28h-2.717V21.58h2.718V9.992zm-1.33-4.937c-.447 0-.837.152-1.158.455a1.505 1.505 0 00-.485 1.137c0 .443.161.819.48 1.114a1.65 1.65 0 001.163.444c.455 0 .847-.15 1.168-.444.322-.295.486-.67.486-1.114 0-.436-.16-.814-.473-1.125-.313-.31-.71-.467-1.181-.467zm-6.78 4.081V21.58h2.773V5.41h-3.837l-4.879 12.01-4.734-12.01h-3.994v16.17h2.606V9.136h.09l4.998 12.444h1.967l4.92-12.443h.09zM13.282 12.83H.5V.007h12.782V12.83zm14.113 0H14.613V.007h12.782V12.83zM13.282 26.993H.5V14.17h12.782v12.823zm14.113 0H14.613V14.17h12.782v12.823z"/></g><defs><clipPath id="clip0_27_2416"><path fill="#fff" transform="translate(.5)" d="M0 0h126v27H0z"/></clipPath></defs></svg>