<svg width="111" height="30" fill="none" xmlns="http://www.w3.org/2000/svg"><g opacity=".5" clip-path="url(#clip0_27_2394)"><path d="M104.856 14.281l5.927 15.69c-1.747-.25-3.492-.562-5.27-.844l-3.338-8.669-3.43 7.954c-1.684-.282-3.338-.376-5.022-.594l6.02-13.723L94.283.029h5.053l3.056 7.859 3.276-7.859h5.114l-5.926 14.252zM90.293.03h-4.585v27.197c1.497.094 3.056.156 4.585.342V.03zm-8.546 26.885c-4.179-.28-8.359-.53-12.631-.624V.03h4.677v21.83c2.683.062 5.365.28 7.954.405v4.648zm-17.623-16.25v4.678h-6.393v10.635h-4.615V.03h13.1v4.678h-8.484v5.958h6.393zM45.255 4.707v21.52c-1.56 0-3.15 0-4.678.063V4.707h-4.835V.03H50.12v4.678h-4.865zM30.69 15.592c-2.058 0-4.491 0-6.238.095v6.954c2.745-.188 5.49-.405 8.265-.499v4.491l-12.943 1.03V.03h12.942v4.678h-8.264v6.3c1.81 0 4.585-.093 6.238-.093v4.679-.001zm-25.92-2.62v16.343c-1.682.188-3.18.406-4.77.656V.029h4.46l6.081 17v-17h4.68v28.007c-1.653.282-3.338.376-5.116.624L4.771 12.972z" fill="#6E7E90"/></g><defs><clipPath id="clip0_27_2394"><path fill="#fff" d="M0 0h110.783v30H0z"/></clipPath></defs></svg>