<svg width="170" height="22" fill="none" xmlns="http://www.w3.org/2000/svg"><g opacity=".5" clip-path="url(#clip0_27_2396)" fill="#6E7E90"><path d="M144.772 8.73v13.257h4.245V13.15h15.523v8.838h4.245V8.73h-24.013zm3.76-4.298h16.372c2.304-.424 3.942-2.482 4.427-4.42h-25.226c.485 1.938 2.183 3.936 4.427 4.42zm-16.676 17.555c2.122-.908 3.275-2.482 3.76-4.298h-19.101V.073h-4.306v21.914h19.647zM80.374 4.371h15.16c2.304-.665 4.184-2.42 4.669-4.298H76.19v12.955h19.647v4.54H80.434c-2.425.666-4.487 2.3-5.518 4.42h25.165V8.73H80.434l-.06-4.359zm-37.353.061h16.372c2.304-.424 4.002-2.482 4.426-4.42H38.533c.485 1.938 2.183 3.936 4.487 4.42zm0 8.656h16.372c2.304-.423 4.002-2.481 4.426-4.419H38.533c.485 1.938 2.183 3.935 4.487 4.42zm0 8.9h16.372c2.304-.424 4.002-2.483 4.426-4.42H38.533c.485 1.937 2.183 3.995 4.487 4.42zM.391.073c.485 1.938 2.183 3.875 4.427 4.359h6.913l.364.121v17.374H16.4V4.553l.364-.121h6.913c2.304-.605 3.941-2.421 4.426-4.359v-.06L.391.073z"/></g><defs><clipPath id="clip0_27_2396"><path fill="#fff" transform="translate(.391)" d="M0 0h169v22H0z"/></clipPath></defs></svg>