<svg width="590" height="598" fill="none" xmlns="http://www.w3.org/2000/svg"><g clip-path="url(#clip0_27_2461)"><ellipse cx="288.429" cy="293.357" rx="288" ry="293.312" transform="rotate(13.477 288.429 293.357)" fill="url(#paint0_linear_27_2461)"/><path d="M580.519 371.627C542.889 528.638 387.419 625.938 233.295 589 79.171 552.062-15.304 394.859 22.325 237.849c37.63-157.01 193.1-254.311 347.224-217.373 154.125 36.938 248.599 194.141 210.97 351.151z" fill="url(#paint1_linear_27_2461)"/><path d="M580.519 371.627C542.889 528.638 387.419 625.938 233.295 589 79.171 552.062-15.304 394.859 22.325 237.849c37.63-157.01 193.1-254.311 347.224-217.373 154.125 36.938 248.599 194.141 210.97 351.151z" fill="url(#paint2_linear_27_2461)"/><path d="M580.519 371.627C542.889 528.638 387.419 625.938 233.295 589 79.171 552.062-15.304 394.859 22.325 237.849c37.63-157.01 193.1-254.311 347.224-217.373 154.125 36.938 248.599 194.141 210.97 351.151z" stroke="url(#paint3_linear_27_2461)" stroke-width="2"/><g filter="url(#filter0_d_27_2461)"><ellipse cx="213.959" cy="456.612" rx="47.907" ry="48.79" transform="rotate(13.477 213.959 456.612)" fill="url(#paint4_linear_27_2461)"/><path d="M262.545 469.631c-6.259 26.118-32.12 42.303-57.758 36.159-25.637-6.145-41.352-32.294-35.093-58.412 6.26-26.117 32.121-42.302 57.758-36.158 25.638 6.144 41.353 32.294 35.093 58.411z" fill="url(#paint5_linear_27_2461)"/><path d="M262.545 469.631c-6.259 26.118-32.12 42.303-57.758 36.159-25.637-6.145-41.352-32.294-35.093-58.412 6.26-26.117 32.121-42.302 57.758-36.158 25.638 6.144 41.353 32.294 35.093 58.411z" fill="url(#paint6_linear_27_2461)"/><path d="M262.545 469.631c-6.259 26.118-32.12 42.303-57.758 36.159-25.637-6.145-41.352-32.294-35.093-58.412 6.26-26.117 32.121-42.302 57.758-36.158 25.638 6.144 41.353 32.294 35.093 58.411z" stroke="url(#paint7_linear_27_2461)" stroke-width=".333"/></g><g filter="url(#filter1_d_27_2461)"><ellipse cx="411.812" cy="132.069" rx="18.855" ry="19.203" transform="rotate(13.477 411.812 132.069)" fill="url(#paint8_linear_27_2461)"/><path d="M430.935 137.193c-2.464 10.28-12.642 16.65-22.733 14.232-10.09-2.418-16.276-12.711-13.812-22.99 2.463-10.28 12.642-16.65 22.733-14.232 10.09 2.419 16.276 12.711 13.812 22.99z" fill="url(#paint9_linear_27_2461)"/><path d="M430.935 137.193c-2.464 10.28-12.642 16.65-22.733 14.232-10.09-2.418-16.276-12.711-13.812-22.99 2.463-10.28 12.642-16.65 22.733-14.232 10.09 2.419 16.276 12.711 13.812 22.99z" fill="url(#paint10_linear_27_2461)"/><path d="M430.935 137.193c-2.464 10.28-12.642 16.65-22.733 14.232-10.09-2.418-16.276-12.711-13.812-22.99 2.463-10.28 12.642-16.65 22.733-14.232 10.09 2.419 16.276 12.711 13.812 22.99z" stroke="url(#paint11_linear_27_2461)" stroke-width=".131"/></g><g filter="url(#filter2_d_27_2461)"><g filter="url(#filter3_iiiii_27_2461)"><circle cx="36" cy="36" r="36" transform="matrix(-1 0 0 1 546 283)" fill="url(#paint12_linear_27_2461)"/></g><mask id="a" style="mask-type:alpha" maskUnits="userSpaceOnUse" x="474" y="283" width="72" height="72"><circle cx="36" cy="36" r="36" transform="matrix(-1 0 0 1 546 283)" fill="url(#paint13_linear_27_2461)"/></mask><g mask="url(#a)"><g filter="url(#filter4_f_27_2461)"><circle cx="11.25" cy="11.25" r="11.25" transform="matrix(-1 0 0 1 532.5 289.3)" fill="#fff" fill-opacity=".3"/></g><g filter="url(#filter5_f_27_2461)"><path d="M488.157 340.33c6.365 6.465 15.115 8.172 19.542 3.813 4.427-4.359-4.8-7.44-11.165-13.905-6.366-6.465-7.459-13.866-11.887-9.507-4.427 4.36-2.856 13.134 3.51 19.599z" fill="#137BBC" fill-opacity=".7"/></g><g filter="url(#filter6_f_27_2461)"><path d="M532.643 359.606c7.874-4.507 11.755-12.532 8.669-17.925-3.086-5.392-8.418 2.745-16.293 7.251-7.874 4.507-15.309 3.678-12.222 9.07 3.086 5.393 11.971 6.11 19.846 1.604z" fill="#091615" fill-opacity=".7"/></g></g></g><g filter="url(#filter7_iiiii_27_2461)"><circle cx="55.5" cy="55.5" r="55.5" transform="matrix(-1 0 0 1 116.999 101)" fill="url(#paint14_linear_27_2461)"/></g><mask id="b" style="mask-type:alpha" maskUnits="userSpaceOnUse" x="6" y="101" width="111" height="111"><circle cx="55.5" cy="55.5" r="55.5" transform="matrix(-1 0 0 1 116.999 101)" fill="url(#paint15_linear_27_2461)"/></mask><g mask="url(#b)"><g filter="url(#filter8_f_27_2461)"><path d="M27.824 189.385c9.814 9.966 23.302 12.598 30.128 5.878 6.825-6.721-7.4-11.471-17.213-21.438-9.814-9.966-11.5-21.376-18.325-14.655-6.826 6.72-4.403 20.248 5.41 30.215z" fill="#fff" fill-opacity=".8"/></g><g filter="url(#filter9_f_27_2461)"><circle cx="17.344" cy="17.344" r="17.344" transform="matrix(-1 0 0 1 96.188 110.713)" fill="#fff" fill-opacity=".3"/></g><g filter="url(#filter10_f_27_2461)"><path d="M96.406 219.1c12.14-6.948 18.124-19.319 13.366-27.633-4.758-8.313-12.978 4.231-25.118 11.179-12.14 6.948-23.601 5.669-18.843 13.982 4.758 8.313 18.456 9.42 30.595 2.472z" fill="#091615" fill-opacity=".7"/></g></g></g><defs><linearGradient id="paint0_linear_27_2461" x1="373.394" y1="10.406" x2="60.641" y2="481.778" gradientUnits="userSpaceOnUse"><stop stop-color="#4FB4F1"/><stop offset=".095" stop-color="#3079A5"/><stop offset=".218" stop-color="#217DB5"/><stop offset=".359" stop-color="#2376A8"/><stop offset=".618" stop-color="#6DB4DE"/><stop offset=".779" stop-color="#309BDB"/><stop offset="1" stop-color="#397599"/></linearGradient><linearGradient id="paint1_linear_27_2461" x1="369.783" y1="19.503" x2="233.062" y2="589.973" gradientUnits="userSpaceOnUse"><stop stop-color="#182B2B"/><stop offset="1" stop-color="#0D1212"/></linearGradient><linearGradient id="paint2_linear_27_2461" x1="275" y1="545" x2="189.5" y2="36" gradientUnits="userSpaceOnUse"><stop stop-color="#272C85"/><stop offset="1" stop-color="#127FBE"/></linearGradient><linearGradient id="paint3_linear_27_2461" x1="415" y1="26" x2="41" y2="442" gradientUnits="userSpaceOnUse"><stop stop-color="#fff" stop-opacity="0"/><stop offset=".175" stop-color="#fff" stop-opacity=".33"/><stop offset=".35" stop-color="#fff" stop-opacity=".09"/><stop offset=".56" stop-color="#fff" stop-opacity=".82"/><stop offset=".934" stop-color="#fff" stop-opacity=".37"/><stop offset="1" stop-color="#fff" stop-opacity="0"/></linearGradient><linearGradient id="paint4_linear_27_2461" x1="228.092" y1="409.545" x2="176.068" y2="487.954" gradientUnits="userSpaceOnUse"><stop stop-color="#4FB4F1"/><stop offset=".095" stop-color="#3079A5"/><stop offset=".218" stop-color="#217DB5"/><stop offset=".359" stop-color="#2376A8"/><stop offset=".618" stop-color="#6DB4DE"/><stop offset=".779" stop-color="#309BDB"/><stop offset="1" stop-color="#397599"/></linearGradient><linearGradient id="paint5_linear_27_2461" x1="227.491" y1="411.058" x2="204.749" y2="505.951" gradientUnits="userSpaceOnUse"><stop stop-color="#182B2B"/><stop offset="1" stop-color="#0D1212"/></linearGradient><linearGradient id="paint6_linear_27_2461" x1="227.002" y1="523.588" x2="197.502" y2="413.802" gradientUnits="userSpaceOnUse"><stop stop-color="#272C85"/><stop offset="1" stop-color="#127FBE"/></linearGradient><linearGradient id="paint7_linear_27_2461" x1="235.013" y1="412.139" x2="172.801" y2="481.337" gradientUnits="userSpaceOnUse"><stop stop-color="#fff" stop-opacity="0"/><stop offset=".175" stop-color="#fff" stop-opacity=".33"/><stop offset=".35" stop-color="#fff" stop-opacity=".09"/><stop offset=".56" stop-color="#fff" stop-opacity=".82"/><stop offset=".934" stop-color="#fff" stop-opacity=".37"/><stop offset="1" stop-color="#fff" stop-opacity="0"/></linearGradient><linearGradient id="paint8_linear_27_2461" x1="417.375" y1="113.544" x2="396.898" y2="144.405" gradientUnits="userSpaceOnUse"><stop stop-color="#4FB4F1"/><stop offset=".095" stop-color="#3079A5"/><stop offset=".218" stop-color="#217DB5"/><stop offset=".359" stop-color="#2376A8"/><stop offset=".618" stop-color="#6DB4DE"/><stop offset=".779" stop-color="#309BDB"/><stop offset="1" stop-color="#397599"/></linearGradient><linearGradient id="paint9_linear_27_2461" x1="417.138" y1="114.14" x2="408.187" y2="151.489" gradientUnits="userSpaceOnUse"><stop stop-color="#182B2B"/><stop offset="1" stop-color="#0D1212"/></linearGradient><linearGradient id="paint10_linear_27_2461" x1="421.311" y1="165.883" x2="405.335" y2="115.22" gradientUnits="userSpaceOnUse"><stop stop-color="#272C85"/><stop offset="1" stop-color="#127FBE"/></linearGradient><linearGradient id="paint11_linear_27_2461" x1="420.098" y1="114.565" x2="395.612" y2="141.801" gradientUnits="userSpaceOnUse"><stop stop-color="#fff" stop-opacity="0"/><stop offset=".175" stop-color="#fff" stop-opacity=".33"/><stop offset=".35" stop-color="#fff" stop-opacity=".09"/><stop offset=".56" stop-color="#fff" stop-opacity=".82"/><stop offset=".934" stop-color="#fff" stop-opacity=".37"/><stop offset="1" stop-color="#fff" stop-opacity="0"/></linearGradient><linearGradient id="paint12_linear_27_2461" x1="57.6" y1=".9" x2="19.8" y2="72" gradientUnits="userSpaceOnUse"><stop stop-color="#252C3F"/><stop offset="1" stop-color="#1D2333"/></linearGradient><linearGradient id="paint13_linear_27_2461" x1="57.6" y1=".9" x2="19.8" y2="72" gradientUnits="userSpaceOnUse"><stop stop-color="#26259B"/><stop offset="1" stop-color="#191863"/></linearGradient><linearGradient id="paint14_linear_27_2461" x1="88.799" y1="1.387" x2="30.525" y2="110.999" gradientUnits="userSpaceOnUse"><stop stop-color="#FE7E47"/><stop offset="1" stop-color="#C55C2F"/></linearGradient><linearGradient id="paint15_linear_27_2461" x1="88.799" y1="1.387" x2="30.525" y2="110.999" gradientUnits="userSpaceOnUse"><stop stop-color="#26259B"/><stop offset="1" stop-color="#191863"/></linearGradient><filter id="filter0_d_27_2461" x="124.951" y="399.65" width="147.344" height="148.65" filterUnits="userSpaceOnUse" color-interpolation-filters="sRGB"><feFlood flood-opacity="0" result="BackgroundImageFix"/><feColorMatrix in="SourceAlpha" values="0 0 0 0 0 0 0 0 0 0 0 0 0 0 0 0 0 0 127 0" result="hardAlpha"/><feOffset dx="-16.417" dy="16.417"/><feGaussianBlur stdDeviation="12.313"/><feComposite in2="hardAlpha" operator="out"/><feColorMatrix values="0 0 0 0 0 0 0 0 0 0 0 0 0 0 0 0 0 0 0.15 0"/><feBlend in2="BackgroundImageFix" result="effect1_dropShadow_27_2461"/><feBlend in="SourceGraphic" in2="effect1_dropShadow_27_2461" result="shape"/></filter><filter id="filter1_d_27_2461" x="342.933" y="102.88" width="98.609" height="99.123" filterUnits="userSpaceOnUse" color-interpolation-filters="sRGB"><feFlood flood-opacity="0" result="BackgroundImageFix"/><feColorMatrix in="SourceAlpha" values="0 0 0 0 0 0 0 0 0 0 0 0 0 0 0 0 0 0 127 0" result="hardAlpha"/><feOffset dx="-20" dy="20"/><feGaussianBlur stdDeviation="15"/><feComposite in2="hardAlpha" operator="out"/><feColorMatrix values="0 0 0 0 0 0 0 0 0 0 0 0 0 0 0 0 0 0 0.15 0"/><feBlend in2="BackgroundImageFix" result="effect1_dropShadow_27_2461"/><feBlend in="SourceGraphic" in2="effect1_dropShadow_27_2461" result="shape"/></filter><filter id="filter2_d_27_2461" x="445.428" y="277.286" width="106.286" height="106.286" filterUnits="userSpaceOnUse" color-interpolation-filters="sRGB"><feFlood flood-opacity="0" result="BackgroundImageFix"/><feColorMatrix in="SourceAlpha" values="0 0 0 0 0 0 0 0 0 0 0 0 0 0 0 0 0 0 127 0" result="hardAlpha"/><feOffset dx="-11.429" dy="11.429"/><feGaussianBlur stdDeviation="8.571"/><feComposite in2="hardAlpha" operator="out"/><feColorMatrix values="0 0 0 0 0 0 0 0 0 0 0 0 0 0 0 0 0 0 0.15 0"/><feBlend in2="BackgroundImageFix" result="effect1_dropShadow_27_2461"/><feBlend in="SourceGraphic" in2="effect1_dropShadow_27_2461" result="shape"/></filter><filter id="filter3_iiiii_27_2461" x="473.1" y="283" width="76.5" height="76.5" filterUnits="userSpaceOnUse" color-interpolation-filters="sRGB"><feFlood flood-opacity="0" result="BackgroundImageFix"/><feBlend in="SourceGraphic" in2="BackgroundImageFix" result="shape"/><feColorMatrix in="SourceAlpha" values="0 0 0 0 0 0 0 0 0 0 0 0 0 0 0 0 0 0 127 0" result="hardAlpha"/><feMorphology radius="3.6" operator="dilate" in="SourceAlpha" result="effect1_innerShadow_27_2461"/><feOffset dx="3.6" dy=".9"/><feGaussianBlur stdDeviation="6.3"/><feComposite in2="hardAlpha" operator="arithmetic" k2="-1" k3="1"/><feColorMatrix values="0 0 0 0 1 0 0 0 0 1 0 0 0 0 1 0 0 0 0.15 0"/><feBlend in2="shape" result="effect1_innerShadow_27_2461"/><feColorMatrix in="SourceAlpha" values="0 0 0 0 0 0 0 0 0 0 0 0 0 0 0 0 0 0 127 0" result="hardAlpha"/><feMorphology radius=".9" operator="dilate" in="SourceAlpha" result="effect2_innerShadow_27_2461"/><feOffset dx="1.8"/><feGaussianBlur stdDeviation=".9"/><feComposite in2="hardAlpha" operator="arithmetic" k2="-1" k3="1"/><feColorMatrix values="0 0 0 0 0 0 0 0 0 0 0 0 0 0 0 0 0 0 0.25 0"/><feBlend in2="effect1_innerShadow_27_2461" result="effect2_innerShadow_27_2461"/><feColorMatrix in="SourceAlpha" values="0 0 0 0 0 0 0 0 0 0 0 0 0 0 0 0 0 0 127 0" result="hardAlpha"/><feMorphology radius="6.3" operator="dilate" in="SourceAlpha" result="effect3_innerShadow_27_2461"/><feOffset dx="-.9" dy="4.5"/><feGaussianBlur stdDeviation="6.3"/><feComposite in2="hardAlpha" operator="arithmetic" k2="-1" k3="1"/><feColorMatrix values="0 0 0 0 0.262745 0 0 0 0 0.486275 0 0 0 0 0.894118 0 0 0 0.5 0"/><feBlend in2="effect2_innerShadow_27_2461" result="effect3_innerShadow_27_2461"/><feColorMatrix in="SourceAlpha" values="0 0 0 0 0 0 0 0 0 0 0 0 0 0 0 0 0 0 127 0" result="hardAlpha"/><feMorphology radius=".9" operator="dilate" in="SourceAlpha" result="effect4_innerShadow_27_2461"/><feOffset dx="-.9" dy="1.8"/><feGaussianBlur stdDeviation=".9"/><feComposite in2="hardAlpha" operator="arithmetic" k2="-1" k3="1"/><feColorMatrix values="0 0 0 0 0.262745 0 0 0 0 0.486275 0 0 0 0 0.894118 0 0 0 0.45 0"/><feBlend in2="effect3_innerShadow_27_2461" result="effect4_innerShadow_27_2461"/><feColorMatrix in="SourceAlpha" values="0 0 0 0 0 0 0 0 0 0 0 0 0 0 0 0 0 0 127 0" result="hardAlpha"/><feMorphology radius="11.7" operator="dilate" in="SourceAlpha" result="effect5_innerShadow_27_2461"/><feOffset dx="3.6" dy="-11.7"/><feGaussianBlur stdDeviation="1.8"/><feComposite in2="hardAlpha" operator="arithmetic" k2="-1" k3="1"/><feColorMatrix values="0 0 0 0 0.101961 0 0 0 0 0.376471 0 0 0 0 0.662745 0 0 0 1 0"/><feBlend in2="effect4_innerShadow_27_2461" result="effect5_innerShadow_27_2461"/></filter><filter id="filter4_f_27_2461" x="488.97" y="268.27" width="64.561" height="64.561" filterUnits="userSpaceOnUse" color-interpolation-filters="sRGB"><feFlood flood-opacity="0" result="BackgroundImageFix"/><feBlend in="SourceGraphic" in2="BackgroundImageFix" result="shape"/><feGaussianBlur stdDeviation="10.515" result="effect1_foregroundBlur_27_2461"/></filter><filter id="filter5_f_27_2461" x="458.691" y="295.981" width="73.61" height="74.018" filterUnits="userSpaceOnUse" color-interpolation-filters="sRGB"><feFlood flood-opacity="0" result="BackgroundImageFix"/><feBlend in="SourceGraphic" in2="BackgroundImageFix" result="shape"/><feGaussianBlur stdDeviation="11.721" result="effect1_foregroundBlur_27_2461"/></filter><filter id="filter6_f_27_2461" x="490.482" y="318.298" width="73.49" height="65.869" filterUnits="userSpaceOnUse" color-interpolation-filters="sRGB"><feFlood flood-opacity="0" result="BackgroundImageFix"/><feBlend in="SourceGraphic" in2="BackgroundImageFix" result="shape"/><feGaussianBlur stdDeviation="10.8" result="effect1_foregroundBlur_27_2461"/></filter><filter id="filter7_iiiii_27_2461" x="4.612" y="101" width="117.937" height="117.937" filterUnits="userSpaceOnUse" color-interpolation-filters="sRGB"><feFlood flood-opacity="0" result="BackgroundImageFix"/><feBlend in="SourceGraphic" in2="BackgroundImageFix" result="shape"/><feColorMatrix in="SourceAlpha" values="0 0 0 0 0 0 0 0 0 0 0 0 0 0 0 0 0 0 127 0" result="hardAlpha"/><feMorphology radius="5.55" operator="dilate" in="SourceAlpha" result="effect1_innerShadow_27_2461"/><feOffset dx="5.55" dy="1.387"/><feGaussianBlur stdDeviation="9.713"/><feComposite in2="hardAlpha" operator="arithmetic" k2="-1" k3="1"/><feColorMatrix values="0 0 0 0 1 0 0 0 0 1 0 0 0 0 1 0 0 0 0.15 0"/><feBlend in2="shape" result="effect1_innerShadow_27_2461"/><feColorMatrix in="SourceAlpha" values="0 0 0 0 0 0 0 0 0 0 0 0 0 0 0 0 0 0 127 0" result="hardAlpha"/><feMorphology radius="1.387" operator="dilate" in="SourceAlpha" result="effect2_innerShadow_27_2461"/><feOffset dx="2.775"/><feGaussianBlur stdDeviation="1.387"/><feComposite in2="hardAlpha" operator="arithmetic" k2="-1" k3="1"/><feColorMatrix values="0 0 0 0 1 0 0 0 0 1 0 0 0 0 1 0 0 0 0.25 0"/><feBlend in2="effect1_innerShadow_27_2461" result="effect2_innerShadow_27_2461"/><feColorMatrix in="SourceAlpha" values="0 0 0 0 0 0 0 0 0 0 0 0 0 0 0 0 0 0 127 0" result="hardAlpha"/><feMorphology radius="9.713" operator="dilate" in="SourceAlpha" result="effect3_innerShadow_27_2461"/><feOffset dx="-1.387" dy="6.938"/><feGaussianBlur stdDeviation="9.713"/><feComposite in2="hardAlpha" operator="arithmetic" k2="-1" k3="1"/><feColorMatrix values="0 0 0 0 0.929167 0 0 0 0 0.929167 0 0 0 0 0.929167 0 0 0 0.5 0"/><feBlend in2="effect2_innerShadow_27_2461" result="effect3_innerShadow_27_2461"/><feColorMatrix in="SourceAlpha" values="0 0 0 0 0 0 0 0 0 0 0 0 0 0 0 0 0 0 127 0" result="hardAlpha"/><feMorphology radius="1.387" operator="dilate" in="SourceAlpha" result="effect4_innerShadow_27_2461"/><feOffset dx="-1.387" dy="2.775"/><feGaussianBlur stdDeviation="1.387"/><feComposite in2="hardAlpha" operator="arithmetic" k2="-1" k3="1"/><feColorMatrix values="0 0 0 0 0.922292 0 0 0 0 0.939477 0 0 0 0 0.970833 0 0 0 0.45 0"/><feBlend in2="effect3_innerShadow_27_2461" result="effect4_innerShadow_27_2461"/><feColorMatrix in="SourceAlpha" values="0 0 0 0 0 0 0 0 0 0 0 0 0 0 0 0 0 0 127 0" result="hardAlpha"/><feMorphology radius="18.038" operator="dilate" in="SourceAlpha" result="effect5_innerShadow_27_2461"/><feOffset dx="5.55" dy="-18.038"/><feGaussianBlur stdDeviation="2.775"/><feComposite in2="hardAlpha" operator="arithmetic" k2="-1" k3="1"/><feColorMatrix values="0 0 0 0 1 0 0 0 0 1 0 0 0 0 1 0 0 0 1 0"/><feBlend in2="effect4_innerShadow_27_2461" result="effect5_innerShadow_27_2461"/></filter><filter id="filter8_f_27_2461" x="-17.603" y="121.013" width="113.482" height="114.11" filterUnits="userSpaceOnUse" color-interpolation-filters="sRGB"><feFlood flood-opacity="0" result="BackgroundImageFix"/><feBlend in="SourceGraphic" in2="BackgroundImageFix" result="shape"/><feGaussianBlur stdDeviation="18.07" result="effect1_foregroundBlur_27_2461"/></filter><filter id="filter9_f_27_2461" x="29.078" y="78.29" width="99.532" height="99.532" filterUnits="userSpaceOnUse" color-interpolation-filters="sRGB"><feFlood flood-opacity="0" result="BackgroundImageFix"/><feBlend in="SourceGraphic" in2="BackgroundImageFix" result="shape"/><feGaussianBlur stdDeviation="16.211" result="effect1_foregroundBlur_27_2461"/></filter><filter id="filter10_f_27_2461" x="31.409" y="155.419" width="113.297" height="101.547" filterUnits="userSpaceOnUse" color-interpolation-filters="sRGB"><feFlood flood-opacity="0" result="BackgroundImageFix"/><feBlend in="SourceGraphic" in2="BackgroundImageFix" result="shape"/><feGaussianBlur stdDeviation="16.65" result="effect1_foregroundBlur_27_2461"/></filter><clipPath id="clip0_27_2461"><path fill="#fff" d="M0 0h590v598H0z"/></clipPath></defs></svg>